{"glyphs":{"0":{"ha":833,"x_min":0,"x_max":0,"o":"m 779 576 b 751 683 776 628 772 664 b 758 751 757 701 758 725 b 649 946 758 832 700 914 b 458 965 606 972 525 986 b 367 906 411 951 371 946 b 232 892 335 919 285 924 b 65 501 167 851 93 604 b 54 275 38 399 51 336 b 403 15 63 93 218 10 b 551 72 450 17 517 50 b 750 465 672 149 733 335 b 779 576 783 499 781 560 z m 546 914 b 674 815 611 914 654 868 b 676 743 689 775 697 747 b 565 851 635 735 635 811 b 464 874 510 883 485 840 b 546 914 451 894 488 914 z m 543 171 b 390 110 513 140 438 110 b 119 357 258 110 125 154 b 183 308 118 400 197 368 b 261 231 171 254 222 231 b 378 342 303 231 357 278 b 308 517 403 418 361 497 b 199 449 264 533 171 504 b 151 432 210 426 160 413 b 183 583 143 451 169 524 b 297 829 232 783 269 815 b 381 836 325 843 354 842 b 440 803 392 819 411 808 b 579 756 496 792 518 836 b 622 682 594 736 606 706 b 621 679 622 681 621 681 b 601 585 610 656 600 618 b 604 561 601 578 603 569 l 603 561 b 533 540 579 561 547 563 b 517 464 522 522 515 492 b 542 388 518 440 531 404 b 607 351 557 364 581 350 b 656 368 629 353 644 358 b 543 171 636 299 582 210 z "},"1":{"ha":599,"x_min":0,"x_max":0,"o":"m 369 336 b 532 642 435 397 506 451 b 513 958 538 686 564 893 b 375 936 454 1032 386 988 b 238 660 332 738 303 693 b 214 676 232 668 224 674 b 136 667 193 681 163 676 b 72 617 114 658 85 633 b 61 543 56 594 50 568 b 188 504 96 467 171 499 b 264 590 243 524 272 543 b 414 757 297 607 400 668 b 465 856 435 894 468 921 b 301 383 458 708 463 508 b 275 128 236 332 238 201 b 272 126 274 128 274 126 b 272 -39 264 119 154 14 b 451 8 324 -62 421 -58 b 339 185 482 75 354 124 b 369 336 324 244 339 308 z m 204 569 b 143 544 200 554 160 538 b 122 590 124 553 117 576 b 172 618 128 604 154 626 b 204 569 189 611 208 585 z "},"2":{"ha":821,"x_min":0,"x_max":0,"o":"m 621 296 b 488 164 493 308 525 168 b 329 142 356 149 390 149 b 181 194 246 132 215 164 b 133 201 168 206 150 207 b 142 243 131 214 132 228 b 331 350 176 303 228 336 b 332 313 390 358 407 322 b 226 236 288 307 229 271 b 308 182 222 196 265 163 b 431 192 349 200 390 225 b 490 239 450 175 490 196 b 450 307 490 260 481 297 b 488 317 421 317 429 339 b 754 567 625 265 783 410 b 700 721 743 631 707 647 b 499 901 686 860 553 921 b 472 893 489 899 481 894 b 438 951 472 918 453 938 b 339 968 414 974 369 969 b 244 911 279 965 253 936 l 239 913 b 50 779 156 928 57 929 b 233 667 46 683 156 631 b 326 754 293 694 299 719 b 456 799 376 715 439 779 b 460 807 457 801 460 804 b 501 813 472 808 486 810 b 610 718 547 819 610 776 b 672 557 610 646 658 606 b 499 394 700 458 588 358 b 244 411 433 421 390 450 b 60 272 144 385 108 336 b 74 124 15 214 74 165 b 190 -24 74 76 114 -25 b 347 67 267 -22 261 38 b 494 74 393 82 458 75 b 576 -49 482 25 510 -35 b 708 -17 618 -57 675 -44 b 750 168 743 13 757 122 b 621 296 743 213 706 288 z m 268 794 b 207 736 263 765 235 744 b 149 754 150 719 182 746 b 154 833 99 767 143 831 b 268 794 224 850 271 810 z m 668 85 b 610 21 672 50 654 13 b 554 143 565 29 544 103 b 619 210 567 193 594 211 b 689 163 646 208 682 192 b 668 85 696 135 665 113 z "},"3":{"ha":833,"x_min":0,"x_max":0,"o":"m 774 467 b 494 547 725 625 564 504 b 332 632 422 592 422 617 b 206 631 276 642 213 611 b 326 674 199 651 278 667 b 496 617 400 685 447 636 b 671 638 581 583 629 611 b 760 778 714 665 744 724 b 685 949 775 833 756 938 b 522 868 613 960 579 868 b 446 876 492 868 468 871 b 463 918 453 892 460 908 b 431 993 474 953 449 976 b 332 1010 407 1015 363 1011 b 256 982 296 1008 271 997 b 58 908 188 1017 108 1032 b 192 740 22 819 107 733 b 319 797 263 746 272 771 b 429 813 356 767 408 786 b 515 788 451 806 478 796 b 676 868 610 768 625 882 b 628 700 722 856 699 750 b 515 694 599 679 547 682 b 249 725 444 722 397 757 b 172 694 222 719 196 706 b 118 567 99 660 85 590 b 282 568 158 538 217 568 b 457 478 321 568 393 525 b 647 467 513 438 575 467 b 657 208 721 467 717 283 b 624 207 646 213 635 213 b 468 183 585 183 549 158 b 317 233 410 201 444 194 b 210 388 281 244 338 376 b 60 286 125 394 75 329 b 67 97 44 243 38 132 b 190 42 94 64 147 40 b 289 158 258 44 293 108 b 438 113 325 153 394 136 b 575 -6 517 69 500 10 b 717 118 649 -21 707 71 b 706 163 719 131 715 147 b 774 467 776 275 801 378 z m 268 849 b 190 814 251 824 219 813 b 142 851 131 817 171 832 b 175 924 100 879 164 925 b 268 849 246 915 276 861 z m 171 115 b 125 189 125 115 114 156 b 118 269 135 217 107 243 b 196 303 131 297 169 307 b 247 225 221 299 243 278 b 171 115 250 185 215 115 z "},"4":{"ha":799,"x_min":0,"x_max":0,"o":"m 650 619 b 661 713 656 654 660 688 b 654 808 663 740 660 788 b 633 829 651 819 644 831 b 582 825 615 826 597 818 b 554 807 574 829 551 821 b 564 621 564 760 571 692 b 329 536 500 610 421 575 b 271 461 297 522 279 492 b 151 382 232 439 190 426 b 143 426 89 313 115 386 b 164 549 169 465 142 507 b 249 594 188 592 228 590 b 414 675 318 608 360 633 b 488 829 443 706 444 785 b 635 882 544 888 588 876 b 699 1024 706 890 729 986 b 494 1006 658 1072 563 1065 b 390 825 438 956 396 850 b 326 715 385 800 347 747 b 210 675 306 683 275 675 b 100 586 174 675 122 631 b 72 444 81 546 115 485 b 53 285 29 404 42 332 b 186 321 64 238 138 272 b 276 394 225 360 249 374 b 456 328 300 339 354 275 b 521 329 476 339 497 335 b 467 25 535 211 497 93 b 489 1 461 13 481 -1 b 538 -15 504 7 521 -8 b 563 0 549 -19 558 -10 b 593 92 571 19 588 65 b 614 315 606 149 611 253 l 629 318 b 650 619 792 356 801 583 z m 614 406 b 457 394 544 392 533 425 b 357 404 397 371 372 382 b 399 476 344 422 339 443 b 581 553 433 496 553 554 b 663 504 610 551 649 539 b 614 406 676 468 682 419 z "},"5":{"ha":742,"x_min":0,"x_max":0,"o":"m 696 329 b 553 499 679 450 615 494 l 546 499 b 501 501 528 500 514 501 b 350 536 403 507 374 506 b 224 546 322 572 258 558 b 231 647 196 536 158 543 b 540 813 311 763 436 814 b 594 972 644 811 722 951 b 210 969 467 993 307 986 b 107 864 113 953 125 943 b 88 711 89 785 83 743 l 101 572 b 47 444 108 508 36 483 b 158 429 58 406 124 390 b 333 432 189 464 279 465 b 400 319 319 396 344 354 b 457 149 488 264 472 206 b 186 133 426 38 208 118 b 107 189 164 149 133 174 b 75 144 81 204 82 163 b 60 71 68 126 14 104 b 304 -8 106 38 243 -8 b 497 38 365 -8 449 -8 b 529 63 507 47 518 56 b 607 75 554 57 582 58 b 696 329 678 121 713 208 z m 201 874 b 404 917 228 915 335 917 b 543 915 474 917 517 919 b 521 858 583 908 596 857 b 278 794 446 860 358 849 b 182 682 219 756 196 715 b 150 703 169 650 151 665 b 201 874 150 790 175 832 z m 628 322 b 604 163 626 222 626 197 b 532 193 582 128 532 133 b 463 363 532 253 538 322 b 513 439 408 392 433 450 b 628 322 592 428 629 422 z "},"6":{"ha":654,"x_min":0,"x_max":0,"o":"m 607 172 b 608 175 607 174 608 174 b 588 399 635 243 624 347 b 406 496 557 442 478 486 b 360 504 388 499 372 503 b 306 490 336 507 319 507 b 168 499 263 511 218 513 l 149 494 b 179 751 114 582 138 704 b 332 854 214 790 271 839 b 478 796 414 875 440 824 b 619 860 536 753 618 813 b 457 981 621 925 547 981 b 239 900 379 981 301 933 b 56 694 167 861 99 808 b 67 446 35 639 24 514 b 43 392 57 432 49 414 b 33 217 18 300 31 272 b 344 -15 42 54 179 -21 b 608 172 425 -12 544 13 z m 475 417 b 567 243 546 385 568 313 b 533 160 565 192 557 156 b 464 338 483 168 524 257 b 365 414 417 401 374 367 b 475 417 361 439 411 446 z m 333 69 b 92 290 215 69 99 110 b 147 190 90 329 160 243 b 217 121 136 142 182 121 b 321 219 254 121 301 163 b 258 376 344 288 306 358 b 161 315 219 392 136 365 b 119 357 171 296 126 340 b 171 429 113 375 117 421 b 282 426 229 439 260 436 b 326 353 281 399 294 376 b 439 250 374 319 413 351 b 475 114 450 207 436 142 b 333 69 440 76 371 69 z "},"7":{"ha":643,"x_min":0,"x_max":0,"o":"m 400 606 b 314 810 400 731 407 806 b 185 846 278 811 215 807 b 68 819 167 869 103 832 b 44 861 13 800 50 840 b 42 908 39 882 13 904 b 239 956 107 918 197 910 b 419 968 281 1001 353 964 b 592 917 486 972 561 947 b 576 725 622 886 628 818 b 483 565 525 632 514 578 b 400 606 453 553 400 568 z m 276 861 b 447 794 364 861 433 881 b 453 665 461 708 454 693 b 493 683 451 640 486 644 b 544 839 500 722 550 792 b 446 908 539 886 514 908 b 283 919 378 908 313 926 b 276 861 231 908 236 861 z m 357 238 b 243 138 325 157 285 158 b 239 -19 178 106 197 4 b 386 74 296 -51 353 -10 b 433 283 410 133 396 218 b 506 526 506 408 579 493 b 276 507 386 581 367 507 b 126 496 236 507 168 501 b 114 440 85 490 114 457 b 124 392 114 424 90 383 b 268 431 157 400 200 436 b 381 461 336 425 331 439 b 429 389 431 483 472 449 b 357 238 386 329 368 272 z "},"8":{"ha":646,"x_min":0,"x_max":0,"o":"m 567 365 b 438 526 515 428 510 511 b 471 547 450 532 461 539 b 581 701 524 588 574 653 b 489 889 593 793 547 836 b 163 931 428 943 318 999 b 89 621 68 889 33 708 b 192 539 108 590 146 561 b 265 514 214 528 239 519 b 190 479 233 504 206 492 b 42 257 149 446 38 332 b 239 7 47 146 99 40 b 476 101 381 -26 421 33 b 567 365 533 171 621 300 z m 150 671 b 217 865 118 753 139 851 b 253 831 313 882 332 838 b 236 717 203 826 115 740 b 342 663 272 710 296 660 b 351 774 413 667 385 743 b 431 817 310 811 360 879 b 379 599 507 749 490 669 b 150 671 340 574 182 589 z m 421 156 b 256 90 383 107 354 67 b 118 264 157 114 119 186 b 221 419 117 317 193 396 b 392 456 250 443 335 464 b 485 340 444 444 447 385 b 421 156 522 294 461 204 z "},"9":{"ha":639,"x_min":0,"x_max":0,"o":"m 476 469 b 390 542 426 488 390 517 b 393 582 390 554 392 568 b 489 624 428 592 463 606 b 510 865 563 672 547 810 b 110 986 422 996 188 1029 b 85 728 22 938 26 828 b 197 588 129 653 158 607 b 297 568 225 574 260 568 b 296 536 297 560 296 550 b 354 426 294 483 307 447 b 510 313 401 406 510 378 b 344 154 510 249 392 174 b 189 167 265 124 232 151 b 72 64 119 192 60 110 b 263 -3 89 1 176 -31 b 369 92 338 21 346 78 b 582 311 458 146 571 215 b 476 469 592 399 526 451 z m 231 658 b 161 740 193 671 207 696 b 160 917 100 800 110 896 b 349 896 214 939 288 899 b 244 875 388 894 288 842 b 156 851 204 906 171 876 b 168 767 143 833 144 797 b 360 708 214 713 283 690 b 363 808 396 717 404 797 b 360 831 329 817 340 824 b 419 847 369 835 396 857 b 429 696 453 796 451 731 b 231 658 415 671 328 628 z "},"A":{"ha":758,"x_min":0,"x_max":0,"o":"m 582 419 b 547 739 671 465 674 563 b 304 940 421 915 379 1001 b 247 726 229 879 315 810 b 129 483 179 643 83 554 b 153 336 154 436 206 400 b 67 204 100 271 83 260 b 44 57 57 172 53 89 b 90 28 29 0 81 28 b 144 33 100 28 143 -6 b 171 239 146 74 133 192 b 285 369 208 285 294 311 b 265 488 269 457 228 458 l 303 513 b 421 492 361 550 394 578 b 582 419 432 456 501 378 z m 476 549 b 313 589 432 625 397 614 b 319 710 219 561 213 597 b 336 797 351 743 338 757 b 428 793 335 839 382 875 b 538 611 472 713 499 661 b 476 549 582 554 521 474 z m 696 239 b 610 371 661 325 649 367 b 544 228 528 379 511 343 b 517 72 578 111 519 125 b 664 31 514 19 610 -15 b 696 239 719 76 732 150 z m 644 118 b 610 131 624 78 593 96 b 596 244 622 157 596 214 b 635 256 596 292 636 275 b 644 118 629 183 664 157 z "},"Á":{"ha":758,"x_min":0,"x_max":0,"o":"m 197 1017 b 363 1071 239 1017 311 1039 b 475 1175 400 1094 461 1158 b 449 1204 494 1197 463 1194 b 396 1207 431 1217 431 1243 b 201 1097 354 1163 276 1081 b 200 1053 182 1101 200 1068 b 197 1017 200 1038 160 1017 z m 582 419 b 547 739 671 465 674 563 b 304 940 421 915 379 1001 b 247 726 229 879 315 810 b 129 483 179 643 83 554 b 153 336 154 436 206 400 b 67 204 100 271 83 260 b 44 57 57 172 53 89 b 90 28 29 0 81 28 b 144 33 100 28 143 -6 b 171 239 146 74 133 192 b 285 369 208 285 294 311 b 265 488 269 457 228 458 l 303 513 b 421 492 361 550 394 578 b 582 419 432 456 501 378 z m 476 549 b 313 589 432 625 397 614 b 319 710 219 561 213 597 b 336 797 351 743 338 757 b 428 793 335 839 382 875 b 538 611 472 713 499 661 b 476 549 582 554 521 474 z m 696 239 b 610 371 661 325 649 367 b 544 228 528 379 511 343 b 517 72 578 111 519 125 b 664 31 514 19 610 -15 b 696 239 719 76 732 150 z m 644 118 b 610 131 624 78 593 96 b 596 244 622 157 596 214 b 635 256 596 292 636 275 b 644 118 629 183 664 157 z "},"Â":{"ha":758,"x_min":0,"x_max":0,"o":"m 204 990 b 346 1090 243 1001 306 1044 b 414 1189 375 1124 407 1168 b 458 1079 419 1168 433 1115 b 586 963 492 1031 549 981 b 608 996 621 946 601 982 b 615 1036 615 1010 635 1032 b 483 1218 540 1053 503 1160 b 426 1256 461 1281 440 1254 b 353 1226 413 1257 399 1285 b 185 1068 326 1193 261 1068 b 196 1025 165 1068 192 1040 b 204 990 200 1010 168 981 z m 582 419 b 547 739 671 465 674 563 b 304 940 421 915 379 1001 b 247 726 229 879 315 810 b 129 483 179 643 83 554 b 153 336 154 436 206 400 b 67 204 100 271 83 260 b 44 57 57 172 53 89 b 90 28 29 0 81 28 b 144 33 100 28 143 -6 b 171 239 146 74 133 192 b 285 369 208 285 294 311 b 265 488 269 457 228 458 l 303 513 b 421 492 361 550 394 578 b 582 419 432 456 501 378 z m 476 549 b 313 589 432 625 397 614 b 319 710 219 561 213 597 b 336 797 351 743 338 757 b 428 793 335 839 382 875 b 538 611 472 713 499 661 b 476 549 582 554 521 474 z m 696 239 b 610 371 661 325 649 367 b 544 228 528 379 511 343 b 517 72 578 111 519 125 b 664 31 514 19 610 -15 b 696 239 719 76 732 150 z m 644 118 b 610 131 624 78 593 96 b 596 244 622 157 596 214 b 635 256 596 292 636 275 b 644 118 629 183 664 157 z "},"Ä":{"ha":758,"x_min":0,"x_max":0,"o":"m 524 1072 b 582 1122 557 1072 582 1100 b 524 1188 582 1146 557 1186 b 461 1133 493 1189 461 1157 b 524 1072 461 1111 493 1072 z m 253 1090 b 339 1086 268 1075 314 1064 b 350 1171 360 1108 365 1156 b 256 1168 335 1186 279 1190 b 253 1090 233 1144 236 1106 z m 582 419 b 547 739 671 465 674 563 b 304 940 421 915 379 1001 b 247 726 229 879 315 810 b 129 483 179 643 83 554 b 153 336 154 436 206 400 b 67 204 100 271 83 260 b 44 57 57 172 53 89 b 90 28 29 0 81 28 b 144 33 100 28 143 -6 b 171 239 146 74 133 192 b 285 369 208 285 294 311 b 265 488 269 457 228 458 l 303 513 b 421 492 361 550 394 578 b 582 419 432 456 501 378 z m 476 549 b 313 589 432 625 397 614 b 319 710 219 561 213 597 b 336 797 351 743 338 757 b 428 793 335 839 382 875 b 538 611 472 713 499 661 b 476 549 582 554 521 474 z m 696 239 b 610 371 661 325 649 367 b 544 228 528 379 511 343 b 517 72 578 111 519 125 b 664 31 514 19 610 -15 b 696 239 719 76 732 150 z m 644 118 b 610 131 624 78 593 96 b 596 244 622 157 596 214 b 635 256 596 292 636 275 b 644 118 629 183 664 157 z "},"À":{"ha":758,"x_min":0,"x_max":0,"o":"m 339 1060 b 504 1006 390 1028 463 1006 b 501 1042 542 1006 501 1026 b 500 1086 501 1057 519 1090 b 306 1196 425 1069 347 1151 b 253 1193 271 1232 271 1206 b 226 1164 239 1183 207 1186 b 339 1060 240 1147 301 1083 z m 582 419 b 547 739 671 465 674 563 b 304 940 421 915 379 1001 b 247 726 229 879 315 810 b 129 483 179 643 83 554 b 153 336 154 436 206 400 b 67 204 100 271 83 260 b 44 57 57 172 53 89 b 90 28 29 0 81 28 b 144 33 100 28 143 -6 b 171 239 146 74 133 192 b 285 369 208 285 294 311 b 265 488 269 457 228 458 l 303 513 b 421 492 361 550 394 578 b 582 419 432 456 501 378 z m 476 549 b 313 589 432 625 397 614 b 319 710 219 561 213 597 b 336 797 351 743 338 757 b 428 793 335 839 382 875 b 538 611 472 713 499 661 b 476 549 582 554 521 474 z m 696 239 b 610 371 661 325 649 367 b 544 228 528 379 511 343 b 517 72 578 111 519 125 b 664 31 514 19 610 -15 b 696 239 719 76 732 150 z m 644 118 b 610 131 624 78 593 96 b 596 244 622 157 596 214 b 635 256 596 292 636 275 b 644 118 629 183 664 157 z "},"Å":{"ha":758,"x_min":0,"x_max":0,"o":"m 342 1029 b 426 1143 389 1031 439 1071 b 285 1226 414 1217 326 1240 b 229 1133 243 1213 219 1168 b 342 1029 239 1099 294 1028 z m 292 1164 b 363 1165 306 1182 338 1188 b 382 1110 376 1153 385 1129 b 313 1101 379 1090 342 1096 b 292 1164 283 1107 276 1144 z m 582 419 b 547 739 671 465 674 563 b 304 940 421 915 379 1001 b 247 726 229 879 315 810 b 129 483 179 643 83 554 b 153 336 154 436 206 400 b 67 204 100 271 83 260 b 44 57 57 172 53 89 b 90 28 29 0 81 28 b 144 33 100 28 143 -6 b 171 239 146 74 133 192 b 285 369 208 285 294 311 b 265 488 269 457 228 458 l 303 513 b 421 492 361 550 394 578 b 582 419 432 456 501 378 z m 476 549 b 313 589 432 625 397 614 b 319 710 219 561 213 597 b 336 797 351 743 338 757 b 428 793 335 839 382 875 b 538 611 472 713 499 661 b 476 549 582 554 521 474 z m 696 239 b 610 371 661 325 649 367 b 544 228 528 379 511 343 b 517 72 578 111 519 125 b 664 31 514 19 610 -15 b 696 239 719 76 732 150 z m 644 118 b 610 131 624 78 593 96 b 596 244 622 157 596 214 b 635 256 596 292 636 275 b 644 118 629 183 664 157 z "},"Ã":{"ha":758,"x_min":0,"x_max":0,"o":"m 181 1058 b 211 1050 188 1051 199 1029 b 274 1183 221 1067 268 1135 b 313 1156 275 1196 299 1208 b 340 1054 319 1128 317 1078 b 479 1040 382 1013 438 996 b 553 1169 513 1075 553 1121 b 536 1257 553 1221 551 1232 b 501 1257 522 1281 513 1257 b 461 1253 486 1257 458 1279 b 478 1165 463 1240 490 1201 b 383 1128 456 1100 397 1061 b 358 1218 376 1161 369 1196 b 258 1267 335 1265 297 1274 b 203 1189 229 1261 203 1229 b 160 1092 203 1143 169 1101 b 181 1058 128 1060 172 1067 z m 582 419 b 547 739 671 465 674 563 b 304 940 421 915 379 1001 b 247 726 229 879 315 810 b 129 483 179 643 83 554 b 153 336 154 436 206 400 b 67 204 100 271 83 260 b 44 57 57 172 53 89 b 90 28 29 0 81 28 b 144 33 100 28 143 -6 b 171 239 146 74 133 192 b 285 369 208 285 294 311 b 265 488 269 457 228 458 l 303 513 b 421 492 361 550 394 578 b 582 419 432 456 501 378 z m 476 549 b 313 589 432 625 397 614 b 319 710 219 561 213 597 b 336 797 351 743 338 757 b 428 793 335 839 382 875 b 538 611 472 713 499 661 b 476 549 582 554 521 474 z m 696 239 b 610 371 661 325 649 367 b 544 228 528 379 511 343 b 517 72 578 111 519 125 b 664 31 514 19 610 -15 b 696 239 719 76 732 150 z m 644 118 b 610 131 624 78 593 96 b 596 244 622 157 596 214 b 635 256 596 292 636 275 b 644 118 629 183 664 157 z "},"Æ":{"ha":1053,"x_min":0,"x_max":0,"o":"m 582 419 b 897 469 661 461 797 454 b 988 510 961 479 981 486 b 958 556 994 532 961 546 b 938 604 956 567 968 607 b 881 551 900 601 903 572 b 640 560 860 532 661 497 b 639 564 639 561 639 563 b 547 739 628 611 597 668 b 457 874 510 792 481 836 b 640 858 410 960 551 893 b 606 763 614 828 586 782 b 769 747 636 732 736 758 b 933 693 804 736 893 667 b 963 842 976 721 1010 788 b 871 924 915 897 911 885 b 711 918 822 971 760 949 b 346 967 588 974 429 1004 b 319 951 338 964 329 958 b 247 726 244 890 315 810 b 129 483 179 643 83 554 b 153 336 154 436 206 400 b 67 204 100 271 83 260 b 44 57 57 172 53 89 b 90 28 29 0 81 28 b 144 33 100 28 143 -6 b 171 239 146 74 133 192 b 285 369 208 285 294 311 b 265 488 269 457 228 458 l 303 513 b 421 492 361 550 394 578 b 582 419 432 456 501 378 z m 814 876 b 886 806 858 853 901 835 b 788 800 871 776 835 774 b 697 819 739 828 711 800 b 814 876 683 840 750 910 z m 476 549 b 313 589 432 625 397 614 b 319 710 219 561 213 597 b 336 797 351 743 338 757 b 428 793 335 839 382 875 b 538 611 472 713 499 661 b 476 549 582 554 521 474 z m 994 147 b 974 196 992 158 1004 199 b 917 143 936 193 939 164 b 717 138 896 124 714 94 b 610 371 717 206 664 365 b 544 228 528 379 511 343 b 517 72 578 111 519 125 b 664 31 514 19 610 -15 b 933 61 703 57 906 51 b 1024 101 988 81 1017 78 b 994 147 1031 124 997 138 z m 644 118 b 610 131 624 78 593 96 b 596 244 622 157 596 214 b 635 256 596 292 636 275 b 644 118 629 183 664 157 z "},"B":{"ha":781,"x_min":0,"x_max":0,"o":"m 83 92 b 192 200 132 128 192 129 b 128 376 192 271 132 253 b 142 689 124 500 154 644 b 99 785 129 733 78 721 b 92 899 119 849 107 860 b 163 1008 76 938 140 993 b 231 983 185 1024 229 1007 b 306 963 232 960 246 953 b 656 867 365 972 621 924 b 681 746 679 828 681 792 b 704 607 681 713 707 649 b 606 471 701 568 661 471 b 547 439 557 471 488 449 b 722 172 657 419 740 329 b 474 6 704 15 575 11 b 229 19 372 0 275 3 b 151 -18 183 36 169 0 b 100 22 122 -46 122 0 b 83 92 86 36 18 43 z m 194 629 b 256 525 194 564 186 531 b 538 531 325 519 490 515 b 585 631 585 546 629 590 b 492 597 540 671 511 613 b 418 629 472 582 426 560 b 467 760 410 699 439 746 b 536 733 494 774 522 768 b 581 750 550 699 575 728 b 531 849 586 772 615 815 b 269 875 446 882 319 878 b 221 803 219 872 231 854 b 194 629 211 751 196 651 z m 278 271 b 522 101 332 183 425 122 b 633 229 574 90 678 138 b 454 385 589 321 518 369 b 249 411 390 400 274 436 b 278 271 224 386 240 332 z m 251 122 b 290 69 251 97 258 76 b 383 63 322 63 357 63 b 371 113 410 63 425 97 b 296 163 340 121 324 132 b 251 122 251 210 254 174 z "},"C":{"ha":833,"x_min":0,"x_max":0,"o":"m 571 96 b 568 292 479 108 446 236 b 601 504 676 340 694 428 b 307 549 535 558 381 568 b 315 306 165 511 229 367 b 331 139 401 244 475 104 b 121 431 236 161 157 254 b 182 793 93 565 85 732 b 247 756 279 854 289 800 b 325 671 206 711 242 596 b 474 736 408 746 438 735 b 465 824 510 738 517 819 b 457 889 414 828 397 879 b 593 797 517 899 589 874 b 644 772 597 721 625 771 b 699 804 664 774 719 731 b 492 975 678 878 606 964 b 88 806 378 986 157 932 b 11 438 18 679 -3 626 b 144 131 17 365 99 182 b 454 0 192 76 308 0 b 779 125 613 0 746 89 b 765 171 814 163 776 163 b 729 196 760 175 764 222 b 571 96 694 169 631 88 z m 351 485 b 557 438 451 485 521 476 b 513 343 593 399 553 383 b 328 392 431 263 378 326 b 351 485 299 431 293 485 z "},"Ç":{"ha":833,"x_min":0,"x_max":0,"o":"m 765 171 b 729 196 760 175 764 222 b 571 96 694 169 631 88 b 568 292 479 108 446 236 b 601 504 676 340 694 428 b 307 549 535 558 381 568 b 315 306 165 511 229 367 b 331 139 401 244 475 104 b 121 431 236 161 157 254 b 182 793 93 565 85 732 b 247 756 279 854 289 800 b 325 671 206 711 242 596 b 474 736 408 746 438 735 b 465 824 510 738 517 819 b 457 889 414 828 397 879 b 593 797 517 899 589 874 b 644 772 597 721 625 771 b 699 804 664 774 719 731 b 492 975 678 878 606 964 b 88 806 378 986 157 932 b 11 438 18 679 -3 626 b 144 131 17 365 99 182 b 424 1 189 81 292 11 b 376 -90 403 -33 389 -64 b 411 -153 363 -119 379 -168 b 492 -133 443 -137 483 -104 b 440 -194 500 -162 469 -179 b 350 -260 411 -210 353 -231 b 460 -335 347 -289 354 -339 b 622 -172 567 -331 625 -214 b 490 -60 619 -131 531 -44 b 475 -22 472 -67 454 -71 l 485 1 b 779 125 629 11 749 92 b 765 171 814 163 776 163 z m 328 392 b 351 485 299 431 293 485 b 557 438 451 485 521 476 b 513 343 593 399 553 383 b 328 392 431 263 378 326 z m 517 -201 b 550 -201 526 -183 542 -179 b 524 -250 558 -224 539 -236 b 440 -276 504 -268 465 -289 b 458 -243 414 -264 433 -250 b 517 -201 481 -237 500 -225 z "},"D":{"ha":753,"x_min":0,"x_max":0,"o":"m 721 382 b 565 761 711 485 657 626 b 201 963 474 897 263 965 b 133 996 140 960 133 933 b 92 997 133 1025 108 996 b 49 994 75 999 47 1033 b 72 549 31 657 51 629 b 46 410 83 507 42 500 b 75 142 50 319 81 243 b 213 11 69 50 161 8 b 513 18 300 15 428 17 b 603 97 572 19 594 53 b 690 136 642 108 674 117 b 721 382 722 172 731 279 z m 611 196 b 557 324 619 247 631 294 b 350 276 464 360 421 282 b 233 413 279 271 232 324 b 169 543 235 501 199 542 b 124 601 140 544 126 572 b 122 735 121 631 119 686 b 206 863 125 783 126 863 b 426 765 283 863 393 801 b 411 675 460 729 435 669 b 288 671 388 681 317 731 b 344 464 258 610 274 538 b 493 458 415 390 463 414 b 500 617 524 503 499 569 b 556 633 501 664 528 658 b 650 372 583 608 625 535 b 611 196 668 257 646 213 z m 447 82 b 244 88 393 68 350 111 b 150 189 143 65 161 121 b 115 435 139 257 119 386 b 171 433 111 483 167 493 b 297 210 179 304 222 217 b 457 239 363 204 418 224 b 531 165 496 254 528 235 b 447 82 533 96 501 96 z "},"Ð":{"ha":833,"x_min":0,"x_max":0,"o":"m 754 389 b 592 789 744 497 688 646 b 210 1000 494 932 274 1003 b 138 1035 146 997 139 968 b 93 1036 138 1065 111 1035 b 49 1033 76 1038 47 1074 b 56 636 35 785 42 696 b -37 615 24 632 -8 622 b -97 574 -71 607 -112 588 b -78 531 -81 558 -68 547 b -22 515 -86 517 -67 497 b 75 553 15 531 38 547 b 46 418 76 518 42 503 b 76 138 50 324 100 242 b 221 0 42 -18 86 -35 b 536 7 311 24 447 6 b 631 90 599 8 622 44 b 722 131 672 101 706 110 b 754 389 756 169 765 282 z m 639 194 b 582 328 647 249 660 299 b 365 278 485 365 440 285 b 243 421 290 272 242 328 b 197 551 244 493 222 536 b 239 546 214 550 229 547 b 251 585 276 540 250 575 b 261 617 253 596 279 614 b 126 635 233 621 167 631 b 126 761 125 668 124 718 b 213 894 129 813 129 894 b 446 793 294 894 411 831 b 429 699 481 756 454 692 b 300 692 404 704 331 757 b 360 475 269 628 285 553 b 515 469 433 397 483 422 b 522 636 547 515 521 586 b 581 653 524 685 551 679 b 681 381 610 626 654 550 b 639 194 699 260 675 213 z m 467 74 b 207 60 411 60 318 83 b 156 186 101 38 167 115 b 118 446 143 258 122 394 b 176 443 114 497 172 506 b 310 208 185 308 231 213 b 478 239 378 203 436 224 b 554 161 518 256 551 235 b 467 74 558 89 524 89 z "},"E":{"ha":721,"x_min":0,"x_max":0,"o":"m 299 771 b 463 756 329 740 429 767 b 626 701 497 744 586 675 b 656 850 669 729 703 796 b 564 932 608 906 604 893 b 385 911 507 986 435 950 b 118 871 254 967 164 903 b 67 572 14 797 38 647 b 203 474 96 497 204 490 b 110 436 201 453 154 481 b 53 217 65 392 56 286 b 86 31 50 147 36 83 b 293 -7 121 -7 233 -10 b 558 63 435 0 532 49 b 639 119 610 90 636 96 b 601 160 642 143 606 150 b 571 203 597 169 601 211 b 526 140 535 193 543 164 b 276 69 510 117 368 63 b 160 88 186 76 175 68 b 176 129 144 107 160 140 b 238 124 193 118 199 100 b 285 257 276 147 307 193 b 176 282 263 321 192 306 b 146 293 161 258 140 272 b 190 381 151 314 149 343 b 389 401 232 418 331 388 b 417 468 447 415 429 467 b 407 507 404 469 385 493 b 368 633 429 521 482 596 b 222 582 254 671 257 608 b 132 674 188 556 146 606 b 301 821 119 732 185 840 b 299 771 292 800 288 782 z m 507 885 b 579 814 551 861 594 843 b 481 808 564 785 528 782 b 390 828 432 836 404 808 b 507 885 376 849 443 918 z m 229 222 b 193 218 239 185 194 146 b 229 222 194 254 221 253 z "},"É":{"ha":721,"x_min":0,"x_max":0,"o":"m 208 1015 b 374 1069 250 1015 322 1038 b 486 1174 411 1093 472 1157 b 460 1203 506 1196 474 1193 b 407 1206 442 1215 442 1242 b 213 1096 365 1161 288 1079 b 211 1051 193 1100 211 1067 b 208 1015 211 1036 171 1015 z m 299 771 b 463 756 329 740 429 767 b 626 701 497 744 586 675 b 656 850 669 729 703 796 b 564 932 608 906 604 893 b 385 911 507 986 435 950 b 118 871 254 967 164 903 b 67 572 14 797 38 647 b 203 474 96 497 204 490 b 110 436 201 453 154 481 b 53 217 65 392 56 286 b 86 31 50 147 36 83 b 293 -7 121 -7 233 -10 b 558 63 435 0 532 49 b 639 119 610 90 636 96 b 601 160 642 143 606 150 b 571 203 597 169 601 211 b 526 140 535 193 543 164 b 276 69 510 117 368 63 b 160 88 186 76 175 68 b 176 129 144 107 160 140 b 238 124 193 118 199 100 b 285 257 276 147 307 193 b 176 282 263 321 192 306 b 146 293 161 258 140 272 b 190 381 151 314 149 343 b 389 401 232 418 331 388 b 417 468 447 415 429 467 b 407 507 404 469 385 493 b 368 633 429 521 482 596 b 222 582 254 671 257 608 b 132 674 188 556 146 606 b 301 821 119 732 185 840 b 299 771 292 800 288 782 z m 507 885 b 579 814 551 861 594 843 b 481 808 564 785 528 782 b 390 828 432 836 404 808 b 507 885 376 849 443 918 z m 229 222 b 193 218 239 185 194 146 b 229 222 194 254 221 253 z "},"Ê":{"ha":721,"x_min":0,"x_max":0,"o":"m 117 1035 b 258 1135 156 1046 218 1089 b 326 1233 288 1168 319 1213 b 371 1124 332 1213 346 1160 b 499 1007 404 1075 461 1025 b 521 1040 533 990 514 1026 b 528 1081 528 1054 547 1076 b 396 1263 453 1097 415 1204 b 339 1300 374 1325 353 1299 b 265 1271 325 1301 311 1329 b 97 1113 239 1238 174 1113 b 108 1069 78 1113 104 1085 b 117 1035 113 1054 81 1025 z m 299 771 b 463 756 329 740 429 767 b 626 701 497 744 586 675 b 656 850 669 729 703 796 b 564 932 608 906 604 893 b 385 911 507 986 435 950 b 118 871 254 967 164 903 b 67 572 14 797 38 647 b 203 474 96 497 204 490 b 110 436 201 453 154 481 b 53 217 65 392 56 286 b 86 31 50 147 36 83 b 293 -7 121 -7 233 -10 b 558 63 435 0 532 49 b 639 119 610 90 636 96 b 601 160 642 143 606 150 b 571 203 597 169 601 211 b 526 140 535 193 543 164 b 276 69 510 117 368 63 b 160 88 186 76 175 68 b 176 129 144 107 160 140 b 238 124 193 118 199 100 b 285 257 276 147 307 193 b 176 282 263 321 192 306 b 146 293 161 258 140 272 b 190 381 151 314 149 343 b 389 401 232 418 331 388 b 417 468 447 415 429 467 b 407 507 404 469 385 493 b 368 633 429 521 482 596 b 222 582 254 671 257 608 b 132 674 188 556 146 606 b 301 821 119 732 185 840 b 299 771 292 800 288 782 z m 507 885 b 579 814 551 861 594 843 b 481 808 564 785 528 782 b 390 828 432 836 404 808 b 507 885 376 849 443 918 z m 229 222 b 193 218 239 185 194 146 b 229 222 194 254 221 253 z "},"Ë":{"ha":721,"x_min":0,"x_max":0,"o":"m 410 1060 b 468 1110 443 1060 468 1088 b 410 1175 468 1133 443 1174 b 347 1121 379 1176 347 1144 b 410 1060 347 1099 379 1060 z m 139 1078 b 225 1074 154 1063 200 1051 b 236 1158 246 1096 251 1143 b 142 1156 221 1174 165 1178 b 139 1078 119 1132 122 1093 z m 299 771 b 463 756 329 740 429 767 b 626 701 497 744 586 675 b 656 850 669 729 703 796 b 564 932 608 906 604 893 b 385 911 507 986 435 950 b 118 871 254 967 164 903 b 67 572 14 797 38 647 b 203 474 96 497 204 490 b 110 436 201 453 154 481 b 53 217 65 392 56 286 b 86 31 50 147 36 83 b 293 -7 121 -7 233 -10 b 558 63 435 0 532 49 b 639 119 610 90 636 96 b 601 160 642 143 606 150 b 571 203 597 169 601 211 b 526 140 535 193 543 164 b 276 69 510 117 368 63 b 160 88 186 76 175 68 b 176 129 144 107 160 140 b 238 124 193 118 199 100 b 285 257 276 147 307 193 b 176 282 263 321 192 306 b 146 293 161 258 140 272 b 190 381 151 314 149 343 b 389 401 232 418 331 388 b 417 468 447 415 429 467 b 407 507 404 469 385 493 b 368 633 429 521 482 596 b 222 582 254 671 257 608 b 132 674 188 556 146 606 b 301 821 119 732 185 840 b 299 771 292 800 288 782 z m 507 885 b 579 814 551 861 594 843 b 481 808 564 785 528 782 b 390 828 432 836 404 808 b 507 885 376 849 443 918 z m 229 222 b 193 218 239 185 194 146 b 229 222 194 254 221 253 z "},"È":{"ha":721,"x_min":0,"x_max":0,"o":"m 229 1132 b 394 1078 281 1100 353 1078 b 392 1114 432 1078 392 1099 b 390 1158 392 1129 410 1163 b 196 1268 315 1142 238 1224 b 143 1265 161 1304 161 1278 b 117 1236 129 1256 97 1258 b 229 1132 131 1219 192 1156 z m 299 771 b 463 756 329 740 429 767 b 626 701 497 744 586 675 b 656 850 669 729 703 796 b 564 932 608 906 604 893 b 385 911 507 986 435 950 b 118 871 254 967 164 903 b 67 572 14 797 38 647 b 203 474 96 497 204 490 b 110 436 201 453 154 481 b 53 217 65 392 56 286 b 86 31 50 147 36 83 b 293 -7 121 -7 233 -10 b 558 63 435 0 532 49 b 639 119 610 90 636 96 b 601 160 642 143 606 150 b 571 203 597 169 601 211 b 526 140 535 193 543 164 b 276 69 510 117 368 63 b 160 88 186 76 175 68 b 176 129 144 107 160 140 b 238 124 193 118 199 100 b 285 257 276 147 307 193 b 176 282 263 321 192 306 b 146 293 161 258 140 272 b 190 381 151 314 149 343 b 389 401 232 418 331 388 b 417 468 447 415 429 467 b 407 507 404 469 385 493 b 368 633 429 521 482 596 b 222 582 254 671 257 608 b 132 674 188 556 146 606 b 301 821 119 732 185 840 b 299 771 292 800 288 782 z m 507 885 b 579 814 551 861 594 843 b 481 808 564 785 528 782 b 390 828 432 836 404 808 b 507 885 376 849 443 918 z m 229 222 b 193 218 239 185 194 146 b 229 222 194 254 221 253 z "},"F":{"ha":615,"x_min":0,"x_max":0,"o":"m 533 999 b 150 936 356 1004 228 968 b 3 819 74 904 57 890 b 24 731 -49 753 4 756 b 90 651 43 706 18 614 b 361 799 188 703 253 797 b 619 847 483 800 579 810 b 533 999 661 886 710 993 z m 515 888 b 257 851 429 874 331 888 b 122 763 189 818 153 783 b 108 839 96 744 40 794 b 358 931 176 883 256 908 b 521 951 417 943 475 949 b 515 888 593 956 601 901 z m 425 726 b 126 610 344 714 199 676 b 40 411 54 543 39 467 b 161 324 43 288 122 289 b 197 263 221 376 199 314 b 165 79 196 211 215 143 b 274 -8 115 15 204 -39 b 331 146 343 22 397 125 b 269 310 264 167 272 154 b 442 438 268 376 344 428 b 578 640 539 447 575 556 b 425 726 581 725 503 742 z m 439 514 b 365 499 414 511 389 506 l 364 499 b 332 510 319 483 318 506 b 414 550 349 515 382 525 b 404 635 432 564 436 636 b 246 567 375 633 282 571 b 235 472 178 558 188 456 b 217 426 282 489 260 453 b 136 376 188 408 160 390 b 126 517 92 351 90 454 b 268 614 149 553 225 596 b 425 665 313 631 371 663 b 439 514 519 678 517 521 z "},"G":{"ha":819,"x_min":0,"x_max":0,"o":"m 721 544 b 583 567 685 621 604 606 b 564 481 561 526 564 496 b 526 490 564 464 521 456 b 467 617 533 524 524 617 b 289 394 360 617 308 524 b 454 313 275 304 417 272 b 508 290 492 351 544 349 b 321 258 472 233 407 286 b 231 183 275 243 244 215 b 142 258 203 197 164 221 b 122 444 113 310 103 375 l 151 531 b 288 676 194 536 221 593 b 589 768 379 792 467 803 b 621 946 711 733 779 892 b 368 967 560 967 467 990 b 119 782 283 946 178 858 b 79 556 65 711 17 608 b 75 229 38 451 31 289 b 229 104 131 154 171 126 b 235 92 231 100 232 96 b 494 32 269 33 397 -11 b 749 301 592 75 738 211 b 721 544 760 390 757 467 z m 136 683 b 296 857 165 735 240 824 b 529 896 360 896 438 913 b 517 842 621 879 582 829 b 321 803 458 853 374 836 b 186 654 253 760 211 693 b 136 683 153 601 99 617 z m 632 219 b 458 76 594 167 508 88 b 299 131 363 56 299 99 b 378 207 299 163 329 210 b 578 250 497 199 546 210 b 625 426 611 292 631 365 b 681 429 621 488 671 506 b 632 219 693 338 669 271 z "},"H":{"ha":650,"x_min":0,"x_max":0,"o":"m 72 938 b 217 956 72 1061 199 1038 b 314 796 231 899 267 842 b 292 651 363 750 343 694 b 133 686 238 608 194 594 b 93 853 72 778 99 818 b 72 938 88 888 72 897 z m 38 167 b 222 592 46 439 94 571 b 493 581 350 613 449 546 b 510 815 538 615 544 710 b 483 961 475 921 490 925 b 544 963 476 997 525 953 b 590 956 564 972 590 1004 b 614 743 590 907 614 817 b 604 507 614 668 624 576 b 453 363 586 440 540 385 b 324 240 365 340 335 314 b 190 3 313 167 296 35 b 38 167 85 -29 33 32 z m 197 715 b 250 763 226 668 288 714 b 188 906 213 810 199 864 b 146 896 176 949 135 958 b 164 771 151 864 153 794 b 197 715 176 743 190 726 z m 125 153 b 214 135 122 58 197 71 b 307 382 231 197 250 351 b 482 439 367 414 435 419 b 426 508 531 458 500 519 b 229 513 353 497 279 533 b 133 321 178 492 138 381 b 125 153 129 261 126 208 z m 421 85 b 478 -14 410 40 428 3 b 617 11 524 -31 590 -32 b 549 249 642 47 549 168 b 432 286 549 372 432 374 b 421 85 432 167 435 139 z m 482 222 b 514 215 472 275 506 276 b 558 47 522 153 565 81 b 483 72 553 14 483 28 b 482 222 483 118 488 165 z "},"I":{"ha":274,"x_min":0,"x_max":0,"o":"m 72 882 b 186 957 21 982 129 1053 b 214 629 243 863 231 685 b 72 586 193 557 119 529 b 68 751 25 643 39 690 b 72 882 97 813 106 818 z m 114 683 b 150 669 97 642 128 624 b 161 890 188 746 176 842 b 124 890 142 954 106 947 b 114 683 140 836 147 765 z m 156 514 b 222 357 199 493 219 489 b 232 90 225 228 257 188 b 61 51 207 -6 83 -46 b 72 310 39 150 101 200 b 53 486 58 361 24 454 b 156 514 82 518 132 525 z m 171 378 b 113 368 168 443 104 432 b 129 281 121 306 122 342 b 126 97 133 246 140 185 b 163 113 122 71 147 54 b 171 281 178 172 176 215 b 171 378 165 347 172 339 z "},"Í":{"ha":274,"x_min":0,"x_max":0,"o":"m 204 1231 b 10 1121 163 1186 85 1104 b 8 1076 -10 1125 8 1092 b 6 1040 8 1061 -32 1040 b 171 1094 47 1040 119 1063 b 283 1199 208 1118 269 1182 b 257 1228 303 1221 271 1218 b 204 1231 239 1240 239 1267 z m 72 882 b 186 957 21 982 129 1053 b 214 629 243 863 231 685 b 72 586 193 557 119 529 b 68 751 25 643 39 690 b 72 882 97 813 106 818 z m 114 683 b 150 669 97 642 128 624 b 161 890 188 746 176 842 b 124 890 142 954 106 947 b 114 683 140 836 147 765 z m 156 514 b 222 357 199 493 219 489 b 232 90 225 228 257 188 b 61 51 207 -6 83 -46 b 72 310 39 150 101 200 b 53 486 58 361 24 454 b 156 514 82 518 132 525 z m 171 378 b 113 368 168 443 104 432 b 129 281 121 306 122 342 b 126 97 133 246 140 185 b 163 113 122 71 147 54 b 171 281 178 172 176 215 b 171 378 165 347 172 339 z "},"Î":{"ha":274,"x_min":0,"x_max":0,"o":"m 222 1206 b 354 1024 242 1147 279 1040 b 347 983 374 1019 354 997 b 325 950 340 969 360 933 b 197 1067 288 968 231 1018 b 153 1176 172 1103 158 1156 b 85 1078 146 1156 114 1111 b -57 978 44 1032 -18 989 b -65 1013 -93 968 -61 997 b -76 1056 -69 1028 -96 1056 b 92 1214 0 1056 65 1181 b 165 1243 138 1272 151 1244 b 222 1206 179 1242 200 1268 z m 72 882 b 186 957 21 982 129 1053 b 214 629 243 863 231 685 b 72 586 193 557 119 529 b 68 751 25 643 39 690 b 72 882 97 813 106 818 z m 114 683 b 150 669 97 642 128 624 b 161 890 188 746 176 842 b 124 890 142 954 106 947 b 114 683 140 836 147 765 z m 156 514 b 222 357 199 493 219 489 b 232 90 225 228 257 188 b 61 51 207 -6 83 -46 b 72 310 39 150 101 200 b 53 486 58 361 24 454 b 156 514 82 518 132 525 z m 171 378 b 113 368 168 443 104 432 b 129 281 121 306 122 342 b 126 97 133 246 140 185 b 163 113 122 71 147 54 b 171 281 178 172 176 215 b 171 378 165 347 172 339 z "},"Ï":{"ha":274,"x_min":0,"x_max":0,"o":"m 179 1107 b 242 1161 179 1131 211 1163 b 300 1096 275 1160 300 1119 b 242 1046 300 1074 275 1046 b 179 1107 211 1046 179 1085 z m 68 1144 b 57 1060 83 1129 78 1082 b -29 1064 32 1038 -14 1049 b -26 1142 -46 1079 -49 1118 b 68 1144 -3 1164 53 1160 z m 72 882 b 186 957 21 982 129 1053 b 214 629 243 863 231 685 b 72 586 193 557 119 529 b 68 751 25 643 39 690 b 72 882 97 813 106 818 z m 114 683 b 150 669 97 642 128 624 b 161 890 188 746 176 842 b 124 890 142 954 106 947 b 114 683 140 836 147 765 z m 156 514 b 222 357 199 493 219 489 b 232 90 225 228 257 188 b 61 51 207 -6 83 -46 b 72 310 39 150 101 200 b 53 486 58 361 24 454 b 156 514 82 518 132 525 z m 171 378 b 113 368 168 443 104 432 b 129 281 121 306 122 342 b 126 97 133 246 140 185 b 163 113 122 71 147 54 b 171 281 178 172 176 215 b 171 378 165 347 172 339 z "},"Ì":{"ha":274,"x_min":0,"x_max":0,"o":"m 86 1207 b 33 1204 51 1243 51 1217 b 7 1175 19 1194 -12 1197 b 119 1071 21 1158 82 1094 b 285 1017 171 1039 243 1017 b 282 1053 322 1017 282 1038 b 281 1097 282 1068 300 1101 b 86 1207 206 1081 128 1163 z m 72 882 b 186 957 21 982 129 1053 b 214 629 243 863 231 685 b 72 586 193 557 119 529 b 68 751 25 643 39 690 b 72 882 97 813 106 818 z m 114 683 b 150 669 97 642 128 624 b 161 890 188 746 176 842 b 124 890 142 954 106 947 b 114 683 140 836 147 765 z m 156 514 b 222 357 199 493 219 489 b 232 90 225 228 257 188 b 61 51 207 -6 83 -46 b 72 310 39 150 101 200 b 53 486 58 361 24 454 b 156 514 82 518 132 525 z m 171 378 b 113 368 168 443 104 432 b 129 281 121 306 122 342 b 126 97 133 246 140 185 b 163 113 122 71 147 54 b 171 281 178 172 176 215 b 171 378 165 347 172 339 z "},"J":{"ha":822,"x_min":0,"x_max":0,"o":"m 736 667 b 713 972 803 783 794 924 b 539 903 631 1021 588 942 b 424 888 515 885 490 828 b 222 919 379 926 296 926 b 147 853 83 907 139 882 b 218 828 156 822 132 792 b 429 781 304 864 397 824 b 550 790 467 729 525 758 b 694 817 624 883 699 906 b 593 565 690 728 614 606 b 504 599 572 525 529 532 b 404 619 479 665 438 664 b 358 422 378 583 351 539 b 479 265 365 306 400 253 b 522 379 558 278 540 333 b 581 457 504 425 531 469 b 683 272 635 443 663 339 b 576 115 703 210 669 140 b 540 140 568 125 556 135 b 357 165 479 164 404 140 b 243 314 310 190 368 272 b 125 194 118 356 69 289 b 378 -60 175 110 264 -10 b 585 4 492 -110 560 -40 b 717 139 639 101 672 86 b 717 379 757 186 771 269 b 736 667 663 489 669 550 z m 522 21 b 349 42 496 -33 410 6 b 179 221 288 78 189 192 b 264 231 156 292 243 283 b 421 93 315 100 343 108 b 522 21 482 81 558 93 z "},"K":{"ha":758,"x_min":0,"x_max":0,"o":"m 344 554 b 397 671 335 614 363 643 b 443 793 432 699 456 735 b 501 961 431 851 425 933 b 658 900 578 989 676 956 b 621 750 640 844 601 810 b 564 594 640 690 611 647 b 385 510 517 542 449 492 b 344 554 369 514 353 531 z m 49 46 b 99 10 47 -6 83 11 b 154 13 114 8 154 -33 b 135 247 154 58 139 189 b 160 233 131 306 163 281 b 254 131 157 186 190 99 b 354 301 318 163 364 264 b 204 365 328 399 225 413 b 154 386 183 318 147 331 b 200 531 161 442 172 515 b 288 475 228 546 272 490 b 435 324 353 411 382 418 b 489 164 468 264 494 183 b 478 60 483 144 435 113 b 690 58 521 7 647 8 b 661 206 733 108 722 186 b 524 276 600 225 539 199 b 403 475 508 354 454 436 b 276 576 351 514 331 556 b 199 686 225 596 207 592 b 139 896 190 781 139 831 b 96 951 139 961 121 961 b 43 901 71 942 33 953 b 107 708 53 850 103 844 b 88 460 111 572 121 599 b 57 221 54 321 42 304 b 49 46 72 138 51 97 z m 421 600 b 450 575 403 569 424 551 b 536 681 476 599 510 640 b 554 796 563 721 560 753 b 583 892 549 839 571 868 b 503 857 596 915 526 903 b 494 761 479 811 496 794 b 458 657 493 728 481 678 b 421 600 436 636 426 615 z m 561 122 b 622 131 571 140 604 144 b 626 88 640 117 638 104 b 572 79 615 71 592 76 b 561 122 553 82 553 106 z "},"L":{"ha":807,"x_min":0,"x_max":0,"o":"m 760 56 b 724 106 761 72 776 119 b 488 150 607 75 604 135 b 258 85 379 164 328 135 b 196 135 176 26 133 49 b 242 328 215 161 239 276 b 242 388 243 351 243 371 b 282 261 268 367 303 307 b 340 151 254 199 303 165 b 446 197 368 142 415 156 b 464 465 501 274 513 371 b 332 436 440 511 331 494 b 303 425 333 392 321 406 l 247 463 b 276 569 265 492 276 529 b 339 796 276 693 311 747 b 360 969 367 844 407 928 b 196 897 315 1010 286 992 b 94 732 140 839 110 781 b 49 518 74 665 25 593 b 147 406 68 458 89 404 b 96 136 151 326 169 261 b 232 -49 21 8 147 -106 b 457 64 353 33 353 60 b 728 -4 561 68 601 -12 b 760 56 854 4 758 39 z m 133 597 b 192 778 138 633 157 718 b 265 857 222 831 246 867 b 225 721 303 839 244 779 b 192 554 193 626 200 597 b 133 597 178 486 126 536 z m 344 294 b 376 390 404 319 365 368 b 418 414 389 415 400 425 b 422 290 433 404 436 333 b 343 226 411 257 374 210 b 344 294 314 242 321 285 z "},"M":{"ha":1079,"x_min":0,"x_max":0,"o":"m 44 183 b 178 -21 29 50 99 -42 b 386 85 257 0 364 -10 b 396 465 408 179 372 371 b 308 674 419 560 386 651 b 332 800 247 692 318 746 b 464 774 356 894 449 854 b 428 372 479 692 399 513 b 589 90 447 281 540 133 b 719 111 636 49 700 50 b 657 353 731 146 678 274 b 721 461 626 468 713 508 b 740 364 728 422 733 396 b 792 58 757 275 774 186 b 957 106 804 -33 929 28 b 1038 518 985 183 1031 372 b 885 938 1044 663 960 849 b 696 931 810 1026 726 994 b 681 636 665 865 640 767 b 572 433 696 583 572 493 b 643 196 572 336 625 238 b 604 182 660 157 639 124 b 510 386 579 225 528 271 b 535 865 488 525 569 715 b 253 900 500 1014 288 985 b 149 549 224 829 188 660 b 44 183 76 344 58 301 z m 753 849 b 846 867 774 917 818 906 b 933 706 881 818 907 757 b 932 628 946 674 972 563 b 788 636 819 811 756 674 b 839 485 860 551 782 501 b 942 525 853 481 906 482 b 969 454 971 560 978 499 b 903 175 954 393 918 244 b 839 175 885 92 839 72 b 757 604 839 378 779 482 b 753 849 740 696 732 782 z m 125 203 b 207 479 135 297 199 411 b 332 518 219 581 338 633 b 294 169 326 403 278 254 b 225 72 311 85 250 82 b 125 203 165 50 115 114 z "},"N":{"ha":928,"x_min":0,"x_max":0,"o":"m 799 971 b 719 825 697 953 697 886 b 685 792 742 764 704 719 b 615 874 647 931 635 882 b 561 844 596 865 543 882 b 644 524 594 775 617 693 b 644 192 671 367 672 249 b 547 250 614 129 535 171 b 522 518 560 332 565 426 b 507 786 479 611 467 671 b 403 954 547 900 453 950 b 196 753 353 958 210 940 b 219 326 183 592 356 429 b 121 199 167 286 169 218 b 65 29 18 157 35 74 b 188 -11 86 -1 138 -32 b 403 117 283 29 360 72 b 415 310 469 186 460 263 b 307 735 369 360 315 642 b 418 817 299 826 435 897 b 407 503 401 736 343 642 b 464 206 471 364 465 264 b 607 35 461 110 529 33 b 744 271 685 36 739 150 b 719 628 750 396 736 567 b 793 540 701 694 767 729 b 894 635 801 481 888 515 b 799 971 910 899 900 989 z m 353 151 b 189 74 340 128 224 88 b 117 90 131 50 121 71 b 169 163 113 110 117 136 b 269 264 233 194 218 226 b 367 240 321 301 351 271 b 353 151 381 211 367 176 z "},"Ñ":{"ha":928,"x_min":0,"x_max":0,"o":"m 363 1025 b 393 1017 369 1018 381 996 b 456 1150 403 1033 450 1101 b 494 1122 457 1163 481 1175 b 522 1021 501 1094 499 1044 b 661 1007 564 979 619 963 b 735 1136 694 1042 735 1088 b 718 1224 735 1188 733 1199 b 683 1224 704 1247 694 1224 b 643 1219 668 1224 640 1246 b 660 1132 644 1207 672 1168 b 565 1094 638 1067 579 1028 b 540 1185 558 1128 551 1163 b 440 1233 517 1232 479 1240 b 385 1156 411 1228 385 1196 b 342 1058 385 1110 351 1068 b 363 1025 310 1026 354 1033 z m 799 971 b 719 825 697 953 697 886 b 685 792 742 764 704 719 b 615 874 647 931 635 882 b 561 844 596 865 543 882 b 644 524 594 775 617 693 b 644 192 671 367 672 249 b 547 250 614 129 535 171 b 522 518 560 332 565 426 b 507 786 479 611 467 671 b 403 954 547 900 453 950 b 196 753 353 958 210 940 b 219 326 183 592 356 429 b 121 199 167 286 169 218 b 65 29 18 157 35 74 b 188 -11 86 -1 138 -32 b 403 117 283 29 360 72 b 415 310 469 186 460 263 b 307 735 369 360 315 642 b 418 817 299 826 435 897 b 407 503 401 736 343 642 b 464 206 471 364 465 264 b 607 35 461 110 529 33 b 744 271 685 36 739 150 b 719 628 750 396 736 567 b 793 540 701 694 767 729 b 894 635 801 481 888 515 b 799 971 910 899 900 989 z m 353 151 b 189 74 340 128 224 88 b 117 90 131 50 121 71 b 169 163 113 110 117 136 b 269 264 233 194 218 226 b 367 240 321 301 351 271 b 353 151 381 211 367 176 z "},"O":{"ha":968,"x_min":0,"x_max":0,"o":"m 886 418 b 832 722 882 543 868 640 b 875 783 850 726 871 742 b 867 850 878 806 881 835 b 817 875 856 864 840 871 b 743 851 796 878 765 868 b 338 900 647 944 482 946 b 74 531 188 853 101 760 b 158 211 51 343 108 258 b 231 88 160 161 179 113 b 544 26 333 38 425 -22 b 632 93 586 43 614 67 b 778 158 685 100 743 122 b 886 418 831 214 888 329 z m 738 235 b 653 176 714 199 683 183 b 619 253 650 204 639 231 b 463 364 557 324 511 322 b 196 350 414 406 264 447 b 185 332 192 344 189 339 b 156 471 164 368 157 428 b 261 757 150 603 201 708 b 521 839 344 824 447 847 b 660 697 594 832 679 792 b 589 722 639 601 610 665 b 444 715 567 779 474 782 b 531 476 415 649 483 540 b 717 367 579 414 657 317 b 714 563 775 418 747 489 b 781 608 681 638 761 624 b 817 486 800 593 803 556 b 738 235 832 417 801 331 z m 518 108 b 344 135 499 53 393 101 b 263 272 307 158 232 219 b 429 301 297 329 368 361 b 518 108 492 242 542 179 z "},"Ó":{"ha":968,"x_min":0,"x_max":0,"o":"m 300 993 b 465 1047 342 993 414 1015 b 578 1151 503 1071 564 1135 b 551 1181 597 1174 565 1171 b 499 1183 533 1193 533 1219 b 304 1074 457 1139 379 1057 b 303 1029 285 1078 303 1044 b 300 993 303 1014 263 993 z m 886 418 b 832 722 882 543 868 640 b 875 783 850 726 871 742 b 867 850 878 806 881 835 b 817 875 856 864 840 871 b 743 851 796 878 765 868 b 338 900 647 944 482 946 b 74 531 188 853 101 760 b 158 211 51 343 108 258 b 231 88 160 161 179 113 b 544 26 333 38 425 -22 b 632 93 586 43 614 67 b 778 158 685 100 743 122 b 886 418 831 214 888 329 z m 738 235 b 653 176 714 199 683 183 b 619 253 650 204 639 231 b 463 364 557 324 511 322 b 196 350 414 406 264 447 b 185 332 192 344 189 339 b 156 471 164 368 157 428 b 261 757 150 603 201 708 b 521 839 344 824 447 847 b 660 697 594 832 679 792 b 589 722 639 601 610 665 b 444 715 567 779 474 782 b 531 476 415 649 483 540 b 717 367 579 414 657 317 b 714 563 775 418 747 489 b 781 608 681 638 761 624 b 817 486 800 593 803 556 b 738 235 832 417 801 331 z m 518 108 b 344 135 499 53 393 101 b 263 272 307 158 232 219 b 429 301 297 329 368 361 b 518 108 492 242 542 179 z "},"Ô":{"ha":968,"x_min":0,"x_max":0,"o":"m 301 990 b 443 1090 340 1001 403 1044 b 511 1189 472 1124 504 1168 b 556 1079 517 1168 531 1115 b 683 963 589 1031 646 981 b 706 996 718 946 699 982 b 713 1036 713 1010 732 1032 b 581 1218 638 1053 600 1160 b 524 1256 558 1281 538 1254 b 450 1226 510 1257 496 1285 b 282 1068 424 1193 358 1068 b 293 1025 263 1068 289 1040 b 301 990 297 1010 265 981 z m 886 418 b 832 722 882 543 868 640 b 875 783 850 726 871 742 b 867 850 878 806 881 835 b 817 875 856 864 840 871 b 743 851 796 878 765 868 b 338 900 647 944 482 946 b 74 531 188 853 101 760 b 158 211 51 343 108 258 b 231 88 160 161 179 113 b 544 26 333 38 425 -22 b 632 93 586 43 614 67 b 778 158 685 100 743 122 b 886 418 831 214 888 329 z m 738 235 b 653 176 714 199 683 183 b 619 253 650 204 639 231 b 463 364 557 324 511 322 b 196 350 414 406 264 447 b 185 332 192 344 189 339 b 156 471 164 368 157 428 b 261 757 150 603 201 708 b 521 839 344 824 447 847 b 660 697 594 832 679 792 b 589 722 639 601 610 665 b 444 715 567 779 474 782 b 531 476 415 649 483 540 b 717 367 579 414 657 317 b 714 563 775 418 747 489 b 781 608 681 638 761 624 b 817 486 800 593 803 556 b 738 235 832 417 801 331 z m 518 108 b 344 135 499 53 393 101 b 263 272 307 158 232 219 b 429 301 297 329 368 361 b 518 108 492 242 542 179 z "},"Ö":{"ha":968,"x_min":0,"x_max":0,"o":"m 607 1057 b 665 1107 640 1057 665 1085 b 607 1172 665 1131 640 1171 b 544 1118 576 1174 544 1142 b 607 1057 544 1096 576 1057 z m 336 1075 b 422 1071 351 1060 397 1049 b 433 1156 443 1093 449 1140 b 339 1153 418 1171 363 1175 b 336 1075 317 1129 319 1090 z m 886 418 b 832 722 882 543 868 640 b 875 783 850 726 871 742 b 867 850 878 806 881 835 b 817 875 856 864 840 871 b 743 851 796 878 765 868 b 338 900 647 944 482 946 b 74 531 188 853 101 760 b 158 211 51 343 108 258 b 231 88 160 161 179 113 b 544 26 333 38 425 -22 b 632 93 586 43 614 67 b 778 158 685 100 743 122 b 886 418 831 214 888 329 z m 738 235 b 653 176 714 199 683 183 b 619 253 650 204 639 231 b 463 364 557 324 511 322 b 196 350 414 406 264 447 b 185 332 192 344 189 339 b 156 471 164 368 157 428 b 261 757 150 603 201 708 b 521 839 344 824 447 847 b 660 697 594 832 679 792 b 589 722 639 601 610 665 b 444 715 567 779 474 782 b 531 476 415 649 483 540 b 717 367 579 414 657 317 b 714 563 775 418 747 489 b 781 608 681 638 761 624 b 817 486 800 593 803 556 b 738 235 832 417 801 331 z m 518 108 b 344 135 499 53 393 101 b 263 272 307 158 232 219 b 429 301 297 329 368 361 b 518 108 492 242 542 179 z "},"Ò":{"ha":968,"x_min":0,"x_max":0,"o":"m 458 1050 b 624 996 510 1018 582 996 b 621 1032 661 996 621 1017 b 619 1076 621 1047 639 1081 b 425 1186 544 1060 467 1142 b 372 1183 390 1222 390 1196 b 346 1154 358 1174 326 1176 b 458 1050 360 1138 421 1074 z m 886 418 b 832 722 882 543 868 640 b 875 783 850 726 871 742 b 867 850 878 806 881 835 b 817 875 856 864 840 871 b 743 851 796 878 765 868 b 338 900 647 944 482 946 b 74 531 188 853 101 760 b 158 211 51 343 108 258 b 231 88 160 161 179 113 b 544 26 333 38 425 -22 b 632 93 586 43 614 67 b 778 158 685 100 743 122 b 886 418 831 214 888 329 z m 738 235 b 653 176 714 199 683 183 b 619 253 650 204 639 231 b 463 364 557 324 511 322 b 196 350 414 406 264 447 b 185 332 192 344 189 339 b 156 471 164 368 157 428 b 261 757 150 603 201 708 b 521 839 344 824 447 847 b 660 697 594 832 679 792 b 589 722 639 601 610 665 b 444 715 567 779 474 782 b 531 476 415 649 483 540 b 717 367 579 414 657 317 b 714 563 775 418 747 489 b 781 608 681 638 761 624 b 817 486 800 593 803 556 b 738 235 832 417 801 331 z m 518 108 b 344 135 499 53 393 101 b 263 272 307 158 232 219 b 429 301 297 329 368 361 b 518 108 492 242 542 179 z "},"Ø":{"ha":968,"x_min":0,"x_max":0,"o":"m 885 403 b 828 706 882 499 854 624 b 839 797 846 722 844 756 b 717 958 829 869 768 935 b 543 953 675 978 617 967 b 471 903 506 946 475 931 b 338 883 421 904 356 889 b 75 515 189 833 103 744 b 160 197 51 328 110 243 b 231 74 161 147 181 99 b 544 13 335 24 425 -36 b 621 78 585 29 608 51 b 778 144 676 82 740 106 b 885 403 831 200 888 314 z m 629 918 b 756 843 688 928 731 890 b 767 779 774 810 785 786 b 654 864 729 765 721 836 b 560 872 600 886 582 844 b 629 918 546 889 576 910 z m 263 742 b 490 831 308 779 411 832 b 547 806 501 815 518 808 b 478 535 597 801 589 721 b 343 393 443 476 443 383 b 197 335 289 399 232 385 b 186 315 193 329 189 322 b 157 456 165 351 158 411 b 263 742 154 588 201 692 z m 738 219 b 621 160 706 171 663 161 b 576 235 611 186 596 211 l 574 238 b 551 465 514 310 542 415 b 631 638 561 515 603 569 b 676 779 653 693 647 804 b 756 696 700 754 721 707 b 817 471 782 626 817 513 b 738 219 817 392 800 315 z m 518 94 b 344 121 499 39 393 88 b 264 258 308 146 232 204 b 429 286 297 314 368 346 b 518 94 490 226 542 164 z "},"Õ":{"ha":968,"x_min":0,"x_max":0,"o":"m 339 1054 b 369 1046 346 1047 357 1025 b 432 1179 379 1063 426 1131 b 471 1151 433 1192 457 1204 b 499 1050 478 1124 475 1074 b 638 1036 540 1008 596 992 b 711 1165 671 1071 711 1117 b 694 1253 711 1217 710 1228 b 660 1253 681 1276 671 1253 b 619 1249 644 1253 617 1275 b 636 1161 621 1236 649 1197 b 542 1124 614 1096 556 1057 b 517 1214 535 1157 528 1192 b 417 1263 493 1261 456 1269 b 361 1185 388 1257 361 1225 b 318 1088 361 1139 328 1097 b 339 1054 286 1056 331 1063 z m 886 418 b 832 722 882 543 868 640 b 875 783 850 726 871 742 b 867 850 878 806 881 835 b 817 875 856 864 840 871 b 743 851 796 878 765 868 b 338 900 647 944 482 946 b 74 531 188 853 101 760 b 158 211 51 343 108 258 b 231 88 160 161 179 113 b 544 26 333 38 425 -22 b 632 93 586 43 614 67 b 778 158 685 100 743 122 b 886 418 831 214 888 329 z m 738 235 b 653 176 714 199 683 183 b 619 253 650 204 639 231 b 463 364 557 324 511 322 b 196 350 414 406 264 447 b 185 332 192 344 189 339 b 156 471 164 368 157 428 b 261 757 150 603 201 708 b 521 839 344 824 447 847 b 660 697 594 832 679 792 b 589 722 639 601 610 665 b 444 715 567 779 474 782 b 531 476 415 649 483 540 b 717 367 579 414 657 317 b 714 563 775 418 747 489 b 781 608 681 638 761 624 b 817 486 800 593 803 556 b 738 235 832 417 801 331 z m 518 108 b 344 135 499 53 393 101 b 263 272 307 158 232 219 b 429 301 297 329 368 361 b 518 108 492 242 542 179 z "},"Œ":{"ha":1313,"x_min":0,"x_max":0,"o":"m 1233 774 b 1146 853 1188 826 1185 815 b 1033 868 1113 885 1071 883 b 601 885 900 925 658 872 b 354 863 524 901 436 889 b 103 511 211 817 129 729 b 182 208 81 335 135 253 b 251 89 183 160 203 113 b 551 31 350 40 438 -15 b 633 93 590 46 617 68 b 1064 63 718 89 785 11 b 1150 101 1117 72 1143 79 b 1122 144 1157 122 1125 135 b 1103 190 1119 156 1132 193 b 1049 140 1067 188 1069 161 b 774 157 1029 121 825 94 b 876 404 824 210 879 319 l 876 406 b 1110 438 875 472 1015 422 b 1196 475 1171 447 1190 453 b 1168 519 1201 496 1171 510 b 1149 565 1165 529 1178 568 b 1094 515 1113 563 1122 524 b 854 554 1018 493 867 508 b 775 735 836 622 807 683 b 772 738 774 736 774 738 b 950 813 711 839 858 833 b 942 806 947 811 944 808 b 893 699 915 782 871 721 b 1050 685 922 669 1018 694 b 1206 633 1082 675 1167 607 b 1233 774 1246 660 1278 722 z m 1161 740 b 1067 735 1147 713 1111 710 b 981 753 1021 761 994 735 b 1092 807 965 772 1031 839 b 1161 740 1135 785 1175 768 z m 810 468 b 735 229 822 403 794 322 b 654 174 713 194 683 179 b 622 246 651 200 640 224 b 472 353 564 314 519 313 b 218 339 426 392 285 432 b 208 322 214 333 211 328 b 181 454 189 357 182 413 b 281 726 175 579 224 681 b 528 804 360 790 458 813 b 661 669 599 796 679 760 b 593 693 643 579 613 639 b 456 688 574 747 483 750 b 538 460 428 624 493 521 b 715 356 582 399 658 307 b 713 542 771 404 744 471 b 775 585 681 613 757 600 b 810 468 793 569 797 535 z m 525 108 b 360 135 507 56 407 103 b 282 265 325 158 253 215 b 440 293 314 321 383 350 b 525 108 499 235 549 176 z "},"P":{"ha":753,"x_min":0,"x_max":0,"o":"m 149 868 b 29 842 90 921 40 886 b 42 706 18 797 64 756 b 88 638 18 654 68 646 b 115 472 93 550 132 543 b 201 275 103 419 149 375 b 139 8 225 232 135 100 b 197 -17 142 -49 183 -17 b 242 -8 211 -17 242 -42 b 282 190 242 25 271 142 b 306 324 293 239 325 271 b 222 453 286 375 189 424 b 386 439 246 474 267 375 b 553 350 439 356 488 347 b 711 453 608 353 701 404 b 683 589 721 499 697 547 b 725 792 664 646 715 694 b 603 975 733 869 663 953 b 307 988 543 997 372 1013 b 149 868 217 953 201 907 z m 360 901 b 381 846 465 921 467 853 b 361 721 325 842 228 744 b 478 661 401 714 426 657 b 489 783 554 667 525 750 b 607 851 443 825 529 921 b 646 739 642 828 651 792 b 468 625 638 654 593 631 b 385 564 439 624 371 621 b 319 494 390 540 376 483 b 226 675 263 506 268 521 b 251 835 204 757 206 786 b 360 901 289 875 321 894 z m 474 497 b 496 564 493 532 463 558 b 610 543 531 569 578 588 b 600 432 643 497 626 454 b 490 444 572 408 517 426 b 474 497 465 463 460 472 z "},"Þ":{"ha":763,"x_min":0,"x_max":0,"o":"m 158 660 b 174 931 175 744 132 742 b 121 954 182 968 139 949 b 65 967 103 960 74 994 b 74 694 6 769 76 756 b 51 497 72 650 74 547 b 97 429 28 446 78 438 b 136 213 103 342 90 271 b 165 17 165 176 164 99 b 224 -8 167 -42 210 -8 b 268 0 238 -8 268 -33 b 219 231 268 35 261 169 b 219 282 181 286 204 296 b 396 231 265 240 276 167 b 563 142 474 119 510 136 b 721 244 614 147 711 196 b 693 381 731 290 707 339 b 735 583 674 438 725 486 b 613 767 743 661 672 744 b 317 779 553 789 382 804 b 158 660 226 744 211 699 z m 369 693 b 390 638 475 713 476 644 b 371 513 335 633 238 536 b 488 453 411 506 436 449 b 499 575 564 458 535 542 b 617 643 453 617 539 713 b 656 531 651 619 661 583 b 478 417 647 446 603 422 b 394 356 449 415 381 413 b 329 296 400 332 386 285 b 194 467 272 307 233 385 b 261 626 157 546 215 578 b 369 693 299 667 331 686 z m 478 286 b 500 353 497 321 467 347 b 614 332 535 358 582 376 b 604 221 647 286 631 243 b 494 233 576 197 521 215 b 478 286 469 251 464 261 z "},"Q":{"ha":972,"x_min":0,"x_max":0,"o":"m 910 89 b 772 169 882 174 803 124 b 872 421 822 226 875 336 b 819 725 869 547 856 644 b 863 788 836 731 857 747 b 854 854 865 808 868 838 b 803 878 842 867 826 874 b 731 856 782 882 751 872 b 325 903 633 947 469 949 b 61 535 174 857 89 763 b 146 215 38 346 96 261 b 217 92 147 165 167 117 b 532 29 321 40 411 -18 b 635 126 589 53 622 88 b 792 -32 667 43 706 -29 b 910 89 883 -36 938 3 z m 660 275 b 624 231 639 264 628 250 b 606 256 618 239 613 247 b 450 368 544 328 499 326 b 183 353 400 410 250 451 b 172 335 179 347 176 342 b 143 474 151 369 144 429 b 249 761 138 607 188 711 b 507 843 332 828 435 850 b 646 700 581 835 667 794 b 576 725 626 606 597 668 b 432 719 554 782 461 786 b 518 481 403 651 469 543 b 703 371 565 417 644 319 b 701 567 763 421 733 492 b 768 611 668 640 749 626 b 804 489 786 596 789 558 b 729 243 819 421 793 335 b 660 275 708 269 685 288 z m 506 111 b 331 138 486 56 381 106 b 250 276 294 163 218 222 b 417 304 285 332 354 364 b 506 111 479 246 529 182 z m 828 28 b 724 93 801 -4 743 49 b 713 165 708 125 689 157 b 765 97 735 175 744 135 b 828 28 785 61 854 61 z "},"R":{"ha":646,"x_min":0,"x_max":0,"o":"m 51 53 b 108 22 54 -25 92 22 b 156 54 125 22 157 -24 b 140 268 154 90 110 163 b 140 436 158 331 142 411 b 219 497 136 554 219 533 b 296 428 219 451 274 449 b 392 251 342 386 379 324 b 343 257 394 235 360 240 b 251 178 326 274 244 289 b 365 18 258 67 324 36 b 442 103 407 0 439 39 b 483 100 444 167 474 133 b 524 -1 493 67 515 18 b 564 8 532 -21 551 6 b 599 29 576 11 606 -3 b 483 304 585 90 517 254 b 308 506 450 354 351 490 b 365 549 265 521 300 608 b 574 599 421 497 536 521 b 490 925 611 676 643 843 b 215 917 379 985 289 908 b 44 896 142 925 57 988 b 67 611 29 788 74 718 b 67 292 57 463 94 383 b 51 53 38 196 50 103 z m 128 825 b 232 846 132 876 168 854 b 446 865 288 839 378 900 b 429 786 476 850 492 769 b 257 758 367 803 288 858 b 385 674 240 703 342 675 b 468 726 428 672 453 699 b 519 694 483 754 519 735 b 444 589 519 654 513 596 b 329 646 376 582 371 646 b 201 583 288 646 239 582 b 126 697 164 585 138 629 b 128 825 119 740 125 783 z m 321 165 b 356 182 296 214 340 207 b 379 108 371 157 379 142 b 342 104 379 75 339 71 b 321 165 344 138 335 138 z "},"S":{"ha":797,"x_min":0,"x_max":0,"o":"m 674 819 b 340 954 565 907 500 985 b 121 594 179 924 72 803 b 415 440 169 386 363 426 b 629 169 618 493 704 308 b 501 69 601 118 533 76 b 490 119 451 60 469 103 b 588 263 553 172 596 183 b 367 368 578 340 417 400 b 278 146 292 319 229 208 b 394 83 322 89 349 110 b 340 33 436 60 396 21 b 151 207 233 57 179 131 b 89 251 124 283 122 264 b 60 157 56 239 19 261 b 306 -49 100 53 215 -21 b 615 32 399 -78 525 -46 b 747 351 701 107 790 204 b 503 618 694 529 546 504 b 535 779 460 732 471 833 b 638 772 624 704 624 756 b 674 819 651 789 704 794 z m 250 826 b 418 815 346 901 472 907 b 438 574 363 721 403 651 b 253 535 469 501 346 471 b 250 826 185 582 171 764 z m 344 257 b 510 254 415 357 500 308 b 436 165 517 217 467 183 b 344 257 361 121 307 204 z "},"T":{"ha":808,"x_min":0,"x_max":0,"o":"m 763 910 b 640 953 732 981 678 957 b 522 964 604 949 590 972 b 388 892 449 953 406 935 b 361 919 381 901 372 911 b 215 932 336 938 276 942 b 179 965 206 943 193 956 b 57 929 163 978 118 969 b 106 796 -4 889 40 817 b 239 851 167 776 228 815 b 265 853 246 853 254 853 b 342 782 321 854 322 868 b 317 449 351 739 331 549 b 368 197 303 349 338 274 b 308 83 386 151 347 128 b 417 -4 254 22 347 -35 b 457 117 486 26 514 103 b 406 310 411 128 478 185 b 411 511 383 349 397 407 b 436 731 424 611 428 667 b 475 733 449 726 463 728 b 586 793 519 751 540 786 b 743 765 632 800 701 756 b 763 910 783 775 793 839 z m 646 851 b 507 833 614 854 572 860 b 485 874 442 807 443 856 b 657 896 540 897 611 903 b 646 851 701 889 678 849 z "},"U":{"ha":671,"x_min":0,"x_max":0,"o":"m 574 782 b 565 983 657 864 676 935 b 404 897 490 1019 415 950 b 392 672 385 801 371 714 b 393 669 392 671 392 671 b 474 294 419 607 493 426 b 301 107 458 189 364 79 b 250 238 229 139 210 281 b 372 261 292 194 360 178 b 335 469 386 346 361 403 b 240 428 308 539 257 531 b 192 374 225 328 181 286 b 194 553 200 438 197 488 b 157 679 192 603 172 639 b 226 811 213 704 221 742 b 171 921 233 896 208 897 b 51 869 133 944 69 931 b 40 692 33 810 15 728 b 92 658 60 665 71 656 b 117 546 101 629 113 594 b 133 238 129 418 106 356 b 301 19 154 157 201 24 b 569 289 435 14 543 161 b 501 692 599 419 475 649 b 574 782 518 717 539 747 z m 461 829 b 514 831 476 921 544 878 b 461 829 486 785 443 714 z m 146 793 b 117 742 147 742 132 744 b 101 788 101 739 101 771 b 146 793 101 826 147 846 z "},"Ú":{"ha":671,"x_min":0,"x_max":0,"o":"m 260 1014 b 425 1068 301 1014 374 1036 b 538 1172 463 1092 524 1156 b 511 1201 557 1194 525 1192 b 458 1204 493 1214 493 1240 b 264 1094 417 1160 339 1078 b 263 1050 244 1099 263 1065 b 260 1014 263 1035 222 1014 z m 574 782 b 565 983 657 864 676 935 b 404 897 490 1019 415 950 b 392 672 385 801 371 714 b 393 669 392 671 392 671 b 474 294 419 607 493 426 b 301 107 458 189 364 79 b 250 238 229 139 210 281 b 372 261 292 194 360 178 b 335 469 386 346 361 403 b 240 428 308 539 257 531 b 192 374 225 328 181 286 b 194 553 200 438 197 488 b 157 679 192 603 172 639 b 226 811 213 704 221 742 b 171 921 233 896 208 897 b 51 869 133 944 69 931 b 40 692 33 810 15 728 b 92 658 60 665 71 656 b 117 546 101 629 113 594 b 133 238 129 418 106 356 b 301 19 154 157 201 24 b 569 289 435 14 543 161 b 501 692 599 419 475 649 b 574 782 518 717 539 747 z m 461 829 b 514 831 476 921 544 878 b 461 829 486 785 443 714 z m 146 793 b 117 742 147 742 132 744 b 101 788 101 739 101 771 b 146 793 101 826 147 846 z "},"Û":{"ha":671,"x_min":0,"x_max":0,"o":"m 158 1068 b 300 1168 197 1079 260 1122 b 368 1267 329 1201 361 1246 b 413 1157 374 1246 388 1193 b 540 1040 446 1108 503 1058 b 563 1074 575 1024 556 1060 b 569 1114 569 1088 589 1110 b 438 1296 494 1131 457 1238 b 381 1333 415 1358 394 1332 b 307 1304 367 1335 353 1363 b 139 1146 281 1271 215 1146 b 150 1103 119 1146 146 1118 b 158 1068 154 1088 122 1058 z m 574 782 b 565 983 657 864 676 935 b 404 897 490 1019 415 950 b 392 672 385 801 371 714 b 393 669 392 671 392 671 b 474 294 419 607 493 426 b 301 107 458 189 364 79 b 250 238 229 139 210 281 b 372 261 292 194 360 178 b 335 469 386 346 361 403 b 240 428 308 539 257 531 b 192 374 225 328 181 286 b 194 553 200 438 197 488 b 157 679 192 603 172 639 b 226 811 213 704 221 742 b 171 921 233 896 208 897 b 51 869 133 944 69 931 b 40 692 33 810 15 728 b 92 658 60 665 71 656 b 117 546 101 629 113 594 b 133 238 129 418 106 356 b 301 19 154 157 201 24 b 569 289 435 14 543 161 b 501 692 599 419 475 649 b 574 782 518 717 539 747 z m 461 829 b 514 831 476 921 544 878 b 461 829 486 785 443 714 z m 146 793 b 117 742 147 742 132 744 b 101 788 101 739 101 771 b 146 793 101 826 147 846 z "},"Ü":{"ha":671,"x_min":0,"x_max":0,"o":"m 449 1049 b 507 1099 482 1049 507 1076 b 449 1164 507 1122 482 1163 b 386 1110 418 1165 386 1133 b 449 1049 386 1088 418 1049 z m 178 1067 b 264 1063 193 1051 239 1040 b 275 1147 285 1085 290 1132 b 181 1144 260 1163 204 1167 b 178 1067 158 1121 161 1082 z m 574 782 b 565 983 657 864 676 935 b 404 897 490 1019 415 950 b 392 672 385 801 371 714 b 393 669 392 671 392 671 b 474 294 419 607 493 426 b 301 107 458 189 364 79 b 250 238 229 139 210 281 b 372 261 292 194 360 178 b 335 469 386 346 361 403 b 240 428 308 539 257 531 b 192 374 225 328 181 286 b 194 553 200 438 197 488 b 157 679 192 603 172 639 b 226 811 213 704 221 742 b 171 921 233 896 208 897 b 51 869 133 944 69 931 b 40 692 33 810 15 728 b 92 658 60 665 71 656 b 117 546 101 629 113 594 b 133 238 129 418 106 356 b 301 19 154 157 201 24 b 569 289 435 14 543 161 b 501 692 599 419 475 649 b 574 782 518 717 539 747 z m 461 829 b 514 831 476 921 544 878 b 461 829 486 785 443 714 z m 146 793 b 117 742 147 742 132 744 b 101 788 101 739 101 771 b 146 793 101 826 147 846 z "},"Ù":{"ha":671,"x_min":0,"x_max":0,"o":"m 279 1094 b 444 1040 331 1063 403 1040 b 442 1076 482 1040 442 1061 b 440 1121 442 1092 460 1125 b 246 1231 365 1104 288 1186 b 193 1228 211 1267 211 1240 b 167 1199 179 1218 147 1221 b 279 1094 181 1182 242 1118 z m 574 782 b 565 983 657 864 676 935 b 404 897 490 1019 415 950 b 392 672 385 801 371 714 b 393 669 392 671 392 671 b 474 294 419 607 493 426 b 301 107 458 189 364 79 b 250 238 229 139 210 281 b 372 261 292 194 360 178 b 335 469 386 346 361 403 b 240 428 308 539 257 531 b 192 374 225 328 181 286 b 194 553 200 438 197 488 b 157 679 192 603 172 639 b 226 811 213 704 221 742 b 171 921 233 896 208 897 b 51 869 133 944 69 931 b 40 692 33 810 15 728 b 92 658 60 665 71 656 b 117 546 101 629 113 594 b 133 238 129 418 106 356 b 301 19 154 157 201 24 b 569 289 435 14 543 161 b 501 692 599 419 475 649 b 574 782 518 717 539 747 z m 461 829 b 514 831 476 921 544 878 b 461 829 486 785 443 714 z m 146 793 b 117 742 147 742 132 744 b 101 788 101 739 101 771 b 146 793 101 826 147 846 z "},"V":{"ha":744,"x_min":0,"x_max":0,"o":"m 19 746 b 88 496 36 642 56 550 b 168 208 44 442 63 351 b 414 13 297 33 339 -49 b 468 226 488 74 401 143 b 593 432 522 294 594 369 b 603 647 593 463 594 588 b 640 758 608 685 621 728 b 693 776 657 758 675 765 b 742 953 754 815 776 938 b 678 931 693 974 693 936 b 625 953 664 925 658 947 b 569 838 594 958 547 924 b 581 806 572 825 576 814 b 489 492 519 683 558 525 b 408 439 463 479 435 457 b 289 458 350 400 321 371 b 158 539 278 489 224 551 b 88 776 117 635 97 707 b 118 928 81 832 103 892 b 88 957 139 976 100 950 b 47 954 72 965 64 1006 b 19 746 31 904 1 861 z m 176 336 b 235 399 132 393 190 475 b 400 364 278 324 315 336 b 393 242 492 394 496 360 b 379 154 364 208 378 194 b 289 157 381 114 336 76 b 176 336 243 236 215 288 z "},"W":{"ha":1189,"x_min":0,"x_max":0,"o":"m 1093 768 b 1069 775 1085 771 1076 772 b 1060 918 1071 825 1063 889 b 1006 913 1057 957 1021 913 b 951 913 990 913 951 957 b 954 753 951 869 954 818 b 922 719 943 744 932 733 b 846 558 883 664 863 590 b 892 296 783 438 790 364 b 933 276 906 286 921 281 b 896 142 942 242 947 186 b 750 428 813 69 797 271 b 564 572 703 583 619 592 b 535 368 508 553 492 428 b 589 131 578 308 619 189 b 375 346 542 40 486 172 b 401 404 386 363 396 381 b 344 804 432 536 386 713 b 129 949 303 896 242 978 b 67 707 50 928 -3 813 b 185 388 135 603 165 517 b 286 299 194 325 239 296 b 539 -1 421 21 476 -14 b 682 151 647 19 681 94 b 608 417 683 208 618 363 b 676 435 599 471 656 489 b 732 157 731 294 688 289 b 938 46 768 49 807 -72 b 1017 294 1039 138 1015 217 b 1089 386 1054 319 1079 361 b 1114 596 1107 435 1074 543 b 1093 768 1154 649 1168 744 z m 160 819 b 300 663 213 867 279 763 b 299 450 321 563 326 469 b 239 582 271 431 261 511 b 160 819 217 654 106 772 z m 1061 624 b 996 533 1057 574 999 572 b 994 396 993 496 1019 469 b 899 408 969 322 900 310 b 964 651 897 508 914 572 b 1061 624 1013 728 1067 726 z "},"Ẃ":{"ha":1189,"x_min":0,"x_max":0,"o":"m 1093 768 b 1069 775 1085 771 1076 772 b 1060 918 1071 825 1063 889 b 1006 913 1057 957 1021 913 b 951 913 990 913 951 957 b 954 753 951 869 954 818 b 922 719 943 744 932 733 b 846 558 883 664 863 590 b 892 296 783 438 790 364 b 933 276 906 286 921 281 b 896 142 942 242 947 186 b 750 428 813 69 797 271 b 564 572 703 583 619 592 b 535 368 508 553 492 428 b 589 131 578 308 619 189 b 375 346 542 40 486 172 b 401 404 386 363 396 381 b 344 804 432 536 386 713 b 129 949 303 896 242 978 b 67 707 50 928 -3 813 b 185 388 135 603 165 517 b 286 299 194 325 239 296 b 539 -1 421 21 476 -14 b 682 151 647 19 681 94 b 608 417 683 208 618 363 b 676 435 599 471 656 489 b 732 157 731 294 688 289 b 938 46 768 49 807 -72 b 1017 294 1039 138 1015 217 b 1089 386 1054 319 1079 361 b 1114 596 1107 435 1074 543 b 1093 768 1154 649 1168 744 z m 517 682 b 682 736 558 682 631 704 b 794 840 719 760 781 824 b 768 869 814 863 782 860 b 715 872 750 882 750 908 b 521 763 674 828 596 746 b 519 718 501 767 519 733 b 517 682 519 703 479 682 z m 160 819 b 300 663 213 867 279 763 b 299 450 321 563 326 469 b 239 582 271 431 261 511 b 160 819 217 654 106 772 z m 1061 624 b 996 533 1057 574 999 572 b 994 396 993 496 1019 469 b 899 408 969 322 900 310 b 964 651 897 508 914 572 b 1061 624 1013 728 1067 726 z "},"Ŵ":{"ha":1189,"x_min":0,"x_max":0,"o":"m 457 765 b 599 865 496 776 558 819 b 667 964 628 899 660 943 b 711 854 672 943 686 890 b 839 738 744 806 801 756 b 861 771 874 721 854 757 b 868 811 868 785 888 807 b 736 993 793 828 756 935 b 679 1031 714 1056 693 1029 b 606 1001 665 1032 651 1060 b 438 843 579 968 514 843 b 449 800 418 843 444 815 b 457 765 453 785 421 756 z m 1093 768 b 1069 775 1085 771 1076 772 b 1060 918 1071 825 1063 889 b 1006 913 1057 957 1021 913 b 951 913 990 913 951 957 b 954 753 951 869 954 818 b 922 719 943 744 932 733 b 846 558 883 664 863 590 b 892 296 783 438 790 364 b 933 276 906 286 921 281 b 896 142 942 242 947 186 b 750 428 813 69 797 271 b 564 572 703 583 619 592 b 535 368 508 553 492 428 b 589 131 578 308 619 189 b 375 346 542 40 486 172 b 401 404 386 363 396 381 b 344 804 432 536 386 713 b 129 949 303 896 242 978 b 67 707 50 928 -3 813 b 185 388 135 603 165 517 b 286 299 194 325 239 296 b 539 -1 421 21 476 -14 b 682 151 647 19 681 94 b 608 417 683 208 618 363 b 676 435 599 471 656 489 b 732 157 731 294 688 289 b 938 46 768 49 807 -72 b 1017 294 1039 138 1015 217 b 1089 386 1054 319 1079 361 b 1114 596 1107 435 1074 543 b 1093 768 1154 649 1168 744 z m 160 819 b 300 663 213 867 279 763 b 299 450 321 563 326 469 b 239 582 271 431 261 511 b 160 819 217 654 106 772 z m 1061 624 b 996 533 1057 574 999 572 b 994 396 993 496 1019 469 b 899 408 969 322 900 310 b 964 651 897 508 914 572 b 1061 624 1013 728 1067 726 z "},"Ẅ":{"ha":1189,"x_min":0,"x_max":0,"o":"m 1093 768 b 1069 775 1085 771 1076 772 b 1060 918 1071 825 1063 889 b 1006 913 1057 957 1021 913 b 951 913 990 913 951 957 b 954 753 951 869 954 818 b 922 719 943 744 932 733 b 846 558 883 664 863 590 b 892 296 783 438 790 364 b 933 276 906 286 921 281 b 896 142 942 242 947 186 b 750 428 813 69 797 271 b 564 572 703 583 619 592 b 535 368 508 553 492 428 b 589 131 578 308 619 189 b 375 346 542 40 486 172 b 401 404 386 363 396 381 b 344 804 432 536 386 713 b 129 949 303 896 242 978 b 67 707 50 928 -3 813 b 185 388 135 603 165 517 b 286 299 194 325 239 296 b 539 -1 421 21 476 -14 b 682 151 647 19 681 94 b 608 417 683 208 618 363 b 676 435 599 471 656 489 b 732 157 731 294 688 289 b 938 46 768 49 807 -72 b 1017 294 1039 138 1015 217 b 1089 386 1054 319 1079 361 b 1114 596 1107 435 1074 543 b 1093 768 1154 649 1168 744 z m 764 807 b 822 857 797 807 822 835 b 764 922 822 881 797 921 b 701 868 733 924 701 892 b 764 807 701 846 733 807 z m 493 825 b 579 821 508 810 554 799 b 590 906 600 843 606 890 b 496 903 575 921 519 925 b 493 825 474 879 476 840 z m 160 819 b 300 663 213 867 279 763 b 299 450 321 563 326 469 b 239 582 271 431 261 511 b 160 819 217 654 106 772 z m 1061 624 b 996 533 1057 574 999 572 b 994 396 993 496 1019 469 b 899 408 969 322 900 310 b 964 651 897 508 914 572 b 1061 624 1013 728 1067 726 z "},"Ẁ":{"ha":1189,"x_min":0,"x_max":0,"o":"m 614 818 b 779 764 665 786 738 764 b 776 800 817 764 776 785 b 775 844 776 815 794 849 b 581 954 700 828 622 910 b 528 951 546 990 546 964 b 501 922 514 942 482 944 b 614 818 515 906 576 842 z m 1093 768 b 1069 775 1085 771 1076 772 b 1060 918 1071 825 1063 889 b 1006 913 1057 957 1021 913 b 951 913 990 913 951 957 b 954 753 951 869 954 818 b 922 719 943 744 932 733 b 846 558 883 664 863 590 b 892 296 783 438 790 364 b 933 276 906 286 921 281 b 896 142 942 242 947 186 b 750 428 813 69 797 271 b 564 572 703 583 619 592 b 535 368 508 553 492 428 b 589 131 578 308 619 189 b 375 346 542 40 486 172 b 401 404 386 363 396 381 b 344 804 432 536 386 713 b 129 949 303 896 242 978 b 67 707 50 928 -3 813 b 185 388 135 603 165 517 b 286 299 194 325 239 296 b 539 -1 421 21 476 -14 b 682 151 647 19 681 94 b 608 417 683 208 618 363 b 676 435 599 471 656 489 b 732 157 731 294 688 289 b 938 46 768 49 807 -72 b 1017 294 1039 138 1015 217 b 1089 386 1054 319 1079 361 b 1114 596 1107 435 1074 543 b 1093 768 1154 649 1168 744 z m 160 819 b 300 663 213 867 279 763 b 299 450 321 563 326 469 b 239 582 271 431 261 511 b 160 819 217 654 106 772 z m 1061 624 b 996 533 1057 574 999 572 b 994 396 993 496 1019 469 b 899 408 969 322 900 310 b 964 651 897 508 914 572 b 1061 624 1013 728 1067 726 z "},"X":{"ha":967,"x_min":0,"x_max":0,"o":"m 624 871 b 875 726 713 1018 986 1001 b 517 429 829 611 610 465 b 276 199 447 403 357 333 b 208 13 232 125 215 47 b 144 0 194 -58 167 -12 b 92 35 122 13 78 -28 b 340 417 115 140 240 347 b 333 556 408 464 386 507 b 179 718 281 604 256 692 b 47 781 133 733 78 747 b 43 936 8 824 6 890 b 225 839 108 1015 221 1024 b 346 744 226 743 294 726 b 485 715 397 763 438 736 b 624 871 532 694 579 797 z m 86 878 b 125 810 82 826 90 803 b 161 897 161 817 188 864 b 86 878 132 933 90 922 z m 663 811 b 469 663 607 707 549 625 b 386 615 392 700 307 665 b 533 522 465 565 453 497 b 790 761 632 553 772 672 b 663 811 808 849 721 921 z m 657 364 b 485 274 547 460 410 329 b 615 68 604 186 615 165 b 740 14 615 -29 682 -10 b 910 40 799 38 856 -53 b 804 226 964 133 864 200 b 657 364 744 253 758 276 z m 633 297 b 785 165 692 243 725 188 b 814 75 892 126 850 51 b 729 76 788 93 753 90 b 683 104 703 61 678 78 b 582 269 693 153 622 226 b 633 297 540 313 576 350 z "},"Y":{"ha":833,"x_min":0,"x_max":0,"o":"m 550 846 b 496 640 531 750 528 664 b 419 706 479 667 453 690 b 251 853 313 757 282 810 b 111 944 221 897 167 968 b 104 774 58 922 60 889 b 204 618 132 701 169 653 b 367 489 253 569 294 500 b 518 571 440 478 513 474 l 518 581 b 601 782 579 617 586 690 b 644 768 610 832 661 854 b 597 388 617 628 601 485 b 546 326 594 331 585 329 b 468 428 506 324 518 383 b 371 350 419 471 367 396 b 328 239 375 306 357 265 b 343 136 300 214 278 174 b 493 204 408 99 454 142 b 574 219 531 265 582 256 b 506 118 563 185 539 143 b 297 88 465 89 400 61 b 193 233 217 108 204 181 b 146 244 182 286 158 249 b 114 213 133 240 94 278 b 233 26 133 149 158 65 b 568 54 308 -12 475 -18 b 668 410 661 126 667 310 b 717 794 669 511 678 679 b 550 846 763 932 575 974 z m 335 596 b 204 719 306 614 239 665 b 168 817 174 767 153 806 b 268 725 200 840 226 768 b 397 626 335 657 361 653 b 335 596 449 589 385 565 z "},"Ý":{"ha":833,"x_min":0,"x_max":0,"o":"m 300 1007 b 465 1061 342 1007 414 1029 b 578 1165 503 1085 564 1149 b 551 1194 597 1188 565 1185 b 499 1197 533 1207 533 1233 b 304 1088 457 1153 379 1071 b 303 1043 285 1092 303 1058 b 300 1007 303 1028 263 1007 z m 550 846 b 496 640 531 750 528 664 b 419 706 479 667 453 690 b 251 853 313 757 282 810 b 111 944 221 897 167 968 b 104 774 58 922 60 889 b 204 618 132 701 169 653 b 367 489 253 569 294 500 b 518 571 440 478 513 474 l 518 581 b 601 782 579 617 586 690 b 644 768 610 832 661 854 b 597 388 617 628 601 485 b 546 326 594 331 585 329 b 468 428 506 324 518 383 b 371 350 419 471 367 396 b 328 239 375 306 357 265 b 343 136 300 214 278 174 b 493 204 408 99 454 142 b 574 219 531 265 582 256 b 506 118 563 185 539 143 b 297 88 465 89 400 61 b 193 233 217 108 204 181 b 146 244 182 286 158 249 b 114 213 133 240 94 278 b 233 26 133 149 158 65 b 568 54 308 -12 475 -18 b 668 410 661 126 667 310 b 717 794 669 511 678 679 b 550 846 763 932 575 974 z m 335 596 b 204 719 306 614 239 665 b 168 817 174 767 153 806 b 268 725 200 840 226 768 b 397 626 335 657 361 653 b 335 596 449 589 385 565 z "},"Ŷ":{"ha":833,"x_min":0,"x_max":0,"o":"m 204 1024 b 346 1124 243 1035 306 1078 b 414 1222 375 1157 407 1201 b 458 1113 419 1201 433 1149 b 586 996 492 1064 549 1014 b 608 1029 621 979 601 1015 b 615 1069 615 1043 635 1065 b 483 1251 540 1086 503 1193 b 426 1289 461 1314 440 1288 b 353 1260 413 1290 399 1318 b 185 1101 326 1226 261 1101 b 196 1058 165 1101 192 1074 b 204 1024 200 1043 168 1014 z m 550 846 b 496 640 531 750 528 664 b 419 706 479 667 453 690 b 251 853 313 757 282 810 b 111 944 221 897 167 968 b 104 774 58 922 60 889 b 204 618 132 701 169 653 b 367 489 253 569 294 500 b 518 571 440 478 513 474 l 518 581 b 601 782 579 617 586 690 b 644 768 610 832 661 854 b 597 388 617 628 601 485 b 546 326 594 331 585 329 b 468 428 506 324 518 383 b 371 350 419 471 367 396 b 328 239 375 306 357 265 b 343 136 300 214 278 174 b 493 204 408 99 454 142 b 574 219 531 265 582 256 b 506 118 563 185 539 143 b 297 88 465 89 400 61 b 193 233 217 108 204 181 b 146 244 182 286 158 249 b 114 213 133 240 94 278 b 233 26 133 149 158 65 b 568 54 308 -12 475 -18 b 668 410 661 126 667 310 b 717 794 669 511 678 679 b 550 846 763 932 575 974 z m 335 596 b 204 719 306 614 239 665 b 168 817 174 767 153 806 b 268 725 200 840 226 768 b 397 626 335 657 361 653 b 335 596 449 589 385 565 z "},"Ÿ":{"ha":833,"x_min":0,"x_max":0,"o":"m 524 1056 b 582 1106 557 1056 582 1083 b 524 1171 582 1129 557 1169 b 461 1117 493 1172 461 1140 b 524 1056 461 1094 493 1056 z m 253 1074 b 339 1069 268 1058 314 1047 b 350 1154 360 1092 365 1139 b 256 1151 335 1169 279 1174 b 253 1074 233 1128 236 1089 z m 550 846 b 496 640 531 750 528 664 b 419 706 479 667 453 690 b 251 853 313 757 282 810 b 111 944 221 897 167 968 b 104 774 58 922 60 889 b 204 618 132 701 169 653 b 367 489 253 569 294 500 b 518 571 440 478 513 474 l 518 581 b 601 782 579 617 586 690 b 644 768 610 832 661 854 b 597 388 617 628 601 485 b 546 326 594 331 585 329 b 468 428 506 324 518 383 b 371 350 419 471 367 396 b 328 239 375 306 357 265 b 343 136 300 214 278 174 b 493 204 408 99 454 142 b 574 219 531 265 582 256 b 506 118 563 185 539 143 b 297 88 465 89 400 61 b 193 233 217 108 204 181 b 146 244 182 286 158 249 b 114 213 133 240 94 278 b 233 26 133 149 158 65 b 568 54 308 -12 475 -18 b 668 410 661 126 667 310 b 717 794 669 511 678 679 b 550 846 763 932 575 974 z m 335 596 b 204 719 306 614 239 665 b 168 817 174 767 153 806 b 268 725 200 840 226 768 b 397 626 335 657 361 653 b 335 596 449 589 385 565 z "},"Ỳ":{"ha":833,"x_min":0,"x_max":0,"o":"m 350 1081 b 515 1026 401 1049 474 1026 b 513 1063 553 1026 513 1047 b 511 1107 513 1078 531 1111 b 317 1217 436 1090 358 1172 b 264 1214 282 1253 282 1226 b 238 1185 250 1204 218 1207 b 350 1081 251 1168 313 1104 z m 550 846 b 496 640 531 750 528 664 b 419 706 479 667 453 690 b 251 853 313 757 282 810 b 111 944 221 897 167 968 b 104 774 58 922 60 889 b 204 618 132 701 169 653 b 367 489 253 569 294 500 b 518 571 440 478 513 474 l 518 581 b 601 782 579 617 586 690 b 644 768 610 832 661 854 b 597 388 617 628 601 485 b 546 326 594 331 585 329 b 468 428 506 324 518 383 b 371 350 419 471 367 396 b 328 239 375 306 357 265 b 343 136 300 214 278 174 b 493 204 408 99 454 142 b 574 219 531 265 582 256 b 506 118 563 185 539 143 b 297 88 465 89 400 61 b 193 233 217 108 204 181 b 146 244 182 286 158 249 b 114 213 133 240 94 278 b 233 26 133 149 158 65 b 568 54 308 -12 475 -18 b 668 410 661 126 667 310 b 717 794 669 511 678 679 b 550 846 763 932 575 974 z m 335 596 b 204 719 306 614 239 665 b 168 817 174 767 153 806 b 268 725 200 840 226 768 b 397 626 335 657 361 653 b 335 596 449 589 385 565 z "},"Z":{"ha":1043,"x_min":0,"x_max":0,"o":"m 978 265 b 672 260 907 357 800 453 b 613 178 651 233 631 206 b 233 119 511 167 368 244 b 228 269 176 68 67 182 b 522 400 329 325 404 319 b 701 453 569 432 613 415 b 713 458 704 454 708 457 b 982 732 832 514 982 619 b 696 926 982 844 815 910 b 353 932 576 943 461 985 b 104 872 244 879 196 872 b 68 800 -10 861 68 822 b 104 742 68 779 4 728 b 324 804 204 756 244 768 b 543 678 396 838 515 775 b 529 521 571 581 529 581 b 396 488 528 418 325 394 b 357 640 467 581 440 611 b 150 575 274 669 211 639 b 175 418 89 511 97 422 b 182 343 253 414 276 382 b 54 99 88 304 31 181 b 324 61 78 17 203 -57 b 569 96 406 140 481 99 b 603 -10 551 49 557 10 b 840 1 699 -50 731 19 b 978 265 950 -17 1049 174 z m 522 807 b 528 892 482 828 428 885 b 840 793 628 899 815 829 b 722 544 897 711 881 638 b 608 561 628 489 597 513 b 618 683 617 596 619 653 b 522 807 614 763 563 786 z m 910 157 b 807 67 904 75 863 47 b 704 53 750 86 743 75 b 688 132 665 31 626 44 b 778 240 750 221 728 190 b 910 157 844 314 915 239 z "},"a":{"ha":675,"x_min":0,"x_max":0,"o":"m 635 58 b 574 121 614 69 590 93 b 526 243 563 139 540 199 b 536 693 586 363 629 650 b 172 578 442 736 201 725 b 125 554 153 576 133 572 b 114 524 121 546 117 535 b 44 503 90 524 58 525 b 28 426 33 485 26 454 b 53 350 29 403 42 367 b 118 314 68 326 92 313 b 164 328 138 315 153 321 b 201 319 175 322 189 319 b 283 451 290 324 285 429 l 279 497 b 476 624 281 633 424 649 b 435 517 529 599 489 489 b 393 438 349 561 318 431 b 517 381 476 446 514 417 b 493 365 519 351 506 333 b 299 335 475 411 360 440 b 143 250 269 285 197 300 b 338 14 6 124 158 -107 b 479 172 383 46 431 101 b 489 140 483 163 486 153 b 586 -7 497 103 554 18 b 610 22 618 -32 601 8 b 635 58 618 36 653 49 z m 425 242 b 310 79 403 207 336 93 b 213 81 282 65 243 60 b 203 190 182 101 153 143 b 332 279 253 236 285 215 b 421 325 369 332 400 336 b 425 242 440 315 461 297 z "},"á":{"ha":675,"x_min":0,"x_max":0,"o":"m 314 764 b 479 818 356 764 428 786 b 592 922 517 842 576 904 b 565 951 611 944 579 942 b 513 954 547 964 547 990 b 318 844 471 910 393 828 b 317 800 299 849 317 815 b 314 764 317 785 276 764 z m 635 58 b 574 121 614 69 590 93 b 526 243 563 139 540 199 b 536 693 586 363 629 650 b 172 578 442 736 201 725 b 125 554 153 576 133 572 b 114 524 121 546 117 535 b 44 503 90 524 58 525 b 28 426 33 485 26 454 b 53 350 29 403 42 367 b 118 314 68 326 92 313 b 164 328 138 315 153 321 b 201 319 175 322 189 319 b 283 451 290 324 285 429 l 279 497 b 476 624 281 633 424 649 b 435 517 529 599 489 489 b 393 438 349 561 318 431 b 517 381 476 446 514 417 b 493 365 519 351 506 333 b 299 335 475 411 360 440 b 143 250 269 285 197 300 b 338 14 6 124 158 -107 b 479 172 383 46 431 101 b 489 140 483 163 486 153 b 586 -7 497 103 554 18 b 610 22 618 -32 601 8 b 635 58 618 36 653 49 z m 425 242 b 310 79 403 207 336 93 b 213 81 282 65 243 60 b 203 190 182 101 153 143 b 332 279 253 236 285 215 b 421 325 369 332 400 336 b 425 242 440 315 461 297 z "},"â":{"ha":675,"x_min":0,"x_max":0,"o":"m 204 765 b 346 865 243 776 306 819 b 414 964 375 899 407 943 b 458 854 419 943 433 890 b 586 738 492 806 549 756 b 608 771 621 721 601 757 b 615 811 615 785 635 807 b 483 993 540 828 503 935 b 426 1031 461 1056 440 1029 b 353 1001 413 1032 399 1060 b 185 843 326 968 261 843 b 196 800 165 843 192 815 b 204 765 200 785 168 756 z m 635 58 b 574 121 614 69 590 93 b 526 243 563 139 540 199 b 536 693 586 363 629 650 b 172 578 442 736 201 725 b 125 554 153 576 133 572 b 114 524 121 546 117 535 b 44 503 90 524 58 525 b 28 426 33 485 26 454 b 53 350 29 403 42 367 b 118 314 68 326 92 313 b 164 328 138 315 153 321 b 201 319 175 322 189 319 b 283 451 290 324 285 429 l 279 497 b 476 624 281 633 424 649 b 435 517 529 599 489 489 b 393 438 349 561 318 431 b 517 381 476 446 514 417 b 493 365 519 351 506 333 b 299 335 475 411 360 440 b 143 250 269 285 197 300 b 338 14 6 124 158 -107 b 479 172 383 46 431 101 b 489 140 483 163 486 153 b 586 -7 497 103 554 18 b 610 22 618 -32 601 8 b 635 58 618 36 653 49 z m 425 242 b 310 79 403 207 336 93 b 213 81 282 65 243 60 b 203 190 182 101 153 143 b 332 279 253 236 285 215 b 421 325 369 332 400 336 b 425 242 440 315 461 297 z "},"ä":{"ha":675,"x_min":0,"x_max":0,"o":"m 524 807 b 582 857 557 807 582 835 b 524 922 582 881 557 921 b 461 868 493 924 461 892 b 524 807 461 846 493 807 z m 253 825 b 339 821 268 810 314 799 b 350 906 360 843 365 890 b 256 903 335 921 279 925 b 253 825 233 879 236 840 z m 635 58 b 574 121 614 69 590 93 b 526 243 563 139 540 199 b 536 693 586 363 629 650 b 172 578 442 736 201 725 b 125 554 153 576 133 572 b 114 524 121 546 117 535 b 44 503 90 524 58 525 b 28 426 33 485 26 454 b 53 350 29 403 42 367 b 118 314 68 326 92 313 b 164 328 138 315 153 321 b 201 319 175 322 189 319 b 283 451 290 324 285 429 l 279 497 b 476 624 281 633 424 649 b 435 517 529 599 489 489 b 393 438 349 561 318 431 b 517 381 476 446 514 417 b 493 365 519 351 506 333 b 299 335 475 411 360 440 b 143 250 269 285 197 300 b 338 14 6 124 158 -107 b 479 172 383 46 431 101 b 489 140 483 163 486 153 b 586 -7 497 103 554 18 b 610 22 618 -32 601 8 b 635 58 618 36 653 49 z m 425 242 b 310 79 403 207 336 93 b 213 81 282 65 243 60 b 203 190 182 101 153 143 b 332 279 253 236 285 215 b 421 325 369 332 400 336 b 425 242 440 315 461 297 z "},"à":{"ha":675,"x_min":0,"x_max":0,"o":"m 403 818 b 568 764 454 786 526 764 b 565 800 606 764 565 785 b 564 844 565 815 583 849 b 369 954 489 828 411 910 b 317 951 335 990 335 964 b 290 922 303 942 271 944 b 403 818 304 906 365 842 z m 635 58 b 574 121 614 69 590 93 b 526 243 563 139 540 199 b 536 693 586 363 629 650 b 172 578 442 736 201 725 b 125 554 153 576 133 572 b 114 524 121 546 117 535 b 44 503 90 524 58 525 b 28 426 33 485 26 454 b 53 350 29 403 42 367 b 118 314 68 326 92 313 b 164 328 138 315 153 321 b 201 319 175 322 189 319 b 283 451 290 324 285 429 l 279 497 b 476 624 281 633 424 649 b 435 517 529 599 489 489 b 393 438 349 561 318 431 b 517 381 476 446 514 417 b 493 365 519 351 506 333 b 299 335 475 411 360 440 b 143 250 269 285 197 300 b 338 14 6 124 158 -107 b 479 172 383 46 431 101 b 489 140 483 163 486 153 b 586 -7 497 103 554 18 b 610 22 618 -32 601 8 b 635 58 618 36 653 49 z m 425 242 b 310 79 403 207 336 93 b 213 81 282 65 243 60 b 203 190 182 101 153 143 b 332 279 253 236 285 215 b 421 325 369 332 400 336 b 425 242 440 315 461 297 z "},"å":{"ha":675,"x_min":0,"x_max":0,"o":"m 293 736 b 438 742 344 724 393 731 b 560 853 464 749 547 775 b 438 988 572 931 482 978 b 251 954 392 997 282 988 b 213 825 222 922 206 867 b 293 736 219 783 242 749 z m 350 910 b 433 926 378 906 406 933 b 478 856 463 919 478 882 b 407 793 478 831 458 801 b 283 854 367 786 289 810 b 350 910 278 900 315 915 z m 635 58 b 574 121 614 69 590 93 b 526 243 563 139 540 199 b 536 693 586 363 629 650 b 172 578 442 736 201 725 b 125 554 153 576 133 572 b 114 524 121 546 117 535 b 44 503 90 524 58 525 b 28 426 33 485 26 454 b 53 350 29 403 42 367 b 118 314 68 326 92 313 b 164 328 138 315 153 321 b 201 319 175 322 189 319 b 283 451 290 324 285 429 l 279 497 b 476 624 281 633 424 649 b 435 517 529 599 489 489 b 393 438 349 561 318 431 b 517 381 476 446 514 417 b 493 365 519 351 506 333 b 299 335 475 411 360 440 b 143 250 269 285 197 300 b 338 14 6 124 158 -107 b 479 172 383 46 431 101 b 489 140 483 163 486 153 b 586 -7 497 103 554 18 b 610 22 618 -32 601 8 b 635 58 618 36 653 49 z m 425 242 b 310 79 403 207 336 93 b 213 81 282 65 243 60 b 203 190 182 101 153 143 b 332 279 253 236 285 215 b 421 325 369 332 400 336 b 425 242 440 315 461 297 z "},"ã":{"ha":675,"x_min":0,"x_max":0,"o":"m 200 790 b 231 782 207 783 218 761 b 293 915 240 799 288 867 b 332 888 294 928 318 940 b 360 786 339 860 336 810 b 499 772 401 744 457 728 b 572 901 532 807 572 853 b 556 989 572 953 571 964 b 521 989 542 1013 532 989 b 481 985 506 989 478 1011 b 497 897 482 972 510 933 b 403 860 475 832 417 793 b 378 950 396 893 389 928 b 278 999 354 997 317 1006 b 222 921 249 993 222 961 b 179 824 222 875 189 833 b 200 790 147 792 192 799 z m 635 58 b 574 121 614 69 590 93 b 526 243 563 139 540 199 b 536 693 586 363 629 650 b 172 578 442 736 201 725 b 125 554 153 576 133 572 b 114 524 121 546 117 535 b 44 503 90 524 58 525 b 28 426 33 485 26 454 b 53 350 29 403 42 367 b 118 314 68 326 92 313 b 164 328 138 315 153 321 b 201 319 175 322 189 319 b 283 451 290 324 285 429 l 279 497 b 476 624 281 633 424 649 b 435 517 529 599 489 489 b 393 438 349 561 318 431 b 517 381 476 446 514 417 b 493 365 519 351 506 333 b 299 335 475 411 360 440 b 143 250 269 285 197 300 b 338 14 6 124 158 -107 b 479 172 383 46 431 101 b 489 140 483 163 486 153 b 586 -7 497 103 554 18 b 610 22 618 -32 601 8 b 635 58 618 36 653 49 z m 425 242 b 310 79 403 207 336 93 b 213 81 282 65 243 60 b 203 190 182 101 153 143 b 332 279 253 236 285 215 b 421 325 369 332 400 336 b 425 242 440 315 461 297 z "},"æ":{"ha":1121,"x_min":0,"x_max":0,"o":"m 42 421 b 67 344 43 397 56 361 b 132 308 82 321 106 307 b 178 322 151 310 167 315 b 215 314 189 317 203 314 b 297 446 304 318 299 424 l 293 492 b 490 618 294 628 438 643 b 449 511 543 593 503 483 b 407 432 363 556 332 425 b 531 375 490 440 528 411 b 507 360 533 346 519 328 b 313 329 489 406 374 435 b 157 244 283 279 211 294 b 351 8 19 118 174 -114 b 474 139 392 36 432 82 b 672 47 500 57 596 89 b 869 -53 761 -1 807 -62 b 1008 75 982 -35 1004 29 b 1071 186 1068 96 1094 121 b 1028 244 1063 208 1053 239 b 950 235 1007 249 976 244 b 886 185 928 226 899 201 b 875 111 869 163 864 136 b 917 67 886 88 900 74 b 728 146 885 -26 797 106 b 582 194 665 182 578 113 b 639 276 585 246 597 275 b 942 272 726 226 854 206 b 1051 426 994 313 1044 378 b 960 614 1064 518 1018 561 b 633 656 899 668 789 724 b 593 626 618 649 606 639 b 550 688 585 656 571 678 b 186 572 456 731 215 719 b 139 549 167 571 147 567 b 128 518 135 540 131 529 b 58 497 104 518 72 519 b 42 421 47 479 40 449 z m 621 396 b 688 590 589 478 610 576 b 724 556 783 607 803 563 b 707 442 674 551 586 465 b 813 388 743 435 767 385 b 822 499 883 392 856 468 b 901 542 781 536 831 604 b 850 324 978 474 961 394 b 621 396 811 299 653 314 z m 217 185 b 346 274 267 232 297 210 b 435 319 385 325 414 331 b 439 236 454 310 475 292 b 324 74 417 201 350 88 b 226 75 296 60 257 54 b 217 185 196 96 167 138 z m 936 158 b 986 186 942 172 968 194 b 1018 138 1003 179 1022 153 b 957 113 1014 122 974 106 b 936 158 938 121 931 144 z "},"b":{"ha":713,"x_min":0,"x_max":0,"o":"m 669 342 b 578 529 682 433 636 476 b 251 571 517 583 407 639 b 164 449 197 547 175 500 b 158 501 158 469 157 488 b 207 622 161 529 190 603 b 303 810 224 642 296 733 b 196 983 311 900 258 981 b 121 847 147 986 85 910 b 167 697 144 807 179 779 b 88 494 157 636 94 589 b 143 326 88 433 113 374 l 122 242 b 42 151 111 196 67 182 b 94 -7 13 115 31 18 b 214 49 158 -32 185 -1 b 226 97 222 61 226 81 b 394 -24 288 42 344 -3 b 583 207 569 -94 669 94 b 669 342 626 247 664 300 z m 306 506 b 342 471 401 522 421 478 b 325 357 292 467 204 381 b 431 303 361 350 385 300 b 440 414 500 307 474 383 b 519 457 399 451 449 519 b 492 267 586 397 579 347 b 365 299 442 276 394 267 b 215 331 310 360 256 354 b 306 506 222 378 240 494 z m 506 64 b 410 43 479 38 440 36 b 264 178 382 51 292 149 b 250 260 218 226 232 246 b 346 235 268 275 297 276 b 490 174 408 182 431 210 b 506 64 550 139 531 92 z m 131 33 b 79 94 114 33 79 71 b 118 139 79 119 101 139 b 168 94 136 139 168 119 b 131 33 168 71 149 33 z "},"c":{"ha":694,"x_min":0,"x_max":0,"o":"m 200 529 l 225 540 b 319 486 243 497 267 481 b 472 476 378 492 386 539 b 589 393 508 450 542 392 b 656 525 681 396 676 447 b 489 690 633 607 550 672 b 290 654 438 706 372 681 b 44 490 239 639 74 597 b 32 253 15 382 29 317 b 494 32 40 65 306 -42 b 544 15 507 22 522 17 b 613 54 572 14 597 29 b 639 135 624 72 638 110 b 621 214 640 164 633 196 b 549 236 606 236 574 236 b 461 128 472 236 461 199 l 461 117 b 101 339 335 64 108 131 b 176 238 100 383 192 300 b 258 156 163 181 218 160 b 351 214 288 153 331 172 b 313 446 389 289 382 376 b 189 399 278 481 175 447 b 164 382 200 358 183 367 b 143 428 151 392 146 397 b 200 529 140 456 142 501 z m 394 628 b 551 564 460 646 515 614 b 575 493 576 529 596 503 b 432 569 533 474 514 550 b 322 564 367 585 354 539 b 394 628 303 579 335 611 z m 246 283 b 246 372 293 321 242 350 b 279 403 250 394 258 407 b 321 300 296 400 322 340 b 265 226 319 269 300 219 b 246 283 233 233 226 268 z "},"ç":{"ha":833,"x_min":0,"x_max":0,"o":"m 282 543 b 306 554 290 547 299 550 b 396 501 322 513 346 497 b 542 493 451 506 461 554 b 653 414 575 468 607 413 b 715 539 740 417 736 465 b 557 696 693 617 615 679 b 368 663 508 710 446 688 b 133 506 319 647 161 608 b 122 279 106 403 119 340 b 318 67 126 178 213 100 b 289 7 307 44 297 25 b 324 -56 275 -22 292 -71 b 404 -36 356 -40 396 -7 b 353 -97 413 -65 382 -82 b 263 -162 324 -112 265 -133 b 372 -237 260 -192 267 -242 b 535 -75 479 -233 538 -117 b 403 38 532 -33 443 53 b 379 51 389 32 374 28 b 563 69 442 42 506 47 b 610 54 574 61 589 56 b 675 90 636 53 660 67 b 700 167 686 107 699 143 b 683 243 701 194 694 225 b 614 264 669 265 638 264 b 531 161 542 264 531 228 l 531 150 b 188 361 410 100 194 164 b 260 265 186 404 274 325 b 338 188 247 211 299 192 b 426 243 365 185 407 203 b 389 464 461 314 456 397 b 271 418 356 497 258 465 b 247 403 281 381 267 389 b 228 446 235 411 231 417 b 282 543 225 472 226 517 z m 467 638 b 617 576 529 656 582 624 b 639 508 642 543 658 518 b 503 582 601 489 581 563 b 399 576 440 597 429 551 b 467 638 381 592 410 621 z m 325 308 b 325 393 371 344 322 372 b 357 422 328 415 338 426 b 397 325 374 418 399 363 b 344 254 396 296 378 249 b 325 308 314 260 307 294 z m 429 -104 b 463 -104 439 -86 454 -82 b 436 -153 471 -126 451 -139 b 353 -179 417 -171 378 -192 b 371 -146 326 -167 346 -153 b 429 -104 393 -140 413 -128 z "},"d":{"ha":686,"x_min":0,"x_max":0,"o":"m 588 624 b 668 815 604 643 661 739 b 561 989 676 906 624 985 b 486 853 513 992 450 915 b 532 703 510 813 544 785 b 453 551 522 642 461 604 b 450 507 450 538 450 522 b 360 647 426 549 419 588 b 89 543 286 721 129 614 b 167 50 -4 381 79 111 b 446 158 265 -18 406 28 b 500 253 464 217 500 279 b 465 167 500 193 490 186 b 518 8 433 142 454 33 b 638 64 582 -17 608 14 b 639 150 651 88 663 133 b 563 339 514 238 563 313 b 538 507 563 403 533 468 b 588 624 540 535 571 604 z m 406 222 b 206 117 367 113 261 68 b 121 335 146 169 121 260 b 164 331 121 385 156 360 b 249 157 182 265 208 163 b 342 224 278 153 321 176 b 278 342 361 268 286 294 b 303 489 272 386 335 450 b 181 436 269 529 174 494 b 135 426 186 393 139 403 b 315 574 113 550 256 633 b 447 356 336 553 439 397 b 406 222 457 308 435 304 z m 542 154 b 592 110 560 154 592 135 b 554 49 592 86 572 49 b 503 110 538 49 503 86 b 542 154 503 135 525 154 z "},"ð":{"ha":833,"x_min":0,"x_max":0,"o":"m 656 803 b 647 836 651 814 664 843 b 524 788 621 825 561 803 b 507 850 515 801 510 819 l 496 978 b 326 957 431 1011 351 1008 b 382 793 301 906 308 831 b 449 746 404 782 426 767 b 388 688 426 728 406 707 b 357 622 364 664 336 628 b 394 596 378 617 394 614 b 450 610 394 578 421 571 b 506 679 471 638 483 660 b 567 501 535 635 557 575 l 569 422 b 325 503 532 519 397 517 b 196 371 253 489 235 424 b 149 113 157 318 85 214 b 442 7 213 11 346 -28 b 656 296 538 42 663 153 b 590 692 649 439 633 608 b 574 721 585 703 579 713 b 663 763 610 740 643 756 b 656 803 700 775 658 794 z m 468 99 b 299 88 408 47 332 69 b 213 203 265 106 218 132 b 292 379 207 274 250 325 b 407 422 319 415 375 424 b 500 329 461 421 485 357 b 469 304 515 301 489 274 b 364 325 450 335 392 340 b 351 167 336 310 324 249 b 464 183 379 85 426 142 b 468 99 539 267 567 183 z "},"e":{"ha":654,"x_min":0,"x_max":0,"o":"m 617 192 b 574 250 608 214 599 244 b 496 240 553 254 522 250 b 432 190 474 232 444 207 b 421 117 415 168 410 142 b 456 76 431 96 443 85 b 372 53 494 50 425 31 b 265 131 331 71 299 111 b 128 200 203 167 124 118 b 222 264 131 265 149 292 b 488 278 306 229 413 221 b 597 432 540 318 590 383 b 506 619 610 524 564 567 b 179 661 444 674 335 729 b 106 351 85 619 50 439 b 117 336 108 346 113 342 b 14 175 67 311 7 254 b 218 53 25 56 133 99 b 415 -47 307 4 353 -57 b 585 88 540 -28 558 74 b 617 192 610 101 642 124 z m 233 596 b 269 561 329 613 349 568 b 253 447 219 557 132 471 b 358 393 289 440 313 390 b 368 504 429 397 401 474 b 447 547 326 542 376 610 b 396 329 524 479 507 400 b 167 401 357 304 199 319 b 233 596 135 483 156 582 z m 482 164 b 532 192 488 178 514 200 b 564 143 549 185 568 158 b 503 118 560 128 521 111 b 482 164 483 126 476 150 z "},"é":{"ha":654,"x_min":0,"x_max":0,"o":"m 300 764 b 465 818 342 764 414 786 b 578 922 503 842 564 906 b 551 951 597 944 565 942 b 499 954 533 964 533 990 b 304 844 457 910 379 828 b 303 800 285 849 303 815 b 300 764 303 785 263 764 z m 617 192 b 574 250 608 214 599 244 b 496 240 553 254 522 250 b 432 190 474 232 444 207 b 421 117 415 168 410 142 b 456 76 431 96 443 85 b 372 53 494 50 425 31 b 265 131 331 71 299 111 b 128 200 203 167 124 118 b 222 264 131 265 149 292 b 488 278 306 229 413 221 b 597 432 540 318 590 383 b 506 619 610 524 564 567 b 179 661 444 674 335 729 b 106 351 85 619 50 439 b 117 336 108 346 113 342 b 14 175 67 311 7 254 b 218 53 25 56 133 99 b 415 -47 307 4 353 -57 b 585 88 540 -28 558 74 b 617 192 610 101 642 124 z m 233 596 b 269 561 329 613 349 568 b 253 447 219 557 132 471 b 358 393 289 440 313 390 b 368 504 429 397 401 474 b 447 547 326 542 376 610 b 396 329 524 479 507 400 b 167 401 357 304 199 319 b 233 596 135 483 156 582 z m 482 164 b 532 192 488 178 514 200 b 564 143 549 185 568 158 b 503 118 560 128 521 111 b 482 164 483 126 476 150 z "},"ê":{"ha":654,"x_min":0,"x_max":0,"o":"m 204 765 b 346 865 243 776 306 819 b 414 964 375 899 407 943 b 458 854 419 943 433 890 b 586 738 492 806 549 756 b 608 771 621 721 601 757 b 615 811 615 785 635 807 b 483 993 540 828 503 935 b 426 1031 461 1056 440 1029 b 353 1001 413 1032 399 1060 b 185 843 326 968 261 843 b 196 800 165 843 192 815 b 204 765 200 785 168 756 z m 617 192 b 574 250 608 214 599 244 b 496 240 553 254 522 250 b 432 190 474 232 444 207 b 421 117 415 168 410 142 b 456 76 431 96 443 85 b 372 53 494 50 425 31 b 265 131 331 71 299 111 b 128 200 203 167 124 118 b 222 264 131 265 149 292 b 488 278 306 229 413 221 b 597 432 540 318 590 383 b 506 619 610 524 564 567 b 179 661 444 674 335 729 b 106 351 85 619 50 439 b 117 336 108 346 113 342 b 14 175 67 311 7 254 b 218 53 25 56 133 99 b 415 -47 307 4 353 -57 b 585 88 540 -28 558 74 b 617 192 610 101 642 124 z m 233 596 b 269 561 329 613 349 568 b 253 447 219 557 132 471 b 358 393 289 440 313 390 b 368 504 429 397 401 474 b 447 547 326 542 376 610 b 396 329 524 479 507 400 b 167 401 357 304 199 319 b 233 596 135 483 156 582 z m 482 164 b 532 192 488 178 514 200 b 564 143 549 185 568 158 b 503 118 560 128 521 111 b 482 164 483 126 476 150 z "},"ë":{"ha":654,"x_min":0,"x_max":0,"o":"m 524 807 b 582 857 557 807 582 835 b 524 922 582 881 557 921 b 461 868 493 924 461 892 b 524 807 461 846 493 807 z m 253 825 b 339 821 268 810 314 799 b 350 906 360 843 365 890 b 256 903 335 921 279 925 b 253 825 233 879 236 840 z m 617 192 b 574 250 608 214 599 244 b 496 240 553 254 522 250 b 432 190 474 232 444 207 b 421 117 415 168 410 142 b 456 76 431 96 443 85 b 372 53 494 50 425 31 b 265 131 331 71 299 111 b 128 200 203 167 124 118 b 222 264 131 265 149 292 b 488 278 306 229 413 221 b 597 432 540 318 590 383 b 506 619 610 524 564 567 b 179 661 444 674 335 729 b 106 351 85 619 50 439 b 117 336 108 346 113 342 b 14 175 67 311 7 254 b 218 53 25 56 133 99 b 415 -47 307 4 353 -57 b 585 88 540 -28 558 74 b 617 192 610 101 642 124 z m 233 596 b 269 561 329 613 349 568 b 253 447 219 557 132 471 b 358 393 289 440 313 390 b 368 504 429 397 401 474 b 447 547 326 542 376 610 b 396 329 524 479 507 400 b 167 401 357 304 199 319 b 233 596 135 483 156 582 z m 482 164 b 532 192 488 178 514 200 b 564 143 549 185 568 158 b 503 118 560 128 521 111 b 482 164 483 126 476 150 z "},"è":{"ha":654,"x_min":0,"x_max":0,"o":"m 403 818 b 568 764 454 786 526 764 b 565 800 606 764 565 785 b 564 844 565 815 583 849 b 369 954 489 828 411 910 b 317 951 335 990 335 964 b 290 922 303 942 271 944 b 403 818 304 906 365 842 z m 617 192 b 574 250 608 214 599 244 b 496 240 553 254 522 250 b 432 190 474 232 444 207 b 421 117 415 168 410 142 b 456 76 431 96 443 85 b 372 53 494 50 425 31 b 265 131 331 71 299 111 b 128 200 203 167 124 118 b 222 264 131 265 149 292 b 488 278 306 229 413 221 b 597 432 540 318 590 383 b 506 619 610 524 564 567 b 179 661 444 674 335 729 b 106 351 85 619 50 439 b 117 336 108 346 113 342 b 14 175 67 311 7 254 b 218 53 25 56 133 99 b 415 -47 307 4 353 -57 b 585 88 540 -28 558 74 b 617 192 610 101 642 124 z m 233 596 b 269 561 329 613 349 568 b 253 447 219 557 132 471 b 358 393 289 440 313 390 b 368 504 429 397 401 474 b 447 547 326 542 376 610 b 396 329 524 479 507 400 b 167 401 357 304 199 319 b 233 596 135 483 156 582 z m 482 164 b 532 192 488 178 514 200 b 564 143 549 185 568 158 b 503 118 560 128 521 111 b 482 164 483 126 476 150 z "},"f":{"ha":571,"x_min":0,"x_max":0,"o":"m 542 893 b 292 1008 489 938 399 975 b 163 951 233 1026 179 985 b 211 782 139 906 126 822 b 215 681 217 744 217 706 b 207 481 210 576 203 526 b 146 471 179 475 156 471 b 60 489 114 469 81 478 b 36 454 42 499 43 468 b 32 413 29 439 -7 425 b 201 415 69 400 164 411 b 219 418 206 415 213 417 b 244 340 225 396 233 372 b 244 185 258 301 256 244 b 99 35 233 125 82 106 b 265 -47 115 -36 210 -60 b 297 115 389 -18 294 118 l 294 118 b 319 372 339 179 357 300 b 299 435 311 388 304 410 b 336 446 311 439 324 442 b 346 411 338 438 342 426 b 432 450 365 344 468 333 b 426 569 421 486 451 532 b 336 508 389 625 347 571 b 288 497 321 504 304 501 b 288 735 278 568 276 654 b 364 643 308 706 325 668 b 542 893 524 544 706 756 z m 515 754 b 411 717 503 719 471 681 b 290 817 351 753 365 788 b 224 890 231 840 219 868 b 303 917 228 913 238 935 b 489 849 342 906 469 869 b 515 754 510 825 528 789 z "},"g":{"ha":635,"x_min":0,"x_max":0,"o":"m 599 672 b 556 731 590 694 581 725 b 478 721 535 735 504 731 b 414 671 456 713 426 688 b 404 656 410 665 407 661 b 128 661 340 693 247 714 b 54 351 33 619 -1 439 b 146 275 72 324 106 296 b 208 122 86 172 158 118 b 338 103 249 125 329 136 b 281 61 318 96 300 82 b 111 13 243 19 174 50 b 251 -261 -50 -83 53 -343 b 468 -93 315 -235 389 -172 b 478 49 511 -50 500 17 b 439 88 468 63 456 76 b 435 179 453 118 458 150 b 267 236 399 224 267 192 l 267 239 b 436 278 326 232 388 242 b 546 432 489 318 539 383 b 517 554 553 485 540 522 b 529 558 522 556 526 557 b 599 672 594 581 624 604 z m 464 644 b 514 672 469 658 496 681 b 546 624 531 665 550 639 b 485 599 542 608 501 592 b 464 644 465 607 458 631 z m 344 329 b 115 401 306 304 147 319 b 182 596 83 483 104 582 b 218 561 278 613 297 568 b 201 447 168 557 81 471 b 307 393 238 440 261 390 b 317 504 378 397 350 474 b 396 547 275 542 325 610 b 344 329 472 479 456 400 z m 382 -60 b 236 -194 354 -89 264 -187 b 140 -174 206 -201 165 -201 b 156 -64 115 -146 96 -100 b 300 -3 215 -28 238 -56 b 396 22 349 39 378 36 b 382 -60 414 8 428 -11 z "},"h":{"ha":772,"x_min":0,"x_max":0,"o":"m 729 142 b 649 231 722 183 696 210 b 572 263 601 251 582 240 b 619 446 558 293 603 401 b 718 599 651 531 714 522 b 575 722 722 675 621 717 b 510 689 551 725 526 710 b 358 689 463 707 399 701 b 243 528 272 663 256 597 b 283 256 225 424 265 332 b 244 92 306 160 269 121 b 119 69 211 53 133 33 b 169 97 113 88 133 94 b 249 210 232 101 254 171 b 189 428 243 244 231 339 b 211 669 154 503 182 600 l 218 669 b 267 786 250 660 304 733 b 329 911 294 832 319 840 b 167 1053 340 996 257 1085 b 85 858 42 1008 53 928 b 53 783 69 843 57 819 b 65 685 50 753 44 708 b 128 646 81 668 99 644 b 119 399 104 582 72 482 b 183 214 169 310 185 236 b 29 64 181 157 13 135 b 322 57 56 -50 268 -43 b 363 238 343 97 383 169 b 342 339 349 282 301 351 b 428 288 381 326 385 288 b 499 446 486 288 436 356 b 358 458 526 486 454 650 b 315 492 324 389 307 458 b 390 618 328 542 339 606 b 546 468 483 640 556 610 b 476 243 536 407 499 374 b 382 114 468 194 375 228 b 504 -21 388 28 460 -11 b 690 13 550 -31 660 -21 b 729 142 719 44 736 100 z m 221 967 b 256 917 239 936 256 976 b 217 840 256 888 243 857 b 146 936 204 832 146 865 b 221 967 146 947 196 1010 z m 592 57 b 508 40 564 61 536 33 b 464 111 479 47 464 85 b 535 174 464 136 483 165 b 658 113 575 181 653 157 b 592 57 664 67 626 51 z "},"i":{"ha":349,"x_min":0,"x_max":0,"o":"m 181 842 b 183 754 135 790 157 754 b 274 738 240 754 236 728 b 283 864 346 756 324 821 b 233 882 267 882 249 882 b 181 842 211 882 193 856 z m 46 175 b 119 122 82 135 119 161 b 58 60 119 90 79 71 b 83 24 40 50 75 38 b 107 -6 92 10 75 -31 b 188 115 131 13 174 56 b 207 24 189 71 200 40 b 254 22 225 -18 244 19 b 292 49 269 26 300 32 b 265 574 225 179 201 483 b 221 619 306 631 238 615 b 156 603 189 628 163 657 b 136 383 150 558 133 450 l 139 351 b 81 336 121 351 101 347 b 46 175 15 300 15 208 z m 79 269 b 126 304 86 286 106 301 b 146 289 135 306 142 299 b 154 228 156 265 161 249 b 104 201 147 206 122 194 b 79 269 81 210 67 239 z "},"í":{"ha":408,"x_min":0,"x_max":0,"o":"m 296 954 b 101 844 254 910 176 828 b 100 800 82 849 100 815 b 97 764 100 785 60 764 b 263 818 139 764 211 786 b 375 922 300 842 361 906 b 349 951 394 944 363 942 b 296 954 331 964 331 990 z m 47 175 b 121 122 83 135 121 161 b 60 60 121 90 81 71 b 85 24 42 50 76 38 b 108 -6 93 10 76 -31 b 189 115 132 13 175 56 b 208 24 190 71 201 40 b 256 22 226 -18 246 19 b 293 49 271 26 301 32 b 267 574 226 179 203 483 b 222 619 307 631 239 615 b 157 603 190 628 164 657 b 138 383 151 558 135 450 l 140 351 b 82 336 122 351 103 347 b 47 175 17 300 17 208 z m 81 269 b 128 304 88 286 107 301 b 147 289 136 306 143 299 b 156 228 157 265 163 249 b 106 201 149 206 124 194 b 81 269 82 210 68 239 z "},"î":{"ha":501,"x_min":0,"x_max":0,"o":"m 333 938 b 465 756 353 879 390 772 b 458 715 485 751 465 729 b 436 682 451 701 471 665 b 308 799 399 700 342 750 b 264 908 283 835 269 888 b 196 810 257 888 225 843 b 54 710 156 764 93 721 b 46 744 18 700 50 729 b 35 788 42 760 15 788 b 203 946 111 788 176 913 b 276 975 249 1004 263 976 b 333 938 290 974 311 1000 z m 89 175 b 163 122 125 135 163 161 b 101 60 163 90 122 71 b 126 24 83 50 118 38 b 150 -6 135 10 118 -31 b 231 115 174 13 217 56 b 250 24 232 71 243 40 b 297 22 268 -18 288 19 b 335 49 313 26 343 32 b 308 574 269 179 244 483 b 264 619 349 631 281 615 b 199 603 232 628 206 657 b 179 383 193 558 174 450 l 182 351 b 124 336 164 351 144 347 b 89 175 58 301 58 208 z m 122 269 b 169 304 129 286 149 301 b 189 289 178 306 185 299 b 197 228 199 265 204 249 b 147 201 190 206 165 194 b 122 269 124 210 110 239 z "},"ï":{"ha":400,"x_min":0,"x_max":0,"o":"m 251 868 b 314 922 251 892 283 924 b 372 857 347 921 372 881 b 314 807 372 835 347 807 b 251 868 283 807 251 846 z m 140 906 b 129 821 156 890 150 843 b 43 825 104 799 58 810 b 46 903 26 840 24 879 b 140 906 69 925 125 921 z m 47 175 b 121 122 83 135 121 161 b 60 60 121 90 81 71 b 85 24 42 50 76 38 b 108 -6 93 10 76 -31 b 189 115 132 13 175 56 b 208 24 190 71 201 40 b 256 22 226 -18 246 19 b 293 49 271 26 301 32 b 267 574 226 179 203 483 b 222 619 307 631 239 615 b 157 603 190 628 164 657 b 138 383 151 558 135 450 l 140 351 b 82 336 122 351 103 347 b 47 175 17 300 17 208 z m 81 269 b 128 304 88 286 107 301 b 147 289 136 306 143 299 b 156 228 157 265 163 249 b 106 201 149 206 124 194 b 81 269 82 210 68 239 z "},"ì":{"ha":403,"x_min":0,"x_max":0,"o":"m 160 954 b 107 951 125 990 125 964 b 81 922 93 942 61 944 b 193 818 94 906 156 842 b 358 764 244 786 317 764 b 356 800 396 764 356 785 b 354 844 356 815 374 849 b 160 954 279 828 201 910 z m 47 175 b 121 122 83 135 121 161 b 60 60 121 90 81 71 b 85 24 42 50 76 38 b 108 -6 93 10 76 -31 b 189 115 132 13 175 56 b 208 24 190 71 201 40 b 256 22 226 -18 246 19 b 293 49 271 26 301 32 b 267 574 226 179 203 483 b 222 619 307 631 239 615 b 157 603 190 628 164 657 b 138 383 151 558 135 450 l 140 351 b 82 336 122 351 103 347 b 47 175 17 300 17 208 z m 81 269 b 128 304 88 286 107 301 b 147 289 136 306 143 299 b 156 228 157 265 163 249 b 106 201 149 206 124 194 b 81 269 82 210 68 239 z "},"j":{"ha":446,"x_min":0,"x_max":0,"o":"m 208 878 b 213 747 142 800 172 747 b 349 722 297 747 293 706 b 364 911 456 754 422 846 b 288 939 339 939 313 940 b 208 878 256 936 228 900 z m 42 -14 b 97 -8 40 25 79 -8 b 128 -18 106 -8 139 15 b 164 -140 114 -60 151 -117 b 289 -187 182 -174 261 -221 b 254 -144 304 -169 290 -149 b 160 -25 210 -139 160 -100 b 218 185 160 56 169 99 b 199 365 274 283 219 335 b 119 522 165 413 131 438 b 282 664 108 607 192 696 b 351 443 422 614 389 518 b 303 321 328 396 319 364 b 303 147 294 299 374 274 b 247 -37 253 58 246 -15 b 393 -187 250 -79 410 -117 b 226 -269 376 -258 283 -278 b 88 -182 186 -264 122 -244 b 42 -14 63 -137 44 -85 z m 232 451 b 303 547 244 443 303 476 b 228 578 303 558 253 621 b 193 528 210 547 193 588 b 232 451 193 499 206 468 z "},"k":{"ha":625,"x_min":0,"x_max":0,"o":"m 544 154 b 468 164 519 169 492 169 b 369 340 394 222 393 286 b 343 392 361 360 356 379 b 503 593 410 443 460 503 b 467 699 518 621 528 644 b 221 590 403 756 324 733 b 122 769 211 636 124 714 b 207 892 121 828 179 875 b 226 975 235 908 261 904 b 113 1017 192 1046 167 1031 b 63 926 58 1003 35 954 b 104 865 90 899 142 925 b 43 728 67 806 36 815 b 171 515 50 649 136 596 b 100 313 92 403 54 350 b 72 242 81 293 67 271 b 79 94 82 186 92 132 b 54 31 71 74 53 56 b 101 6 57 -24 83 3 b 150 15 119 8 150 -37 b 171 121 150 36 174 85 b 156 279 168 178 117 240 b 246 340 199 322 197 310 l 265 346 b 376 158 307 344 307 215 b 401 121 389 147 397 135 b 390 101 397 114 393 108 b 426 -3 374 60 393 13 b 578 17 458 -17 550 -21 b 544 154 606 54 610 117 z m 319 604 b 418 604 350 654 447 669 b 225 394 389 539 257 407 b 208 464 192 379 157 404 b 319 604 258 521 290 560 z m 503 42 b 443 65 481 24 449 42 b 486 121 438 89 454 117 b 542 100 506 124 529 115 b 503 42 554 85 528 61 z "},"l":{"ha":408,"x_min":0,"x_max":0,"o":"m 381 243 b 335 75 378 172 360 119 b 196 -12 300 13 236 -7 b 29 69 139 -21 46 -1 b 175 219 13 140 172 178 b 119 404 176 242 143 304 b 142 663 71 615 150 640 b 93 785 125 706 117 738 b 163 1006 56 860 22 956 b 325 864 253 1038 336 949 b 246 707 314 779 278 754 b 204 442 225 676 171 625 b 263 232 222 344 263 313 b 168 113 263 157 213 118 b 133 69 132 108 118 88 b 258 117 161 36 240 83 b 294 239 271 140 308 197 b 325 249 283 272 317 249 b 381 243 343 249 382 282 z m 213 793 b 251 869 239 810 251 840 b 217 919 251 929 235 889 b 142 889 192 963 142 900 b 213 793 142 818 200 785 z "},"m":{"ha":1097,"x_min":0,"x_max":0,"o":"m 1067 128 b 986 217 1060 169 1033 196 b 910 249 939 238 919 226 b 917 594 896 279 1057 499 b 815 747 843 644 883 711 b 644 663 747 783 668 703 b 640 615 638 649 636 632 l 622 624 b 432 744 576 739 494 763 b 286 569 346 718 317 639 b 317 238 229 440 299 301 b 281 115 329 193 307 144 b 128 61 246 78 154 15 b 192 108 118 78 158 96 b 281 214 246 128 286 175 b 211 404 272 272 232 350 b 215 496 228 429 238 465 b 278 621 243 543 268 550 b 115 763 289 706 206 794 b 33 568 -10 718 1 638 b 1 493 18 553 6 529 b 14 394 -1 463 -7 418 b 88 358 31 375 53 347 b 146 378 100 363 126 372 b 206 218 172 326 207 258 b 51 68 203 161 35 139 b 333 69 78 -46 264 -15 b 385 242 371 115 406 174 b 351 496 369 290 343 394 b 415 639 356 546 371 588 b 518 622 447 676 497 651 b 415 440 451 597 399 529 b 492 283 429 368 497 338 b 635 143 479 158 576 139 b 732 247 671 146 729 186 b 714 519 738 358 736 454 b 700 553 710 532 706 543 b 711 554 703 553 707 553 b 865 536 754 568 797 578 b 814 229 939 490 836 360 b 719 100 806 181 713 214 b 842 -35 725 14 797 -25 b 1028 -1 888 -44 997 -35 b 1067 128 1057 31 1074 86 z m 169 676 b 204 626 188 646 204 686 b 165 550 204 597 192 567 b 94 646 153 542 94 575 b 169 676 94 657 144 719 z m 650 289 b 599 222 643 219 621 218 b 553 311 575 226 554 246 b 503 458 551 394 515 390 b 574 543 490 528 535 543 b 653 486 611 543 638 514 b 650 289 667 461 654 328 z m 929 43 b 846 26 901 47 874 19 b 801 97 817 33 801 71 b 872 160 801 122 821 151 b 996 99 913 167 990 143 b 929 43 1001 53 964 38 z "},"n":{"ha":846,"x_min":0,"x_max":0,"o":"m 803 142 b 722 231 796 183 769 210 b 646 263 675 251 656 240 b 693 446 632 293 676 401 b 792 599 725 531 788 522 b 649 722 796 675 694 717 b 583 689 625 725 600 710 b 432 689 536 707 472 701 b 317 528 346 663 329 597 b 357 256 299 424 339 332 b 318 92 379 160 343 121 b 193 57 285 53 213 28 b 243 97 179 78 207 94 b 322 210 306 101 319 171 b 274 374 325 249 317 303 l 239 432 b 250 513 254 453 263 485 b 306 649 271 521 293 553 b 143 790 317 733 233 822 b 63 590 15 744 29 663 b 29 521 47 583 33 567 b 42 422 26 490 24 449 b 115 386 58 397 81 375 b 157 400 125 389 142 396 b 257 214 185 374 243 304 b 103 64 267 157 86 135 b 396 57 129 -50 342 -43 b 436 238 417 97 457 169 b 415 339 422 282 375 351 b 501 288 454 326 458 288 b 572 446 560 288 510 356 b 432 458 600 486 528 650 b 389 492 397 389 381 458 b 464 618 401 542 413 606 b 619 468 557 640 629 610 b 550 243 610 407 572 374 b 456 114 542 194 449 228 b 578 -21 461 28 533 -11 b 764 13 624 -31 733 -21 b 803 142 793 44 810 100 z m 197 704 b 232 654 215 674 232 714 b 206 588 232 631 224 606 b 138 615 189 611 167 629 b 122 674 129 631 122 650 b 197 704 122 685 172 747 z m 665 57 b 582 40 638 61 610 33 b 538 111 553 47 538 85 b 608 174 538 136 557 165 b 732 113 649 181 726 157 b 665 57 738 67 700 51 z "},"ñ":{"ha":846,"x_min":0,"x_max":0,"o":"m 200 839 b 231 831 207 832 218 810 b 293 964 240 847 288 915 b 332 936 294 976 318 989 b 360 835 339 908 336 858 b 499 821 401 793 457 776 b 572 950 532 856 572 901 b 556 1038 572 1001 571 1013 b 521 1038 542 1061 532 1038 b 481 1033 506 1038 478 1060 b 497 946 482 1021 510 982 b 403 908 475 881 417 842 b 378 999 396 942 389 976 b 278 1047 354 1046 317 1054 b 222 969 249 1042 222 1010 b 179 872 222 924 189 882 b 200 839 147 840 192 847 z m 803 142 b 722 231 796 183 769 210 b 646 263 675 251 656 240 b 693 446 632 293 676 401 b 792 599 725 531 788 522 b 649 722 796 675 694 717 b 583 689 625 725 600 710 b 432 689 536 707 472 701 b 317 528 346 663 329 597 b 357 256 299 424 339 332 b 318 92 379 160 343 121 b 193 57 285 53 213 28 b 243 97 179 78 207 94 b 322 210 306 101 319 171 b 274 374 325 249 317 303 l 239 432 b 250 513 254 453 263 485 b 306 649 271 521 293 553 b 143 790 317 733 233 822 b 63 590 15 744 29 663 b 29 521 47 583 33 567 b 42 422 26 490 24 449 b 115 386 58 397 81 375 b 157 400 125 389 142 396 b 257 214 185 374 243 304 b 103 64 267 157 86 135 b 396 57 129 -50 342 -43 b 436 238 417 97 457 169 b 415 339 422 282 375 351 b 501 288 454 326 458 288 b 572 446 560 288 510 356 b 432 458 600 486 528 650 b 389 492 397 389 381 458 b 464 618 401 542 413 606 b 619 468 557 640 629 610 b 550 243 610 407 572 374 b 456 114 542 194 449 228 b 578 -21 461 28 533 -11 b 764 13 624 -31 733 -21 b 803 142 793 44 810 100 z m 197 704 b 232 654 215 674 232 714 b 206 588 232 631 224 606 b 138 615 189 611 167 629 b 122 674 129 631 122 650 b 197 704 122 685 172 747 z m 665 57 b 582 40 638 61 610 33 b 538 111 553 47 538 85 b 608 174 538 136 557 165 b 732 113 649 181 726 157 b 665 57 738 67 700 51 z "},"o":{"ha":756,"x_min":0,"x_max":0,"o":"m 728 479 b 618 674 728 560 669 642 b 428 693 575 700 494 714 b 371 675 407 686 388 682 b 250 657 339 685 296 685 b 44 501 185 617 72 604 b 33 275 17 399 31 336 b 382 15 42 93 197 10 b 531 72 429 17 496 50 b 674 242 600 117 650 188 b 693 340 697 275 694 326 b 690 375 692 353 692 364 b 728 479 724 386 728 425 z m 515 642 b 643 543 581 642 622 597 b 646 471 658 503 667 475 b 535 579 604 463 604 539 b 433 601 479 611 454 568 b 515 642 421 622 457 642 z m 522 154 b 369 110 486 131 417 110 b 99 357 238 110 104 154 b 163 308 97 400 176 368 b 240 231 150 254 201 231 b 357 342 282 231 336 278 b 288 517 382 418 340 497 b 178 449 243 533 150 504 b 131 432 189 426 139 413 b 188 549 122 451 139 513 b 315 610 236 585 288 606 b 336 613 322 611 329 611 b 410 531 339 564 358 540 b 549 483 465 519 488 564 b 561 464 553 478 557 471 b 535 443 550 461 540 454 b 518 386 528 428 521 407 b 467 365 499 385 478 382 b 450 289 456 347 449 317 b 475 213 451 265 464 229 b 540 176 490 189 514 175 l 549 176 b 522 154 542 169 533 161 z "},"ó":{"ha":756,"x_min":0,"x_max":0,"o":"m 254 764 b 419 818 296 764 368 786 b 532 922 457 842 518 906 b 506 951 551 944 519 942 b 453 954 488 964 488 990 b 258 844 411 910 333 828 b 257 800 239 849 257 815 b 254 764 257 785 217 764 z m 728 479 b 618 674 728 560 669 642 b 428 693 575 700 494 714 b 371 675 407 686 388 682 b 250 657 339 685 296 685 b 44 501 185 617 72 604 b 33 275 17 399 31 336 b 382 15 42 93 197 10 b 531 72 429 17 496 50 b 674 242 600 117 650 188 b 693 340 697 275 694 326 b 690 375 692 353 692 364 b 728 479 724 386 728 425 z m 515 642 b 643 543 581 642 622 597 b 646 471 658 503 667 475 b 535 579 604 463 604 539 b 433 601 479 611 454 568 b 515 642 421 622 457 642 z m 522 154 b 369 110 486 131 417 110 b 99 357 238 110 104 154 b 163 308 97 400 176 368 b 240 231 150 254 201 231 b 357 342 282 231 336 278 b 288 517 382 418 340 497 b 178 449 243 533 150 504 b 131 432 189 426 139 413 b 188 549 122 451 139 513 b 315 610 236 585 288 606 b 336 613 322 611 329 611 b 410 531 339 564 358 540 b 549 483 465 519 488 564 b 561 464 553 478 557 471 b 535 443 550 461 540 454 b 518 386 528 428 521 407 b 467 365 499 385 478 382 b 450 289 456 347 449 317 b 475 213 451 265 464 229 b 540 176 490 189 514 175 l 549 176 b 522 154 542 169 533 161 z "},"ô":{"ha":756,"x_min":0,"x_max":0,"o":"m 132 765 b 274 865 171 776 233 819 b 342 964 303 899 335 943 b 386 854 347 943 361 890 b 514 738 419 806 476 756 b 536 771 549 721 529 757 b 543 811 543 785 563 807 b 411 993 468 828 431 935 b 354 1031 389 1056 368 1029 b 281 1001 340 1032 326 1060 b 113 843 254 968 189 843 b 124 800 93 843 119 815 b 132 765 128 785 96 756 z m 728 479 b 618 674 728 560 669 642 b 428 693 575 700 494 714 b 371 675 407 686 388 682 b 250 657 339 685 296 685 b 44 501 185 617 72 604 b 33 275 17 399 31 336 b 382 15 42 93 197 10 b 531 72 429 17 496 50 b 674 242 600 117 650 188 b 693 340 697 275 694 326 b 690 375 692 353 692 364 b 728 479 724 386 728 425 z m 515 642 b 643 543 581 642 622 597 b 646 471 658 503 667 475 b 535 579 604 463 604 539 b 433 601 479 611 454 568 b 515 642 421 622 457 642 z m 522 154 b 369 110 486 131 417 110 b 99 357 238 110 104 154 b 163 308 97 400 176 368 b 240 231 150 254 201 231 b 357 342 282 231 336 278 b 288 517 382 418 340 497 b 178 449 243 533 150 504 b 131 432 189 426 139 413 b 188 549 122 451 139 513 b 315 610 236 585 288 606 b 336 613 322 611 329 611 b 410 531 339 564 358 540 b 549 483 465 519 488 564 b 561 464 553 478 557 471 b 535 443 550 461 540 454 b 518 386 528 428 521 407 b 467 365 499 385 478 382 b 450 289 456 347 449 317 b 475 213 451 265 464 229 b 540 176 490 189 514 175 l 549 176 b 522 154 542 169 533 161 z "},"ö":{"ha":756,"x_min":0,"x_max":0,"o":"m 485 807 b 543 857 518 807 543 835 b 485 922 543 881 518 921 b 422 868 454 924 422 892 b 485 807 422 846 454 807 z m 214 825 b 300 821 229 810 275 799 b 311 906 321 843 326 890 b 217 903 296 921 240 925 b 214 825 194 879 197 840 z m 728 479 b 618 674 728 560 669 642 b 428 693 575 700 494 714 b 371 675 407 686 388 682 b 250 657 339 685 296 685 b 44 501 185 617 72 604 b 33 275 17 399 31 336 b 382 15 42 93 197 10 b 531 72 429 17 496 50 b 674 242 600 117 650 188 b 693 340 697 275 694 326 b 690 375 692 353 692 364 b 728 479 724 386 728 425 z m 515 642 b 643 543 581 642 622 597 b 646 471 658 503 667 475 b 535 579 604 463 604 539 b 433 601 479 611 454 568 b 515 642 421 622 457 642 z m 522 154 b 369 110 486 131 417 110 b 99 357 238 110 104 154 b 163 308 97 400 176 368 b 240 231 150 254 201 231 b 357 342 282 231 336 278 b 288 517 382 418 340 497 b 178 449 243 533 150 504 b 131 432 189 426 139 413 b 188 549 122 451 139 513 b 315 610 236 585 288 606 b 336 613 322 611 329 611 b 410 531 339 564 358 540 b 549 483 465 519 488 564 b 561 464 553 478 557 471 b 535 443 550 461 540 454 b 518 386 528 428 521 407 b 467 365 499 385 478 382 b 450 289 456 347 449 317 b 475 213 451 265 464 229 b 540 176 490 189 514 175 l 549 176 b 522 154 542 169 533 161 z "},"ò":{"ha":756,"x_min":0,"x_max":0,"o":"m 336 818 b 501 764 388 786 460 764 b 499 800 539 764 499 785 b 497 844 499 815 517 849 b 303 954 422 828 344 910 b 250 951 268 990 268 964 b 224 922 236 942 204 944 b 336 818 238 906 299 842 z m 728 479 b 618 674 728 560 669 642 b 428 693 575 700 494 714 b 371 675 407 686 388 682 b 250 657 339 685 296 685 b 44 501 185 617 72 604 b 33 275 17 399 31 336 b 382 15 42 93 197 10 b 531 72 429 17 496 50 b 674 242 600 117 650 188 b 693 340 697 275 694 326 b 690 375 692 353 692 364 b 728 479 724 386 728 425 z m 515 642 b 643 543 581 642 622 597 b 646 471 658 503 667 475 b 535 579 604 463 604 539 b 433 601 479 611 454 568 b 515 642 421 622 457 642 z m 522 154 b 369 110 486 131 417 110 b 99 357 238 110 104 154 b 163 308 97 400 176 368 b 240 231 150 254 201 231 b 357 342 282 231 336 278 b 288 517 382 418 340 497 b 178 449 243 533 150 504 b 131 432 189 426 139 413 b 188 549 122 451 139 513 b 315 610 236 585 288 606 b 336 613 322 611 329 611 b 410 531 339 564 358 540 b 549 483 465 519 488 564 b 561 464 553 478 557 471 b 535 443 550 461 540 454 b 518 386 528 428 521 407 b 467 365 499 385 478 382 b 450 289 456 347 449 317 b 475 213 451 265 464 229 b 540 176 490 189 514 175 l 549 176 b 522 154 542 169 533 161 z "},"ø":{"ha":833,"x_min":0,"x_max":0,"o":"m 157 611 b 453 694 239 678 311 694 b 515 731 500 694 543 693 b 572 818 488 768 506 825 b 686 744 639 811 668 776 b 635 656 728 671 692 599 b 650 621 621 669 607 651 b 774 450 693 590 767 528 b 738 215 781 372 786 296 b 529 28 689 135 660 79 b 361 13 476 7 389 3 b 275 -7 333 22 281 33 b 215 -60 269 -47 282 -100 b 138 25 149 -19 100 -3 b 179 93 175 53 219 60 b 46 354 139 126 32 222 b 157 611 60 486 88 554 z m 211 168 b 269 203 233 157 257 167 b 374 354 283 242 353 326 b 371 385 394 382 390 399 b 331 399 351 371 340 365 b 361 510 321 432 331 467 b 450 517 392 553 421 542 b 488 578 479 492 489 557 b 219 543 482 651 294 599 b 138 354 178 513 138 425 b 211 168 138 283 167 190 z m 626 524 b 513 449 593 572 579 546 b 535 417 472 390 513 392 b 624 339 597 485 628 390 b 550 218 619 288 572 233 b 478 274 528 203 453 203 b 424 261 486 297 476 343 b 367 154 411 240 382 196 b 433 97 351 113 353 100 b 683 322 586 92 665 232 b 626 524 703 419 649 492 z "},"õ":{"ha":756,"x_min":0,"x_max":0,"o":"m 192 790 b 222 782 199 783 210 761 b 285 915 232 799 279 867 b 324 888 286 928 310 940 b 351 786 331 860 328 810 b 490 772 393 744 449 728 b 564 901 524 807 564 853 b 547 989 564 953 563 964 b 513 989 533 1013 524 989 b 472 985 497 989 469 1011 b 489 897 474 972 501 933 b 394 860 467 832 408 793 b 369 950 388 893 381 928 b 269 999 346 997 308 1006 b 214 921 240 993 214 961 b 171 824 214 875 181 833 b 192 790 139 792 183 799 z m 728 479 b 618 674 728 560 669 642 b 428 693 575 700 494 714 b 371 675 407 686 388 682 b 250 657 339 685 296 685 b 44 501 185 617 72 604 b 33 275 17 399 31 336 b 382 15 42 93 197 10 b 531 72 429 17 496 50 b 674 242 600 117 650 188 b 693 340 697 275 694 326 b 690 375 692 353 692 364 b 728 479 724 386 728 425 z m 515 642 b 643 543 581 642 622 597 b 646 471 658 503 667 475 b 535 579 604 463 604 539 b 433 601 479 611 454 568 b 515 642 421 622 457 642 z m 522 154 b 369 110 486 131 417 110 b 99 357 238 110 104 154 b 163 308 97 400 176 368 b 240 231 150 254 201 231 b 357 342 282 231 336 278 b 288 517 382 418 340 497 b 178 449 243 533 150 504 b 131 432 189 426 139 413 b 188 549 122 451 139 513 b 315 610 236 585 288 606 b 336 613 322 611 329 611 b 410 531 339 564 358 540 b 549 483 465 519 488 564 b 561 464 553 478 557 471 b 535 443 550 461 540 454 b 518 386 528 428 521 407 b 467 365 499 385 478 382 b 450 289 456 347 449 317 b 475 213 451 265 464 229 b 540 176 490 189 514 175 l 549 176 b 522 154 542 169 533 161 z "},"œ":{"ha":1215,"x_min":0,"x_max":0,"o":"m 1188 188 b 1149 243 1185 210 1174 238 b 1071 233 1128 247 1097 243 b 1007 183 1049 225 1019 200 b 996 110 990 161 985 135 b 1038 65 1007 86 1021 72 b 849 144 1006 -28 918 104 b 688 197 786 181 683 115 b 692 228 688 208 689 219 b 700 247 696 235 697 240 b 760 275 711 267 731 275 b 1063 271 846 226 975 204 b 1172 425 1115 311 1165 376 b 1081 613 1185 517 1139 560 b 754 654 1019 667 910 722 b 686 586 726 642 703 617 b 632 653 674 615 654 639 b 442 672 589 679 508 693 b 385 654 421 665 401 661 b 264 636 353 664 310 664 b 58 481 199 596 86 583 b 47 254 31 378 44 315 b 396 -6 56 72 211 -11 b 544 51 443 -4 510 29 b 611 107 569 67 592 86 b 793 46 650 64 728 81 b 990 -54 882 -3 928 -64 b 1129 74 1103 -36 1125 28 b 1188 188 1188 94 1196 118 z m 529 621 b 657 522 594 621 636 576 b 660 513 658 519 660 517 b 654 450 656 492 654 471 b 549 558 618 449 615 519 b 447 581 493 590 468 547 b 529 621 435 601 471 621 z m 808 589 b 844 554 904 606 924 561 b 828 440 794 550 707 464 b 933 386 864 433 888 383 b 943 497 1004 390 976 467 b 1022 540 901 535 951 603 b 971 322 1099 472 1082 393 b 742 394 932 297 774 313 b 808 589 710 476 731 575 z m 536 133 b 383 89 500 110 431 89 b 113 336 251 89 119 133 b 176 288 111 379 190 347 b 254 210 164 233 215 210 b 371 321 296 210 350 257 b 301 496 396 397 354 476 b 192 428 257 513 164 483 b 144 411 203 406 153 392 b 201 528 136 431 153 492 b 329 589 250 564 301 585 b 350 592 336 590 343 590 b 424 510 353 543 372 519 b 563 463 479 499 501 543 b 575 443 567 457 571 450 b 549 422 564 440 554 433 b 532 365 542 407 535 386 b 481 344 513 364 492 361 b 464 268 469 326 463 296 b 489 192 465 244 478 208 b 554 156 504 168 528 154 l 563 156 b 536 133 556 149 547 140 z m 1139 136 b 1078 111 1135 121 1094 104 b 1057 157 1058 119 1051 143 b 1107 185 1063 171 1089 193 b 1139 136 1124 178 1143 151 z "},"p":{"ha":657,"x_min":0,"x_max":0,"o":"m 550 456 b 397 714 653 553 579 758 b 160 579 329 697 247 646 b 151 658 154 615 151 644 b 94 663 151 714 122 663 b 58 643 81 663 44 697 b 96 460 68 606 85 506 l 117 375 b 61 207 86 328 61 268 b 140 4 68 113 131 65 b 94 -146 153 -78 118 -106 b 169 -282 58 -208 121 -285 b 276 -108 232 -278 285 -199 b 181 79 269 -32 197 60 b 136 179 167 94 146 146 b 168 147 143 167 154 156 b 497 140 311 57 428 96 b 615 313 563 182 613 219 b 550 456 617 353 588 411 z m 238 533 b 403 646 269 558 374 643 b 494 611 433 649 472 640 b 463 504 517 581 526 531 b 311 465 399 478 381 508 b 213 456 257 432 229 438 b 238 533 197 472 186 493 z m 450 219 b 378 275 372 167 331 243 b 385 386 415 300 453 372 b 272 347 339 396 308 349 b 272 232 149 343 222 244 b 231 204 349 213 324 174 b 193 374 175 222 185 318 b 321 400 226 358 269 360 b 450 413 354 426 399 410 b 450 219 524 319 524 269 z "},"þ":{"ha":657,"x_min":0,"x_max":0,"o":"m 550 456 b 397 714 653 553 579 758 b 160 579 329 697 247 646 b 151 658 154 615 151 644 b 94 663 151 714 122 663 b 58 643 81 663 44 697 b 96 460 68 606 85 506 l 117 375 b 61 207 86 328 61 268 b 140 4 68 113 131 65 b 94 -146 153 -78 118 -106 b 169 -282 58 -208 121 -285 b 276 -108 232 -278 285 -199 b 181 79 269 -32 197 60 b 136 179 167 94 146 146 b 168 147 143 167 154 156 b 497 140 311 57 428 96 b 615 313 563 182 613 219 b 550 456 617 353 588 411 z m 238 533 b 403 646 269 558 374 643 b 494 611 433 649 472 640 b 463 504 517 581 526 531 b 311 465 399 478 381 508 b 213 456 257 432 229 438 b 238 533 197 472 186 493 z m 450 219 b 378 275 372 167 331 243 b 385 386 415 300 453 372 b 272 347 339 396 308 349 b 272 232 149 343 222 244 b 231 204 349 213 324 174 b 193 374 175 222 185 318 b 321 400 226 358 269 360 b 450 413 354 426 399 410 b 450 219 524 319 524 269 z "},"q":{"ha":726,"x_min":0,"x_max":0,"o":"m 640 650 b 515 610 581 683 551 656 b 511 603 514 608 513 606 b 493 632 506 614 500 624 b 171 696 392 746 242 738 b 44 531 103 656 53 622 b 101 382 40 489 67 429 b 240 138 7 294 97 117 b 501 204 313 147 463 131 b 510 135 501 179 503 154 b 497 -8 521 100 528 39 b 433 -244 467 -56 433 -104 b 467 -264 433 -297 454 -262 b 513 -271 481 -265 497 -296 b 536 -96 528 -247 513 -183 b 592 75 553 -33 597 4 b 549 325 586 144 551 301 l 581 407 b 672 485 597 450 643 458 b 640 650 707 515 701 617 z m 213 614 b 282 556 294 663 331 585 b 271 444 243 532 204 464 b 385 478 315 432 349 478 b 392 593 507 478 439 579 b 433 607 315 615 374 685 b 496 421 456 579 518 521 b 333 428 461 457 406 481 b 203 421 299 403 254 422 b 213 614 135 519 138 569 z m 643 547 b 599 508 640 522 615 506 b 554 558 581 511 551 533 b 600 614 557 582 582 617 b 643 547 617 611 646 571 z m 424 250 b 240 207 390 226 268 208 b 157 254 208 206 175 221 b 186 331 149 269 121 306 b 340 361 253 356 268 321 b 439 367 396 392 424 386 b 424 250 453 349 478 289 z "},"r":{"ha":444,"x_min":0,"x_max":0,"o":"m 413 638 b 321 632 401 703 333 681 b 243 558 308 583 272 558 b 206 556 232 558 218 558 b 186 588 201 568 194 579 b 133 704 150 622 122 656 b 83 726 144 753 99 725 b 32 726 68 728 39 772 b 94 539 25 681 18 615 b 72 365 171 463 106 424 b 76 111 36 301 47 185 b 60 93 69 106 64 99 b 49 19 43 71 38 44 b 175 -19 83 -57 158 -25 b 244 94 240 3 269 26 b 201 153 236 117 226 147 b 146 150 186 156 167 154 l 131 217 b 182 389 108 310 142 301 b 197 429 189 403 193 417 b 351 457 240 411 313 429 b 413 638 410 500 424 572 z m 367 549 b 261 469 357 510 297 474 b 249 504 225 465 218 500 b 340 571 289 510 317 544 b 367 549 365 599 374 578 z m 160 94 b 192 46 176 88 196 61 b 131 21 188 31 149 14 b 110 67 111 28 104 53 b 160 94 115 81 142 103 z "},"s":{"ha":686,"x_min":0,"x_max":0,"o":"m 104 388 b 178 697 46 517 83 656 b 504 656 333 765 443 710 b 571 571 536 626 558 596 b 593 569 579 571 586 571 b 636 511 618 564 628 533 b 567 397 661 443 632 419 b 440 436 550 392 475 360 b 451 510 429 461 435 488 b 479 538 457 518 468 528 b 446 603 475 561 467 585 b 367 540 375 665 325 578 b 357 429 400 510 428 433 b 251 483 311 426 288 476 b 268 597 131 507 218 593 b 232 651 347 604 321 693 b 183 433 154 615 143 513 b 392 360 217 368 283 368 b 536 275 447 356 504 335 b 546 81 567 219 557 139 b 446 -19 533 14 500 -15 b 172 -1 333 -28 238 -24 b 207 256 -32 68 24 290 b 379 229 279 242 325 222 b 443 242 425 235 464 215 b 240 285 396 299 331 265 b 104 388 175 299 122 346 z m 501 483 b 522 438 496 469 503 446 b 583 463 539 431 579 447 b 551 511 588 478 568 504 b 501 483 533 519 507 497 z m 118 146 b 207 60 117 107 160 86 b 425 43 271 24 383 26 b 486 115 485 67 490 93 b 379 160 482 138 443 171 b 204 190 296 146 260 164 b 118 146 157 213 119 182 z "},"ß":{"ha":840,"x_min":0,"x_max":0,"o":"m 764 511 b 656 563 738 533 697 551 b 436 671 635 625 549 721 b 415 694 392 651 381 674 b 564 847 496 742 524 775 b 575 851 569 849 572 850 b 644 965 640 874 669 897 b 601 1024 636 988 626 1018 b 524 1014 581 1028 550 1024 b 460 965 501 1006 474 982 b 235 928 413 971 313 958 b 106 751 146 893 106 822 b 149 578 106 658 151 658 b 135 211 146 493 151 315 b 72 144 131 186 93 160 b 35 85 50 131 33 110 b 92 19 36 38 49 39 b 192 -15 135 0 163 -31 b 249 117 221 0 274 65 b 208 160 239 136 225 150 l 218 222 b 288 275 225 265 224 300 b 372 193 315 264 326 226 b 469 256 407 168 494 193 b 468 386 447 311 456 353 b 388 469 497 464 454 482 b 275 361 321 457 293 406 b 221 390 257 317 231 340 b 225 581 211 440 225 528 b 192 746 225 639 196 671 b 450 886 188 828 289 882 b 483 850 460 868 471 857 b 383 747 472 804 428 775 b 304 622 336 718 283 657 b 424 578 325 588 381 561 b 553 572 461 592 521 611 b 519 563 539 571 526 568 b 553 482 496 546 511 499 b 642 347 594 465 643 400 b 594 211 640 294 658 242 b 471 122 531 181 478 157 b 549 17 464 88 472 10 b 797 222 625 24 778 121 b 764 511 817 324 828 457 z m 510 938 b 560 965 515 951 542 974 b 592 917 576 958 596 932 b 531 892 588 901 547 885 b 510 938 511 900 504 924 z m 713 188 b 617 114 692 160 642 126 b 600 140 583 97 575 119 b 692 226 614 153 671 176 b 685 410 713 275 701 344 b 682 488 671 464 653 482 b 753 410 704 492 742 472 b 713 188 764 347 764 256 z "},"t":{"ha":513,"x_min":0,"x_max":0,"o":"m 454 726 b 436 772 447 742 467 774 b 300 786 406 771 364 710 b 257 925 257 838 258 878 b 208 946 256 972 225 943 b 163 926 192 949 163 996 b 171 838 163 910 157 897 b 200 781 176 815 188 797 b 36 769 151 811 89 800 b 42 642 -19 738 -6 653 b 168 603 89 631 150 650 b 186 414 186 556 197 464 b 140 85 161 300 133 186 b 240 -25 144 14 204 -18 b 392 1 276 -33 367 -25 b 422 107 415 28 428 72 b 357 179 417 140 396 163 b 278 197 335 189 307 201 b 264 417 165 190 265 281 b 268 640 264 481 258 575 b 265 700 271 663 271 682 b 294 679 272 693 282 686 b 467 678 367 639 433 665 b 454 726 500 690 463 707 z m 181 660 b 100 696 167 682 144 700 b 104 750 56 692 63 744 b 210 704 163 758 200 736 b 181 660 219 672 192 642 z m 365 83 b 311 38 369 46 339 33 b 243 24 289 42 265 18 b 207 82 219 31 207 60 b 264 133 207 103 222 126 b 365 83 297 139 361 119 z "},"u":{"ha":828,"x_min":0,"x_max":0,"o":"m 783 240 b 771 339 786 271 792 315 b 697 375 754 358 732 386 b 636 356 685 371 657 360 b 579 497 611 400 578 458 b 733 665 582 564 760 543 b 567 747 718 736 622 760 b 400 492 465 724 372 581 b 421 390 414 447 461 378 b 335 442 382 403 378 442 b 264 283 276 442 326 374 b 404 271 236 243 308 79 b 447 238 439 340 456 271 b 361 83 435 188 407 131 b 242 71 324 44 275 51 b 233 110 244 86 242 100 b 178 256 201 146 183 175 b 158 581 168 399 161 493 b 181 706 157 625 176 661 b 149 713 182 722 161 701 b 103 725 136 724 107 739 b 88 596 89 681 92 644 b 94 274 76 471 111 408 b 14 115 83 182 13 192 b 165 0 15 39 118 3 b 207 15 179 -1 194 6 b 353 -11 239 -11 304 -25 b 507 161 439 15 476 92 b 485 497 564 290 506 435 b 504 618 474 531 492 588 b 639 654 528 678 635 708 b 604 614 640 636 640 617 b 504 519 542 610 499 558 b 579 336 513 460 558 390 b 569 238 558 313 546 271 b 507 113 542 192 517 183 b 669 -29 496 28 579 -61 b 751 165 794 15 783 96 b 783 240 767 181 779 204 z m 615 57 b 581 107 597 88 581 47 b 619 183 581 136 593 167 b 690 88 632 192 690 158 b 615 57 690 76 640 14 z "},"ú":{"ha":828,"x_min":0,"x_max":0,"o":"m 300 764 b 465 818 342 764 414 786 b 578 922 503 842 564 906 b 551 951 597 944 565 942 b 499 954 533 964 533 990 b 304 844 457 910 379 828 b 303 800 285 849 303 815 b 300 764 303 785 263 764 z m 783 240 b 771 339 786 271 792 315 b 697 375 754 358 732 386 b 636 356 685 371 657 360 b 579 497 611 400 578 458 b 733 665 582 564 760 543 b 567 747 718 736 622 760 b 400 492 465 724 372 581 b 421 390 414 447 461 378 b 335 442 382 403 378 442 b 264 283 276 442 326 374 b 404 271 236 243 308 79 b 447 238 439 340 456 271 b 361 83 435 188 407 131 b 242 71 324 44 275 51 b 233 110 244 86 242 100 b 178 256 201 146 183 175 b 158 581 168 399 161 493 b 181 706 157 625 176 661 b 149 713 182 722 161 701 b 103 725 136 724 107 739 b 88 596 89 681 92 644 b 94 274 76 471 111 408 b 14 115 83 182 13 192 b 165 0 15 39 118 3 b 207 15 179 -1 194 6 b 353 -11 239 -11 304 -25 b 507 161 439 15 476 92 b 485 497 564 290 506 435 b 504 618 474 531 492 588 b 639 654 528 678 635 708 b 604 614 640 636 640 617 b 504 519 542 610 499 558 b 579 336 513 460 558 390 b 569 238 558 313 546 271 b 507 113 542 192 517 183 b 669 -29 496 28 579 -61 b 751 165 794 15 783 96 b 783 240 767 181 779 204 z m 615 57 b 581 107 597 88 581 47 b 619 183 581 136 593 167 b 690 88 632 192 690 158 b 615 57 690 76 640 14 z "},"û":{"ha":828,"x_min":0,"x_max":0,"o":"m 176 821 b 318 921 215 832 278 875 b 386 1019 347 954 379 999 b 431 910 392 999 406 946 b 558 793 464 861 521 811 b 581 826 593 776 574 813 b 588 867 588 840 607 863 b 456 1049 513 883 475 990 b 399 1086 433 1111 413 1085 b 325 1057 385 1088 371 1115 b 157 899 299 1024 233 899 b 168 856 138 899 164 871 b 176 821 172 840 140 811 z m 783 240 b 771 339 786 271 792 315 b 697 375 754 358 732 386 b 636 356 685 371 657 360 b 579 497 611 400 578 458 b 733 665 582 564 760 543 b 567 747 718 736 622 760 b 400 492 465 724 372 581 b 421 390 414 447 461 378 b 335 442 382 403 378 442 b 264 283 276 442 326 374 b 404 271 236 243 308 79 b 447 238 439 340 456 271 b 361 83 435 188 407 131 b 242 71 324 44 275 51 b 233 110 244 86 242 100 b 178 256 201 146 183 175 b 158 581 168 399 161 493 b 181 706 157 625 176 661 b 149 713 182 722 161 701 b 103 725 136 724 107 739 b 88 596 89 681 92 644 b 94 274 76 471 111 408 b 14 115 83 182 13 192 b 165 0 15 39 118 3 b 207 15 179 -1 194 6 b 353 -11 239 -11 304 -25 b 507 161 439 15 476 92 b 485 497 564 290 506 435 b 504 618 474 531 492 588 b 639 654 528 678 635 708 b 604 614 640 636 640 617 b 504 519 542 610 499 558 b 579 336 513 460 558 390 b 569 238 558 313 546 271 b 507 113 542 192 517 183 b 669 -29 496 28 579 -61 b 751 165 794 15 783 96 b 783 240 767 181 779 204 z m 615 57 b 581 107 597 88 581 47 b 619 183 581 136 593 167 b 690 88 632 192 690 158 b 615 57 690 76 640 14 z "},"ü":{"ha":828,"x_min":0,"x_max":0,"o":"m 524 807 b 582 857 557 807 582 835 b 524 922 582 881 557 921 b 461 868 493 924 461 892 b 524 807 461 846 493 807 z m 253 825 b 339 821 268 810 314 799 b 350 906 360 843 365 890 b 256 903 335 921 279 925 b 253 825 233 879 236 840 z m 783 240 b 771 339 786 271 792 315 b 697 375 754 358 732 386 b 636 356 685 371 657 360 b 579 497 611 400 578 458 b 733 665 582 564 760 543 b 567 747 718 736 622 760 b 400 492 465 724 372 581 b 421 390 414 447 461 378 b 335 442 382 403 378 442 b 264 283 276 442 326 374 b 404 271 236 243 308 79 b 447 238 439 340 456 271 b 361 83 435 188 407 131 b 242 71 324 44 275 51 b 233 110 244 86 242 100 b 178 256 201 146 183 175 b 158 581 168 399 161 493 b 181 706 157 625 176 661 b 149 713 182 722 161 701 b 103 725 136 724 107 739 b 88 596 89 681 92 644 b 94 274 76 471 111 408 b 14 115 83 182 13 192 b 165 0 15 39 118 3 b 207 15 179 -1 194 6 b 353 -11 239 -11 304 -25 b 507 161 439 15 476 92 b 485 497 564 290 506 435 b 504 618 474 531 492 588 b 639 654 528 678 635 708 b 604 614 640 636 640 617 b 504 519 542 610 499 558 b 579 336 513 460 558 390 b 569 238 558 313 546 271 b 507 113 542 192 517 183 b 669 -29 496 28 579 -61 b 751 165 794 15 783 96 b 783 240 767 181 779 204 z m 615 57 b 581 107 597 88 581 47 b 619 183 581 136 593 167 b 690 88 632 192 690 158 b 615 57 690 76 640 14 z "},"ù":{"ha":828,"x_min":0,"x_max":0,"o":"m 375 860 b 540 806 426 828 499 806 b 538 842 578 806 538 826 b 536 886 538 857 556 890 b 342 996 461 869 383 951 b 289 993 307 1032 307 1006 b 263 964 275 983 243 986 b 375 860 276 947 338 883 z m 783 240 b 771 339 786 271 792 315 b 697 375 754 358 732 386 b 636 356 685 371 657 360 b 579 497 611 400 578 458 b 733 665 582 564 760 543 b 567 747 718 736 622 760 b 400 492 465 724 372 581 b 421 390 414 447 461 378 b 335 442 382 403 378 442 b 264 283 276 442 326 374 b 404 271 236 243 308 79 b 447 238 439 340 456 271 b 361 83 435 188 407 131 b 242 71 324 44 275 51 b 233 110 244 86 242 100 b 178 256 201 146 183 175 b 158 581 168 399 161 493 b 181 706 157 625 176 661 b 149 713 182 722 161 701 b 103 725 136 724 107 739 b 88 596 89 681 92 644 b 94 274 76 471 111 408 b 14 115 83 182 13 192 b 165 0 15 39 118 3 b 207 15 179 -1 194 6 b 353 -11 239 -11 304 -25 b 507 161 439 15 476 92 b 485 497 564 290 506 435 b 504 618 474 531 492 588 b 639 654 528 678 635 708 b 604 614 640 636 640 617 b 504 519 542 610 499 558 b 579 336 513 460 558 390 b 569 238 558 313 546 271 b 507 113 542 192 517 183 b 669 -29 496 28 579 -61 b 751 165 794 15 783 96 b 783 240 767 181 779 204 z m 615 57 b 581 107 597 88 581 47 b 619 183 581 136 593 167 b 690 88 632 192 690 158 b 615 57 690 76 640 14 z "},"v":{"ha":656,"x_min":0,"x_max":0,"o":"m 590 715 b 513 743 574 726 536 740 b 431 725 483 746 450 738 b 408 653 407 713 408 678 b 417 604 408 632 411 617 b 350 476 372 564 314 514 b 451 368 389 435 422 422 b 469 278 478 319 479 293 b 431 279 443 233 393 257 b 368 353 467 301 422 346 b 274 272 313 361 282 328 b 333 203 267 217 311 175 b 354 150 357 231 371 200 b 281 81 339 101 329 71 b 186 269 256 86 196 139 b 221 364 214 288 224 321 b 231 517 215 422 167 432 b 314 632 257 551 315 583 b 183 699 311 725 261 721 b 18 535 101 675 35 596 b 51 335 3 483 28 418 b 113 260 63 296 82 268 b 140 136 115 224 126 176 b 329 -4 172 44 236 -8 b 486 199 449 1 369 135 b 521 418 563 242 581 347 b 450 524 468 479 433 490 b 485 567 460 540 471 556 b 517 565 494 565 506 565 b 629 646 535 565 624 557 b 590 715 631 674 615 699 z m 79 438 b 143 596 61 504 93 558 b 214 619 178 622 204 639 b 138 476 235 579 157 557 b 142 367 121 410 169 399 b 79 438 125 347 94 378 z "},"w":{"ha":885,"x_min":0,"x_max":0,"o":"m 804 668 b 767 675 788 674 774 714 b 704 483 761 629 683 551 b 751 235 719 435 768 303 b 672 81 739 186 718 128 b 567 104 618 24 585 68 b 681 290 639 125 699 197 b 604 447 667 363 599 393 b 461 588 617 572 519 592 b 364 483 425 585 367 544 b 382 211 358 372 360 276 b 396 179 386 200 390 189 l 385 176 b 231 194 342 163 299 153 b 282 501 157 240 260 371 b 376 631 290 550 383 517 b 254 765 371 717 299 756 b 68 732 208 775 99 765 b 29 603 39 700 22 644 b 110 514 36 561 63 535 b 186 482 157 493 176 504 b 179 136 200 451 39 232 b 281 -17 253 86 213 19 b 467 81 349 -53 443 40 b 475 103 471 88 474 94 b 664 -14 522 -8 603 -32 b 810 161 750 13 779 92 b 779 493 867 290 800 431 b 842 644 768 526 832 614 b 804 668 849 664 818 664 z m 100 632 b 167 688 94 678 132 693 b 250 704 194 683 222 711 b 294 633 279 697 294 660 b 224 571 294 608 275 579 b 100 632 183 564 106 588 z m 446 442 b 497 508 453 511 475 513 b 543 419 521 504 542 485 b 593 272 544 336 581 340 b 522 188 606 203 561 188 b 443 244 485 188 458 217 b 446 442 429 269 442 403 z "},"ẃ":{"ha":885,"x_min":0,"x_max":0,"o":"m 382 764 b 547 818 424 764 496 786 b 660 922 585 842 646 906 b 633 951 679 944 647 942 b 581 954 615 964 615 990 b 386 844 539 910 461 828 b 385 800 367 849 385 815 b 382 764 385 785 344 764 z m 804 668 b 767 675 788 674 774 714 b 704 483 761 629 683 551 b 751 235 719 435 768 303 b 672 81 739 186 718 128 b 567 104 618 24 585 68 b 681 290 639 125 699 197 b 604 447 667 363 599 393 b 461 588 617 572 519 592 b 364 483 425 585 367 544 b 382 211 358 372 360 276 b 396 179 386 200 390 189 l 385 176 b 231 194 342 163 299 153 b 282 501 157 240 260 371 b 376 631 290 550 383 517 b 254 765 371 717 299 756 b 68 732 208 775 99 765 b 29 603 39 700 22 644 b 110 514 36 561 63 535 b 186 482 157 493 176 504 b 179 136 200 451 39 232 b 281 -17 253 86 213 19 b 467 81 349 -53 443 40 b 475 103 471 88 474 94 b 664 -14 522 -8 603 -32 b 810 161 750 13 779 92 b 779 493 867 290 800 431 b 842 644 768 526 832 614 b 804 668 849 664 818 664 z m 100 632 b 167 688 94 678 132 693 b 250 704 194 683 222 711 b 294 633 279 697 294 660 b 224 571 294 608 275 579 b 100 632 183 564 106 588 z m 446 442 b 497 508 453 511 475 513 b 543 419 521 504 542 485 b 593 272 544 336 581 340 b 522 188 606 203 561 188 b 443 244 485 188 458 217 b 446 442 429 269 442 403 z "},"ŵ":{"ha":885,"x_min":0,"x_max":0,"o":"m 260 793 b 401 893 299 804 361 847 b 469 992 431 926 463 971 b 514 882 475 971 489 918 b 642 765 547 833 604 783 b 664 799 676 749 657 785 b 671 839 671 813 690 835 b 539 1021 596 856 558 963 b 482 1058 517 1083 496 1057 b 408 1029 468 1060 454 1088 b 240 871 382 996 317 871 b 251 828 221 871 247 843 b 260 793 256 813 224 783 z m 804 668 b 767 675 788 674 774 714 b 704 483 761 629 683 551 b 751 235 719 435 768 303 b 672 81 739 186 718 128 b 567 104 618 24 585 68 b 681 290 639 125 699 197 b 604 447 667 363 599 393 b 461 588 617 572 519 592 b 364 483 425 585 367 544 b 382 211 358 372 360 276 b 396 179 386 200 390 189 l 385 176 b 231 194 342 163 299 153 b 282 501 157 240 260 371 b 376 631 290 550 383 517 b 254 765 371 717 299 756 b 68 732 208 775 99 765 b 29 603 39 700 22 644 b 110 514 36 561 63 535 b 186 482 157 493 176 504 b 179 136 200 451 39 232 b 281 -17 253 86 213 19 b 467 81 349 -53 443 40 b 475 103 471 88 474 94 b 664 -14 522 -8 603 -32 b 810 161 750 13 779 92 b 779 493 867 290 800 431 b 842 644 768 526 832 614 b 804 668 849 664 818 664 z m 100 632 b 167 688 94 678 132 693 b 250 704 194 683 222 711 b 294 633 279 697 294 660 b 224 571 294 608 275 579 b 100 632 183 564 106 588 z m 446 442 b 497 508 453 511 475 513 b 543 419 521 504 542 485 b 593 272 544 336 581 340 b 522 188 606 203 561 188 b 443 244 485 188 458 217 b 446 442 429 269 442 403 z "},"ẅ":{"ha":885,"x_min":0,"x_max":0,"o":"m 524 807 b 582 857 557 807 582 835 b 524 922 582 881 557 921 b 461 868 493 924 461 892 b 524 807 461 846 493 807 z m 253 825 b 339 821 268 810 314 799 b 350 906 360 843 365 890 b 256 903 335 921 279 925 b 253 825 233 879 236 840 z m 804 668 b 767 675 788 674 774 714 b 704 483 761 629 683 551 b 751 235 719 435 768 303 b 672 81 739 186 718 128 b 567 104 618 24 585 68 b 681 290 639 125 699 197 b 604 447 667 363 599 393 b 461 588 617 572 519 592 b 364 483 425 585 367 544 b 382 211 358 372 360 276 b 396 179 386 200 390 189 l 385 176 b 231 194 342 163 299 153 b 282 501 157 240 260 371 b 376 631 290 550 383 517 b 254 765 371 717 299 756 b 68 732 208 775 99 765 b 29 603 39 700 22 644 b 110 514 36 561 63 535 b 186 482 157 493 176 504 b 179 136 200 451 39 232 b 281 -17 253 86 213 19 b 467 81 349 -53 443 40 b 475 103 471 88 474 94 b 664 -14 522 -8 603 -32 b 810 161 750 13 779 92 b 779 493 867 290 800 431 b 842 644 768 526 832 614 b 804 668 849 664 818 664 z m 100 632 b 167 688 94 678 132 693 b 250 704 194 683 222 711 b 294 633 279 697 294 660 b 224 571 294 608 275 579 b 100 632 183 564 106 588 z m 446 442 b 497 508 453 511 475 513 b 543 419 521 504 542 485 b 593 272 544 336 581 340 b 522 188 606 203 561 188 b 443 244 485 188 458 217 b 446 442 429 269 442 403 z "},"ẁ":{"ha":885,"x_min":0,"x_max":0,"o":"m 403 818 b 568 764 454 786 526 764 b 565 800 606 764 565 785 b 564 844 565 815 583 849 b 369 954 489 828 411 910 b 317 951 335 990 335 964 b 290 922 303 942 271 944 b 403 818 304 906 365 842 z m 804 668 b 767 675 788 674 774 714 b 704 483 761 629 683 551 b 751 235 719 435 768 303 b 672 81 739 186 718 128 b 567 104 618 24 585 68 b 681 290 639 125 699 197 b 604 447 667 363 599 393 b 461 588 617 572 519 592 b 364 483 425 585 367 544 b 382 211 358 372 360 276 b 396 179 386 200 390 189 l 385 176 b 231 194 342 163 299 153 b 282 501 157 240 260 371 b 376 631 290 550 383 517 b 254 765 371 717 299 756 b 68 732 208 775 99 765 b 29 603 39 700 22 644 b 110 514 36 561 63 535 b 186 482 157 493 176 504 b 179 136 200 451 39 232 b 281 -17 253 86 213 19 b 467 81 349 -53 443 40 b 475 103 471 88 474 94 b 664 -14 522 -8 603 -32 b 810 161 750 13 779 92 b 779 493 867 290 800 431 b 842 644 768 526 832 614 b 804 668 849 664 818 664 z m 100 632 b 167 688 94 678 132 693 b 250 704 194 683 222 711 b 294 633 279 697 294 660 b 224 571 294 608 275 579 b 100 632 183 564 106 588 z m 446 442 b 497 508 453 511 475 513 b 543 419 521 504 542 485 b 593 272 544 336 581 340 b 522 188 606 203 561 188 b 443 244 485 188 458 217 b 446 442 429 269 442 403 z "},"x":{"ha":753,"x_min":0,"x_max":0,"o":"m 700 657 b 490 676 676 718 568 731 b 461 493 413 622 463 517 b 360 390 460 469 389 457 b 299 458 344 356 324 425 b 222 539 279 483 250 511 b 238 610 236 563 244 589 b 106 663 224 654 174 694 b 60 506 38 631 38 542 b 163 474 83 469 131 457 b 267 358 196 438 218 407 b 254 222 332 293 306 268 b 69 56 183 160 100 101 b 117 14 47 22 104 28 b 176 -1 129 0 158 -25 b 217 81 194 22 181 39 b 356 214 253 122 315 174 b 435 358 440 296 406 289 b 579 458 453 401 521 439 b 700 657 690 496 738 563 z m 119 528 b 100 596 97 538 85 567 b 149 628 108 613 129 625 b 174 564 168 631 172 594 b 119 528 175 535 142 518 z m 488 304 b 438 213 432 307 397 249 b 518 56 478 176 499 135 b 636 29 538 -24 596 -10 b 642 213 676 68 660 154 b 488 304 624 271 571 300 z m 565 119 b 525 185 558 147 550 151 b 547 235 503 222 525 242 b 596 149 569 228 583 206 b 565 119 608 92 572 92 z "},"y":{"ha":754,"x_min":0,"x_max":0,"o":"m 739 628 b 711 644 729 643 722 629 b 704 674 703 656 715 665 b 638 607 689 685 658 640 b 618 638 625 588 625 617 b 486 690 603 682 554 722 b 440 533 418 658 418 569 b 528 496 460 503 497 489 l 428 396 b 400 365 418 386 410 375 b 399 446 401 386 400 413 b 347 633 396 526 378 593 b 144 724 311 682 224 731 b 50 621 68 717 22 703 b 164 546 65 576 131 568 b 226 413 249 489 211 467 b 338 278 242 358 275 278 b 322 175 357 278 331 225 b 304 -147 286 -42 347 -104 b 214 -132 289 -162 251 -142 l 214 -124 b 131 -21 214 -57 203 -21 b 61 -42 107 -21 75 -19 b 44 -118 50 -60 43 -90 b 69 -194 46 -142 58 -178 b 135 -231 85 -218 108 -232 b 190 -207 161 -229 179 -219 b 404 -83 365 -301 410 -172 b 515 333 386 214 447 265 b 739 628 604 422 758 597 z m 500 556 b 481 624 478 565 465 594 b 529 656 489 640 510 653 b 554 592 549 658 553 622 b 500 556 556 563 522 546 z m 307 376 b 261 542 272 396 297 490 b 143 642 215 607 138 600 b 214 646 146 663 174 657 b 326 528 272 629 321 592 b 307 376 332 468 326 365 z "},"ý":{"ha":754,"x_min":0,"x_max":0,"o":"m 300 764 b 465 818 342 764 414 786 b 578 922 503 842 564 906 b 551 951 597 944 565 942 b 499 954 533 964 533 990 b 304 844 457 910 379 828 b 303 800 285 849 303 815 b 300 764 303 785 263 764 z m 739 628 b 711 644 729 643 722 629 b 704 674 703 656 715 665 b 638 607 689 685 658 640 b 618 638 625 588 625 617 b 486 690 603 682 554 722 b 440 533 418 658 418 569 b 528 496 460 503 497 489 l 428 396 b 400 365 418 386 410 375 b 399 446 401 386 400 413 b 347 633 396 526 378 593 b 144 724 311 682 224 731 b 50 621 68 717 22 703 b 164 546 65 576 131 568 b 226 413 249 489 211 467 b 338 278 242 358 275 278 b 322 175 357 278 331 225 b 304 -147 286 -42 347 -104 b 214 -132 289 -162 251 -142 l 214 -124 b 131 -21 214 -57 203 -21 b 61 -42 107 -21 75 -19 b 44 -118 50 -60 43 -90 b 69 -194 46 -142 58 -178 b 135 -231 85 -218 108 -232 b 190 -207 161 -229 179 -219 b 404 -83 365 -301 410 -172 b 515 333 386 214 447 265 b 739 628 604 422 758 597 z m 500 556 b 481 624 478 565 465 594 b 529 656 489 640 510 653 b 554 592 549 658 553 622 b 500 556 556 563 522 546 z m 307 376 b 261 542 272 396 297 490 b 143 642 215 607 138 600 b 214 646 146 663 174 657 b 326 528 272 629 321 592 b 307 376 332 468 326 365 z "},"ŷ":{"ha":754,"x_min":0,"x_max":0,"o":"m 204 765 b 346 865 243 776 306 819 b 414 964 375 899 407 943 b 458 854 419 943 433 890 b 586 738 492 806 549 756 b 608 771 621 721 601 757 b 615 811 615 785 635 807 b 483 993 540 828 503 935 b 426 1031 461 1056 440 1029 b 353 1001 413 1032 399 1060 b 185 843 326 968 261 843 b 196 800 165 843 192 815 b 204 765 200 785 168 756 z m 739 628 b 711 644 729 643 722 629 b 704 674 703 656 715 665 b 638 607 689 685 658 640 b 618 638 625 588 625 617 b 486 690 603 682 554 722 b 440 533 418 658 418 569 b 528 496 460 503 497 489 l 428 396 b 400 365 418 386 410 375 b 399 446 401 386 400 413 b 347 633 396 526 378 593 b 144 724 311 682 224 731 b 50 621 68 717 22 703 b 164 546 65 576 131 568 b 226 413 249 489 211 467 b 338 278 242 358 275 278 b 322 175 357 278 331 225 b 304 -147 286 -42 347 -104 b 214 -132 289 -162 251 -142 l 214 -124 b 131 -21 214 -57 203 -21 b 61 -42 107 -21 75 -19 b 44 -118 50 -60 43 -90 b 69 -194 46 -142 58 -178 b 135 -231 85 -218 108 -232 b 190 -207 161 -229 179 -219 b 404 -83 365 -301 410 -172 b 515 333 386 214 447 265 b 739 628 604 422 758 597 z m 500 556 b 481 624 478 565 465 594 b 529 656 489 640 510 653 b 554 592 549 658 553 622 b 500 556 556 563 522 546 z m 307 376 b 261 542 272 396 297 490 b 143 642 215 607 138 600 b 214 646 146 663 174 657 b 326 528 272 629 321 592 b 307 376 332 468 326 365 z "},"ÿ":{"ha":754,"x_min":0,"x_max":0,"o":"m 524 807 b 582 857 557 807 582 835 b 524 922 582 881 557 921 b 461 868 493 924 461 892 b 524 807 461 846 493 807 z m 253 825 b 339 821 268 810 314 799 b 350 906 360 843 365 890 b 256 903 335 921 279 925 b 253 825 233 879 236 840 z m 739 628 b 711 644 729 643 722 629 b 704 674 703 656 715 665 b 638 607 689 685 658 640 b 618 638 625 588 625 617 b 486 690 603 682 554 722 b 440 533 418 658 418 569 b 528 496 460 503 497 489 l 428 396 b 400 365 418 386 410 375 b 399 446 401 386 400 413 b 347 633 396 526 378 593 b 144 724 311 682 224 731 b 50 621 68 717 22 703 b 164 546 65 576 131 568 b 226 413 249 489 211 467 b 338 278 242 358 275 278 b 322 175 357 278 331 225 b 304 -147 286 -42 347 -104 b 214 -132 289 -162 251 -142 l 214 -124 b 131 -21 214 -57 203 -21 b 61 -42 107 -21 75 -19 b 44 -118 50 -60 43 -90 b 69 -194 46 -142 58 -178 b 135 -231 85 -218 108 -232 b 190 -207 161 -229 179 -219 b 404 -83 365 -301 410 -172 b 515 333 386 214 447 265 b 739 628 604 422 758 597 z m 500 556 b 481 624 478 565 465 594 b 529 656 489 640 510 653 b 554 592 549 658 553 622 b 500 556 556 563 522 546 z m 307 376 b 261 542 272 396 297 490 b 143 642 215 607 138 600 b 214 646 146 663 174 657 b 326 528 272 629 321 592 b 307 376 332 468 326 365 z "},"ỳ":{"ha":754,"x_min":0,"x_max":0,"o":"m 403 818 b 568 764 454 786 526 764 b 565 800 606 764 565 785 b 564 844 565 815 583 849 b 369 954 489 828 411 910 b 317 951 335 990 335 964 b 290 922 303 942 271 944 b 403 818 304 906 365 842 z m 739 628 b 711 644 729 643 722 629 b 704 674 703 656 715 665 b 638 607 689 685 658 640 b 618 638 625 588 625 617 b 486 690 603 682 554 722 b 440 533 418 658 418 569 b 528 496 460 503 497 489 l 428 396 b 400 365 418 386 410 375 b 399 446 401 386 400 413 b 347 633 396 526 378 593 b 144 724 311 682 224 731 b 50 621 68 717 22 703 b 164 546 65 576 131 568 b 226 413 249 489 211 467 b 338 278 242 358 275 278 b 322 175 357 278 331 225 b 304 -147 286 -42 347 -104 b 214 -132 289 -162 251 -142 l 214 -124 b 131 -21 214 -57 203 -21 b 61 -42 107 -21 75 -19 b 44 -118 50 -60 43 -90 b 69 -194 46 -142 58 -178 b 135 -231 85 -218 108 -232 b 190 -207 161 -229 179 -219 b 404 -83 365 -301 410 -172 b 515 333 386 214 447 265 b 739 628 604 422 758 597 z m 500 556 b 481 624 478 565 465 594 b 529 656 489 640 510 653 b 554 592 549 658 553 622 b 500 556 556 563 522 546 z m 307 376 b 261 542 272 396 297 490 b 143 642 215 607 138 600 b 214 646 146 663 174 657 b 326 528 272 629 321 592 b 307 376 332 468 326 365 z "},"z":{"ha":799,"x_min":0,"x_max":0,"o":"m 488 307 b 663 350 556 282 621 329 b 751 490 708 374 736 436 b 676 661 767 546 747 650 b 514 581 604 672 571 581 b 438 589 483 581 460 583 b 454 631 444 604 451 621 b 422 706 465 665 440 689 b 324 722 399 728 354 724 b 247 694 288 721 263 710 b 50 621 179 729 100 744 b 183 453 14 532 99 446 b 311 510 254 458 264 483 b 421 525 347 479 400 499 b 507 500 443 518 469 508 b 668 581 601 479 617 594 b 619 413 714 568 689 464 b 496 374 590 392 528 361 b 235 413 433 399 367 464 b 53 275 164 385 83 360 b 69 135 38 231 47 169 b 64 108 65 126 63 117 b 181 -39 67 63 104 -40 b 338 51 257 -39 251 24 b 485 88 383 67 449 89 b 567 -64 472 39 500 -50 b 699 -32 608 -72 665 -60 b 740 153 733 -3 747 107 b 611 281 733 197 696 272 b 478 149 483 293 515 153 b 319 126 346 133 381 133 b 171 179 236 118 206 149 b 121 183 158 190 139 190 b 147 279 111 214 115 251 b 306 358 197 322 256 347 b 338 314 339 365 408 344 b 307 172 142 226 265 147 b 465 200 400 231 439 147 b 440 308 472 214 478 265 b 488 307 411 342 444 322 z m 260 561 b 182 526 243 536 211 525 b 133 564 122 529 163 544 b 167 636 92 592 156 638 b 260 561 238 628 268 574 z m 544 132 b 610 199 557 182 585 200 b 679 151 636 197 672 181 b 658 69 686 124 656 97 b 600 6 663 35 644 -3 b 544 132 556 14 535 92 z "},".":{"ha":218,"x_min":0,"x_max":0,"o":"m 115 150 b 14 54 51 156 13 92 b 78 -12 15 17 47 -12 b 188 54 108 -12 179 15 b 115 150 197 93 178 144 z "},",":{"ha":264,"x_min":0,"x_max":0,"o":"m 168 97 b 76 11 110 101 75 44 b 92 -28 76 -4 83 -18 b 94 -108 101 -42 111 -81 b 33 -171 78 -136 54 -160 b 58 -207 15 -181 50 -193 b 82 -236 67 -221 50 -261 b 154 -122 114 -211 146 -160 b 207 -22 163 -85 183 -39 b 235 11 221 -12 232 -1 b 168 97 243 46 225 93 z "},":":{"ha":235,"x_min":0,"x_max":0,"o":"m 129 696 b 28 600 65 701 26 638 b 92 533 29 563 61 533 b 201 600 122 533 193 561 b 129 696 210 639 192 690 z m 133 164 b 32 68 69 169 31 106 b 96 1 33 31 65 1 b 206 68 126 1 197 29 b 133 164 214 107 196 158 z "},";":{"ha":218,"x_min":0,"x_max":0,"o":"m 89 540 b 199 607 119 540 190 568 b 126 703 208 646 189 697 b 25 607 63 708 24 644 b 89 540 26 569 58 540 z m 131 97 b 39 11 72 101 38 44 b 54 -28 39 -4 46 -18 b 57 -108 64 -42 74 -81 b -4 -171 40 -136 17 -160 b 21 -207 -22 -181 13 -193 b 44 -236 29 -221 13 -261 b 117 -122 76 -211 108 -160 b 169 -22 125 -85 146 -39 b 197 11 183 -12 194 -1 b 131 97 206 46 188 93 z "},"…":{"ha":713,"x_min":0,"x_max":0,"o":"m 115 150 b 14 54 51 156 13 92 b 78 -12 15 17 47 -12 b 188 54 108 -12 179 15 b 115 150 197 93 178 144 z m 369 150 b 268 54 306 156 267 92 b 332 -12 269 17 301 -12 b 442 54 363 -12 433 15 b 369 150 451 93 432 144 z m 624 150 b 522 54 560 156 521 92 b 586 -12 524 17 556 -12 b 696 54 617 -12 688 15 b 624 150 706 93 686 144 z "},"!":{"ha":324,"x_min":0,"x_max":0,"o":"m 140 689 b 160 678 147 683 154 681 b 174 601 163 651 163 624 b 183 458 189 568 206 510 b 151 243 161 407 129 381 b 188 228 160 190 174 228 b 233 228 201 228 222 201 b 235 378 244 254 219 315 b 264 554 250 440 281 486 b 228 694 253 601 238 657 b 246 744 239 710 246 731 b 243 868 246 779 213 813 b 151 993 274 924 236 997 b 78 857 88 990 18 968 b 140 689 138 746 74 738 z m 153 928 b 181 892 167 926 185 913 b 146 871 176 871 161 869 b 124 897 133 872 126 875 b 153 928 124 931 139 929 z m 235 168 b 169 156 190 190 185 174 b 126 21 131 107 83 85 b 243 54 169 -43 233 -8 b 235 168 253 117 279 146 z "},"¡":{"ha":324,"x_min":0,"x_max":0,"o":"m 89 594 b 154 607 133 572 139 589 b 197 742 193 656 240 678 b 81 708 154 806 90 771 b 89 594 71 646 44 617 z m 246 -94 b 183 74 186 17 250 25 b 164 85 176 79 169 82 b 150 161 161 111 161 139 b 140 304 135 194 118 253 b 172 519 163 356 194 382 b 136 535 164 572 150 535 b 90 535 122 535 101 561 b 89 385 79 508 104 447 b 60 208 74 322 43 276 b 96 68 71 161 86 106 b 78 18 85 53 78 32 b 81 -106 78 -17 111 -50 b 172 -231 50 -161 88 -235 b 246 -94 236 -228 306 -206 z m 171 -165 b 143 -129 157 -164 139 -150 b 178 -108 147 -108 163 -107 b 200 -135 190 -110 197 -112 b 171 -165 200 -168 185 -167 z "},"?":{"ha":721,"x_min":0,"x_max":0,"o":"m 579 903 b 517 938 550 922 531 932 b 511 951 515 943 514 947 b 367 994 475 1022 410 999 b 246 1006 324 990 326 1015 b 56 865 121 990 50 958 b 169 775 60 788 117 757 b 301 835 222 793 247 828 b 488 807 356 842 439 797 b 525 836 506 811 518 821 b 574 694 574 796 586 746 b 342 604 558 631 507 601 b 225 369 176 607 139 422 b 310 297 311 317 306 338 b 358 285 314 257 342 285 b 408 307 378 285 410 260 b 306 428 407 354 371 410 b 340 525 240 446 290 526 b 644 640 390 524 597 514 b 579 903 692 767 651 857 z m 351 900 b 226 882 322 903 285 908 b 207 922 168 856 169 904 b 361 944 257 946 321 951 b 351 900 401 938 381 897 z m 367 192 b 319 128 321 178 328 149 b 251 32 303 86 246 85 b 410 -10 257 -21 353 -29 b 488 140 467 10 525 76 b 367 192 450 204 413 206 z m 404 53 b 369 81 379 36 342 50 b 417 113 393 106 401 133 b 404 53 432 92 429 69 z "},"¿":{"ha":721,"x_min":0,"x_max":0,"o":"m 354 574 b 401 638 400 588 393 617 b 469 733 418 679 475 681 b 311 775 464 786 368 794 b 233 625 254 756 196 689 b 354 574 271 561 308 560 z m 317 713 b 351 685 342 729 379 715 b 304 653 328 660 319 632 b 317 713 289 674 292 696 z m 665 -100 b 551 -10 661 -22 604 8 b 419 -69 499 -28 474 -62 b 233 -42 365 -76 282 -32 b 196 -71 215 -46 203 -56 b 147 71 147 -31 135 19 b 379 161 163 135 214 164 b 496 396 544 158 582 343 b 411 468 410 449 415 428 b 363 481 407 508 379 481 b 313 458 343 481 311 506 b 415 338 314 411 350 356 b 381 240 481 319 431 239 b 76 125 331 242 124 251 b 142 -137 29 -1 69 -92 b 204 -172 171 -157 190 -167 b 210 -186 206 -178 207 -182 b 354 -229 246 -257 311 -233 b 475 -240 397 -225 394 -250 b 665 -100 600 -225 671 -193 z m 514 -157 b 360 -179 464 -181 400 -186 b 369 -135 319 -172 340 -132 b 494 -117 399 -137 436 -143 b 514 -157 553 -90 551 -139 z "},"·":{"ha":218,"x_min":0,"x_max":0,"o":"m 115 474 b 14 378 51 479 13 415 b 78 311 15 340 47 311 b 188 378 108 311 179 339 b 115 474 197 417 178 468 z "},"•":{"ha":589,"x_min":0,"x_max":0,"o":"m 332 567 b 56 307 158 582 51 408 b 288 125 60 204 204 125 b 528 307 371 125 506 200 b 332 567 551 413 501 551 z "},"*":{"ha":581,"x_min":0,"x_max":0,"o":"m 250 993 b 281 1031 247 1058 265 1031 b 324 1013 296 1031 326 1049 b 325 894 321 976 325 911 b 356 901 325 878 338 879 b 426 961 374 924 401 950 b 472 933 451 972 476 949 b 449 889 468 918 492 911 b 375 800 406 867 331 829 b 482 732 419 771 450 740 b 538 674 514 724 531 693 b 497 644 544 654 500 658 b 433 607 494 631 483 599 b 347 599 383 615 350 629 b 314 585 344 568 325 586 b 285 606 303 583 285 565 b 274 718 285 646 282 683 b 242 711 265 753 263 740 b 176 626 221 682 203 660 b 143 639 150 593 157 632 b 114 674 129 646 92 625 b 188 788 136 722 172 769 b 160 814 203 806 183 817 b 56 826 136 811 75 819 b 51 894 36 833 39 865 b 71 969 64 924 50 958 b 190 943 92 981 169 964 b 239 906 211 922 221 910 b 250 993 257 901 251 946 z m 381 729 b 353 688 346 733 353 718 b 421 665 353 657 393 685 b 438 693 449 646 463 674 b 381 729 413 713 411 725 z "},"#":{"ha":1064,"x_min":0,"x_max":0,"o":"m 332 67 b 264 3 300 -46 288 -6 b 244 101 240 10 208 -15 b 140 263 279 214 193 286 b 64 288 88 239 68 268 b 67 347 60 307 25 335 b 224 401 108 360 203 328 b 183 564 244 475 267 567 b 29 622 100 561 43 539 b 167 775 15 706 88 725 b 271 946 246 825 267 885 b 417 946 275 1007 353 1007 b 515 786 481 885 515 842 b 568 701 515 743 529 711 b 764 528 626 688 738 576 b 914 461 801 460 804 451 b 1036 360 1024 471 1038 410 b 882 182 1035 310 965 225 b 728 15 799 139 772 113 b 575 139 683 -82 567 -4 b 485 292 583 282 603 335 b 332 67 367 249 349 126 z m 979 629 b 1015 699 1053 650 1018 674 b 957 746 1013 721 1035 768 b 771 724 879 724 804 678 b 781 871 742 764 754 822 b 739 950 821 946 782 939 b 656 924 697 961 667 1013 b 693 663 647 854 653 718 b 835 611 733 607 774 599 b 979 629 882 621 925 614 z m 199 701 b 244 635 143 661 189 607 b 410 664 300 664 354 668 b 435 772 465 660 460 732 b 332 861 410 813 371 921 b 199 701 293 803 249 738 z m 293 379 b 354 285 278 246 319 254 b 504 379 389 315 431 365 b 672 390 578 393 626 318 b 593 596 718 463 639 556 b 378 597 547 636 460 588 b 293 379 296 607 310 519 z m 660 158 b 735 172 661 92 714 111 b 889 296 756 233 779 290 b 882 383 947 299 985 379 b 660 158 779 388 660 292 z "},"/":{"ha":643,"x_min":0,"x_max":0,"o":"m 481 994 b 549 1021 529 1085 532 1028 b 572 967 565 1014 610 1040 b 435 643 447 724 475 696 b 410 478 394 590 481 583 b 233 161 339 372 269 251 b 261 49 197 71 208 61 b 318 -43 314 36 319 -12 b 183 -126 317 -74 263 -124 b 58 -24 104 -129 43 -85 b 124 83 69 19 108 17 b 228 339 139 150 190 251 b 324 524 265 426 315 471 b 275 529 332 576 294 544 b 251 626 256 514 201 542 b 364 818 301 711 349 782 b 481 994 379 854 428 918 z m 231 -10 b 156 -8 214 1 190 -1 b 142 -57 124 -15 125 -44 b 224 -72 160 -69 190 -79 b 231 -10 249 -67 263 -31 z "},"\\":{"ha":578,"x_min":0,"x_max":0,"o":"m 517 -49 b 460 8 503 -15 465 -22 b 410 151 454 39 460 53 b 306 564 363 244 346 414 b 367 649 353 539 375 590 b 189 968 360 711 225 900 b 69 915 139 1043 13 999 b 139 722 128 832 118 790 b 197 640 149 692 171 664 b 239 451 213 578 231 514 b 329 146 250 374 304 253 b 294 -37 354 39 283 60 b 457 -143 306 -135 400 -158 b 517 -49 514 -128 531 -82 z m 147 864 b 190 868 108 933 160 935 b 293 694 222 801 261 739 b 249 661 331 644 303 624 b 147 864 196 699 178 810 z m 399 -96 b 358 4 358 -87 344 -28 b 400 4 372 36 399 44 b 435 -51 403 -19 406 -28 b 399 -96 464 -75 439 -104 z "},"(":{"ha":507,"x_min":0,"x_max":0,"o":"m 385 996 b 435 982 432 1031 425 994 b 449 942 449 965 472 960 b 283 793 418 918 358 892 b 154 586 208 694 160 632 b 201 574 149 540 172 532 b 299 558 231 615 300 632 b 267 346 297 485 263 403 b 367 206 271 289 336 239 b 325 118 397 172 422 104 b 240 124 285 124 213 164 b 381 -61 286 57 343 -11 b 375 -122 418 -111 390 -111 b 321 -122 360 -133 358 -175 b 86 239 274 -57 131 150 b 86 664 42 328 15 535 b 385 996 157 793 332 957 z m 207 508 b 129 507 181 458 150 472 b 96 418 117 528 85 518 b 221 208 107 317 167 232 b 272 239 278 183 297 211 b 217 397 253 260 204 328 b 250 501 229 467 244 469 b 207 508 256 533 225 543 z "},")":{"ha":417,"x_min":0,"x_max":0,"o":"m 58 913 b 56 961 31 939 47 950 b 100 992 64 972 61 1025 b 319 786 139 958 285 854 b 375 497 354 718 372 631 b 333 207 378 364 356 264 b 364 44 311 150 356 140 b 219 -158 372 -51 296 -121 b 106 -32 143 -196 88 -129 b 228 150 124 65 196 128 b 286 475 260 172 286 392 b 228 753 286 558 278 685 b 58 913 176 822 97 876 z m 168 -32 b 218 -75 150 -93 176 -126 b 303 44 260 -24 304 0 b 239 75 301 89 276 104 b 168 -32 201 46 182 15 z "},"{":{"ha":583,"x_min":0,"x_max":0,"o":"m 464 972 b 461 856 529 958 551 882 b 365 728 371 829 376 783 b 244 760 354 672 243 667 b 321 940 246 853 275 908 b 464 972 367 972 404 985 z m 296 808 b 333 799 290 754 318 744 b 411 890 349 853 369 874 b 386 924 453 907 432 946 b 296 808 340 901 303 879 z m 415 -182 b 542 -57 522 -186 536 -125 b 442 53 547 11 510 56 b 308 156 374 50 311 58 b 208 421 304 296 288 386 b 304 615 268 438 294 546 b 271 651 311 663 271 628 b 232 663 271 676 235 690 b 165 519 228 621 226 549 b 53 476 104 490 78 481 b 51 433 28 472 53 451 b 63 381 50 414 36 386 b 190 314 89 375 146 386 b 229 72 235 242 236 149 b 285 -118 222 -4 267 -94 b 415 -182 303 -142 353 -179 z m 315 -46 b 364 0 278 8 333 42 b 456 -31 394 -42 417 -28 b 426 -121 494 -33 494 -122 b 315 -46 358 -119 340 -83 z "},"}":{"ha":568,"x_min":0,"x_max":0,"o":"m 119 982 b 304 924 207 982 286 947 b 344 722 335 883 344 799 b 378 572 344 676 350 606 b 506 506 432 507 479 511 b 517 453 532 500 518 472 b 515 410 515 435 540 414 b 403 367 490 406 464 396 b 331 149 342 338 335 190 b 288 149 328 121 299 146 b 247 181 265 154 243 133 b 360 465 263 342 318 422 b 254 654 281 500 254 606 b 247 840 254 722 268 811 b 110 908 222 878 179 906 b 104 940 76 910 106 932 b 119 982 103 949 81 982 z m 99 -178 b 101 -61 33 -164 11 -87 b 197 67 192 -35 186 11 b 318 35 208 122 319 128 b 242 -146 317 -58 288 -114 b 99 -178 196 -178 158 -190 z m 267 -14 b 229 -4 272 40 244 50 b 151 -96 214 -58 193 -79 b 176 -129 110 -112 131 -151 b 267 -14 222 -107 260 -85 z "},"[":{"ha":572,"x_min":0,"x_max":0,"o":"m 435 1013 b 457 954 489 1015 457 974 b 444 899 457 935 482 901 b 289 868 407 896 308 892 b 226 733 269 844 274 772 b 126 601 179 694 111 697 b 158 279 140 511 179 375 b 183 1 138 183 171 38 b 314 -72 196 -35 193 -79 b 493 -58 379 -68 453 -65 b 519 -107 533 -51 522 -79 b 496 -167 517 -135 557 -161 b 167 -174 435 -172 228 -174 b 92 -60 106 -174 99 -104 b 63 275 85 -15 53 179 b 43 615 72 371 64 514 b 51 926 26 694 44 853 b 161 997 58 1000 89 1013 b 435 1013 233 982 375 1010 z m 97 856 b 147 753 106 793 83 726 b 208 935 207 776 276 943 b 121 932 142 928 143 944 b 97 856 99 921 92 883 z "},"]":{"ha":518,"x_min":0,"x_max":0,"o":"m 300 592 b 382 757 308 706 375 717 b 401 913 392 810 401 847 b 279 942 401 942 351 960 b 115 913 242 932 164 915 b 85 957 69 910 88 939 b 99 1008 82 975 50 1007 b 354 1026 147 1010 271 1010 b 479 924 438 1043 500 1008 b 475 753 458 839 472 790 b 401 643 478 707 435 696 b 379 317 367 588 350 375 b 408 50 422 229 457 161 b 381 -112 360 -61 379 -87 b 286 -147 382 -137 363 -142 b 69 -144 210 -153 111 -143 b 58 -100 36 -146 60 -118 b 57 -51 57 -82 22 -51 b 267 -61 92 -51 236 -60 b 269 -26 297 -62 296 -26 b 193 104 231 -26 203 35 b 233 301 181 193 192 225 b 300 592 275 378 292 476 z m 260 107 b 344 89 274 57 311 13 b 347 243 378 164 375 196 b 268 231 319 290 286 285 b 260 107 250 175 253 135 z "},"-":{"ha":667,"x_min":0,"x_max":0,"o":"m 85 300 b 79 347 40 299 81 329 b 78 401 78 365 29 397 b 336 388 126 406 289 379 b 425 499 310 426 306 496 b 611 394 544 501 608 474 b 454 294 614 315 544 299 b 85 300 364 290 157 303 z m 422 369 b 500 344 450 343 474 338 b 564 400 526 351 564 367 b 456 454 564 433 528 454 b 422 369 383 454 388 415 z "},"–":{"ha":833,"x_min":0,"x_max":0,"o":"m 129 343 b 108 388 88 342 108 375 b 118 440 108 400 86 438 b 386 444 150 443 342 438 b 513 429 431 451 457 435 b 724 433 568 424 693 431 b 738 381 754 436 738 400 b 729 325 738 361 769 326 b 476 335 689 324 539 340 b 344 357 414 329 411 360 b 129 343 271 354 189 350 z "},"—":{"ha":1619,"x_min":0,"x_max":0,"o":"m 90 428 b 76 369 22 418 76 389 b 83 293 76 350 29 293 b 601 313 138 293 435 313 b 1328 289 768 313 1208 285 b 1554 314 1447 293 1535 306 b 1543 371 1578 324 1549 344 b 1526 443 1538 397 1563 443 b 926 438 1490 443 1078 419 b 325 433 803 453 407 429 b 90 428 243 438 156 438 z "},"_":{"ha":803,"x_min":0,"x_max":0,"o":"m 738 94 b 756 47 779 96 756 61 b 740 6 756 33 774 7 b 518 1 711 4 589 -8 b 358 19 476 7 439 28 b 63 17 278 10 104 17 b 44 65 26 17 46 47 b 76 113 43 85 21 110 b 400 119 131 115 321 113 b 589 96 476 128 539 103 b 738 94 639 90 704 93 z "},"‚":{"ha":264,"x_min":0,"x_max":0,"o":"m 168 160 b 76 11 110 164 75 44 b 92 -28 76 -4 83 -18 b 94 -108 101 -42 111 -81 b 33 -171 78 -136 54 -160 b 58 -207 15 -181 50 -193 b 82 -236 67 -221 50 -261 b 154 -122 114 -211 146 -160 b 207 -22 163 -85 183 -39 b 235 11 221 -12 232 -1 b 168 160 243 46 225 156 z "},"„":{"ha":503,"x_min":0,"x_max":0,"o":"m 407 163 b 315 14 349 167 314 47 b 331 -25 315 -1 322 -15 b 333 -106 340 -39 350 -78 b 272 -168 317 -133 293 -157 b 297 -204 254 -178 289 -190 b 321 -233 306 -218 289 -258 b 393 -119 353 -208 385 -157 b 446 -19 401 -82 422 -36 b 474 14 460 -10 471 1 b 407 163 482 49 464 158 z m 168 160 b 76 11 110 164 75 44 b 92 -28 76 -4 83 -18 b 94 -108 101 -42 111 -81 b 33 -171 78 -136 54 -160 b 58 -207 15 -181 50 -193 b 82 -236 67 -221 50 -261 b 154 -122 114 -211 146 -160 b 207 -22 163 -85 183 -39 b 235 11 221 -12 232 -1 b 168 160 243 46 225 156 z "},"“":{"ha":483,"x_min":0,"x_max":0,"o":"m 206 967 b 182 996 197 981 214 1021 b 110 882 150 971 118 919 b 57 782 101 844 81 799 b 29 749 43 772 32 761 b 96 663 21 714 39 667 b 188 749 154 658 189 715 b 172 788 188 764 181 778 b 169 868 163 801 153 840 b 231 931 186 896 210 919 b 206 967 249 940 214 953 z m 425 967 b 401 996 417 981 433 1021 b 329 882 369 971 338 919 b 276 782 321 844 300 799 b 249 749 263 772 251 761 b 315 663 240 714 258 667 b 407 749 374 658 408 715 b 392 788 407 764 400 778 b 389 868 382 801 372 840 b 450 931 406 896 429 919 b 425 967 468 940 433 953 z "},"”":{"ha":497,"x_min":0,"x_max":0,"o":"m 401 1001 b 310 915 343 1006 308 949 b 325 876 310 900 317 886 b 328 796 335 863 344 824 b 267 733 311 768 288 744 b 292 697 249 724 283 711 b 315 668 300 683 283 643 b 388 782 347 693 379 744 b 440 882 396 819 417 865 b 468 915 454 892 465 903 b 401 1001 476 950 458 997 z m 168 999 b 76 913 110 1003 75 946 b 92 874 76 897 83 883 b 94 793 101 860 111 821 b 33 731 78 765 54 742 b 58 694 15 721 50 708 b 82 665 67 681 50 640 b 154 779 114 690 146 742 b 207 879 163 817 183 863 b 235 913 221 889 232 900 b 168 999 243 947 225 994 z "},"‘":{"ha":303,"x_min":0,"x_max":0,"o":"m 72 771 b 176 615 -15 656 103 603 b 235 782 250 628 290 717 b 232 967 179 847 226 910 b 188 986 238 1024 207 986 b 122 983 168 986 126 1031 b 72 771 118 936 131 847 z m 124 710 b 164 771 126 736 151 771 b 188 694 176 771 189 722 b 124 710 186 667 119 676 z "},"’":{"ha":290,"x_min":0,"x_max":0,"o":"m 78 682 b 129 644 72 633 103 650 b 190 663 156 639 189 618 b 229 835 192 707 183 758 b 154 1029 275 911 239 1015 b 53 925 69 1043 18 1008 b 78 682 88 842 92 799 z m 122 942 b 163 942 117 971 161 974 b 160 875 164 910 161 893 b 133 876 158 857 133 843 b 122 942 133 910 126 919 z "},"«":{"ha":821,"x_min":0,"x_max":0,"o":"m 368 692 b 436 688 428 742 421 703 b 456 649 451 672 479 672 b 371 574 442 635 393 624 b 411 550 363 554 386 558 b 475 535 433 542 457 521 b 599 663 511 564 546 611 b 656 638 651 714 649 650 b 678 599 663 625 722 642 b 500 438 633 556 543 475 b 468 350 457 400 431 381 b 563 332 506 319 596 283 b 608 379 529 381 560 421 b 742 278 657 338 717 299 b 711 215 767 257 735 231 b 733 164 688 200 708 186 b 715 119 758 142 725 131 b 672 86 706 108 726 65 b 517 207 618 107 567 176 b 457 131 467 238 385 171 b 604 50 510 101 588 78 b 574 11 621 22 588 22 b 497 -11 560 0 588 -61 b 225 157 407 39 269 118 b 100 257 181 196 150 225 b 103 399 50 289 32 318 b 249 579 174 479 203 540 b 368 692 294 618 328 651 z m 190 371 b 240 261 132 318 151 314 b 328 183 275 242 290 197 b 364 249 381 164 333 208 b 385 319 389 282 450 278 b 347 392 349 343 299 344 b 399 458 375 418 399 440 b 283 483 399 504 317 522 b 190 371 257 453 224 401 z "},"»":{"ha":793,"x_min":0,"x_max":0,"o":"m 89 136 b 96 78 43 96 89 85 b 149 53 106 67 100 15 b 335 194 197 90 289 164 b 363 172 381 225 389 194 b 226 57 336 150 253 88 b 246 15 200 26 239 24 b 289 -12 253 7 260 -39 b 381 82 318 14 360 61 b 444 85 401 103 426 108 b 582 90 463 61 528 53 b 606 235 636 128 640 197 b 642 310 576 267 597 282 b 697 411 686 338 746 382 b 568 533 649 440 597 507 b 379 685 539 560 418 644 b 314 738 340 725 336 722 b 289 722 292 753 294 729 b 272 690 283 715 251 717 b 364 611 293 664 329 646 b 449 535 399 576 440 546 b 426 517 457 524 451 517 b 376 476 406 517 376 496 b 332 490 376 454 357 471 b 236 586 304 513 260 549 b 190 646 213 624 201 636 b 160 631 179 656 167 638 b 136 594 153 624 113 622 b 268 456 160 567 225 493 b 351 381 311 418 342 399 b 336 326 361 363 363 349 b 210 243 310 304 253 279 b 89 136 167 207 128 169 z m 439 358 b 442 401 471 382 450 393 b 451 458 433 410 421 440 b 538 449 482 476 514 468 b 596 371 574 419 631 406 b 453 267 561 336 493 289 b 376 299 413 244 354 256 b 439 358 399 340 413 339 z m 482 211 b 571 186 529 243 561 218 b 515 125 579 156 550 132 b 482 211 482 119 418 171 z "},"‹":{"ha":646,"x_min":0,"x_max":0,"o":"m 508 729 b 569 703 576 774 558 725 b 576 642 581 681 636 678 b 351 490 517 606 407 535 b 267 424 328 471 282 439 b 288 396 246 403 256 385 b 461 507 343 414 408 506 b 564 413 514 508 571 503 b 442 286 557 322 522 300 b 239 314 361 272 282 281 b 138 253 171 367 106 279 b 393 124 172 225 218 192 b 529 43 451 101 511 64 b 506 -7 547 22 519 17 b 450 -31 492 -31 496 -69 b 357 43 421 -6 415 18 b 136 151 275 78 168 132 b 58 321 24 218 31 285 b 201 478 94 368 136 426 b 508 729 267 529 436 682 z m 425 415 b 403 344 386 389 351 339 b 497 410 454 350 496 365 b 425 415 499 454 457 438 z "},"›":{"ha":672,"x_min":0,"x_max":0,"o":"m 617 315 b 617 243 647 288 615 272 b 608 193 618 214 632 200 b 371 99 564 181 442 149 b 125 -71 300 49 213 -35 b 43 39 38 -107 44 -28 b 82 288 42 106 31 264 b 221 221 132 311 218 279 b 275 140 224 163 251 124 b 510 279 299 157 504 242 b 419 385 515 317 454 336 b 281 506 383 433 339 519 b 138 536 221 492 192 471 b 208 726 83 601 161 710 b 351 640 256 743 328 729 b 617 315 375 551 482 438 z m 267 651 b 208 626 240 692 221 667 b 233 561 196 585 201 554 b 267 651 265 569 290 618 z m 167 171 b 106 181 167 218 115 250 b 107 29 97 111 99 54 b 179 39 114 4 153 17 b 204 100 207 60 228 71 b 167 171 181 128 167 133 z "},"\"":{"ha":408,"x_min":0,"x_max":0,"o":"m 64 958 b 182 997 67 1024 144 1032 b 214 858 219 963 224 897 b 126 786 204 819 126 838 b 132 686 126 735 132 704 b 89 683 132 668 106 686 b 42 686 72 681 44 640 b 64 958 39 732 60 864 z m 239 683 b 279 675 239 649 263 676 b 329 689 296 674 331 639 b 361 903 328 739 340 846 b 324 963 382 960 339 960 b 264 931 308 965 275 1006 b 239 683 253 856 239 740 z m 110 886 b 146 886 110 865 142 861 b 147 944 150 911 151 931 b 114 940 143 958 118 956 b 110 886 110 925 110 907 z "},"'":{"ha":217,"x_min":0,"x_max":0,"o":"m 61 681 b 101 676 64 644 85 676 b 150 696 118 676 157 643 b 158 928 143 749 143 865 b 114 988 172 990 131 986 b 58 949 99 989 61 1029 b 61 681 56 867 54 742 z "}," ":{"ha":278,"x_min":0,"x_max":0,"o":""},"$":{"ha":697,"x_min":0,"x_max":0,"o":"m 249 996 b 310 1011 243 1047 297 1010 b 369 1004 322 1013 367 1036 b 386 908 372 972 354 911 b 615 760 418 906 553 879 b 575 733 631 731 597 744 b 518 721 553 722 533 679 b 396 829 503 763 454 824 b 364 736 338 835 365 778 b 390 628 363 694 347 635 b 608 551 433 621 563 618 b 625 317 654 485 678 396 b 419 142 572 238 478 172 b 356 31 361 111 349 85 b 365 -87 363 -24 364 -67 b 314 -104 368 -125 328 -103 b 264 -93 300 -106 264 -133 b 256 131 264 -53 260 101 b 97 221 251 160 147 136 b 42 388 47 306 42 358 b 92 392 42 417 71 392 b 144 382 113 392 144 408 b 194 244 144 356 129 269 b 283 332 260 219 285 249 b 288 551 282 415 288 513 b 215 554 288 590 261 563 b 50 689 169 546 54 569 b 218 906 46 808 172 888 b 249 996 264 924 253 963 z m 178 785 b 142 663 135 733 119 690 b 249 643 164 635 225 640 b 278 765 272 646 310 708 b 178 785 249 817 200 811 z m 357 282 b 419 264 354 206 388 208 b 553 401 451 319 543 304 b 413 542 563 499 518 539 b 365 446 353 543 365 482 b 357 282 365 410 360 363 z "},"€":{"ha":1051,"x_min":0,"x_max":0,"o":"m 824 169 b 879 133 894 194 879 154 b 867 64 879 113 919 81 b 457 42 814 47 600 -4 b 192 321 314 88 192 238 b 89 378 192 404 125 379 b 61 414 53 376 61 399 b 65 468 61 429 17 463 b 207 490 114 474 192 492 b 185 553 222 489 228 551 b 58 551 142 554 89 550 b 58 593 28 553 61 576 b 57 638 56 610 22 632 b 229 646 92 643 208 643 b 299 799 250 649 218 697 b 743 899 379 900 529 1013 b 664 725 894 818 765 650 b 501 678 599 774 531 713 b 590 640 472 643 513 638 b 811 631 668 643 781 631 b 821 583 842 631 821 597 b 814 531 821 569 861 535 b 560 525 789 528 685 544 b 328 524 460 510 360 515 b 310 478 285 535 257 493 b 583 476 363 463 475 460 b 936 490 692 493 878 486 b 979 432 994 494 976 446 b 986 374 982 418 1043 401 b 797 369 929 346 867 408 b 728 267 753 346 796 304 b 717 138 682 242 671 147 b 824 169 738 133 788 157 z m 364 664 b 422 664 364 615 422 625 b 658 796 422 757 572 836 b 668 846 713 771 746 808 b 364 664 572 893 364 822 z m 639 376 b 322 344 482 354 356 372 b 401 169 289 317 300 232 b 613 172 503 107 590 118 b 653 306 635 226 589 278 b 639 376 717 333 699 385 z "},"+":{"ha":785,"x_min":0,"x_max":0,"o":"m 325 739 b 369 763 324 779 349 763 b 424 756 393 763 421 785 b 431 540 426 726 422 578 b 494 489 439 503 451 486 b 706 499 538 492 672 506 b 721 439 744 490 719 454 b 700 394 722 424 747 394 b 482 389 642 394 554 388 b 436 331 450 389 435 378 b 457 106 438 283 456 146 b 403 85 458 65 422 86 b 346 117 383 83 346 61 b 340 333 346 172 350 276 b 271 382 331 390 303 386 b 83 375 246 379 118 375 b 71 432 47 375 71 401 b 76 486 71 461 33 485 b 285 489 119 488 256 482 b 336 540 314 496 338 515 b 325 739 335 565 326 679 z "},"=":{"ha":863,"x_min":0,"x_max":0,"o":"m 76 613 b 68 557 26 613 68 575 b 69 503 68 539 39 504 b 286 500 100 501 254 510 b 326 428 318 490 356 467 b 382 361 297 389 332 369 b 642 364 432 353 604 347 b 651 424 679 381 697 400 b 596 499 606 447 593 471 b 679 508 599 526 647 508 b 799 518 711 508 778 513 b 793 554 819 524 793 549 b 786 600 793 560 813 601 b 575 601 760 599 638 594 b 76 613 513 608 118 613 z m 468 531 b 542 443 529 531 539 471 b 481 414 544 415 540 415 b 400 458 421 413 397 419 b 468 531 403 497 414 531 z m 63 269 b 49 232 26 271 49 246 b 57 186 49 218 29 188 b 371 165 85 185 251 171 b 792 182 490 160 749 178 b 817 225 835 186 818 213 b 789 268 815 238 836 269 b 382 258 742 267 478 254 b 63 269 286 263 106 268 z "},">":{"ha":640,"x_min":0,"x_max":0,"o":"m 111 701 b 256 617 149 679 222 635 b 517 479 289 600 435 519 b 533 319 599 439 642 389 b 124 110 424 251 197 140 b 68 140 51 81 82 119 b 65 199 54 163 22 188 b 474 371 142 219 397 335 b 354 467 549 408 438 428 b 47 635 275 503 65 619 b 74 667 29 649 64 656 b 111 701 83 678 74 721 z "},"<":{"ha":642,"x_min":0,"x_max":0,"o":"m 533 104 b 388 189 493 126 421 171 b 122 328 354 206 206 288 b 107 489 40 369 -3 419 b 519 701 217 560 446 672 b 578 669 593 732 565 690 b 579 622 588 654 618 644 b 189 447 539 601 265 485 b 218 379 113 410 135 411 b 593 174 303 347 575 189 b 572 139 613 160 583 150 b 533 104 563 128 571 83 z "},"~":{"ha":879,"x_min":0,"x_max":0,"o":"m 733 524 b 793 519 775 581 779 526 b 831 481 807 513 854 510 b 654 324 807 451 743 356 b 285 393 544 283 436 331 b 153 249 217 421 190 336 b 88 238 129 194 108 233 b 51 285 67 242 24 221 b 238 506 79 349 165 500 b 506 424 310 511 428 446 b 733 524 611 393 674 443 z "},"^":{"ha":510,"x_min":0,"x_max":0,"o":"m 43 585 b 83 564 32 544 63 569 b 144 558 104 558 138 521 b 208 799 151 596 193 758 b 275 831 235 871 267 868 b 335 679 283 793 324 704 b 383 547 347 650 379 572 b 429 544 388 522 411 543 b 467 569 447 546 474 519 b 371 793 460 619 401 735 b 307 928 342 849 321 911 b 193 925 289 949 217 967 b 119 760 169 883 138 807 b 43 585 101 713 58 640 z "},"%":{"ha":910,"x_min":0,"x_max":0,"o":"m 400 718 b 347 935 456 815 406 892 b 146 885 288 979 193 936 b 114 633 99 833 69 696 b 285 633 158 572 242 608 b 322 421 329 660 363 474 b 61 82 282 368 108 147 b 75 17 14 17 65 26 b 133 -12 85 7 110 -33 b 379 350 157 8 308 267 b 682 668 450 433 535 497 b 863 875 717 708 824 832 b 829 917 885 900 838 907 b 775 947 821 926 811 982 b 621 764 739 913 678 840 b 429 561 557 679 443 581 b 400 718 401 519 383 689 z m 225 686 b 174 782 185 671 140 697 b 326 840 206 864 300 893 b 225 686 354 786 361 738 z m 400 274 b 510 249 404 190 472 192 b 535 208 521 265 561 238 b 486 63 496 165 482 107 b 647 -35 492 -7 551 -69 b 826 154 742 0 817 93 b 700 292 836 214 769 289 b 606 265 668 293 633 282 b 560 308 575 247 542 290 b 535 399 592 340 608 383 b 400 274 485 408 397 358 z m 569 86 b 640 203 578 150 613 164 b 713 197 668 240 696 207 b 750 154 731 188 769 194 b 654 44 731 113 703 75 b 569 86 606 14 561 21 z "},"@":{"ha":913,"x_min":0,"x_max":0,"o":"m 65 275 b 229 867 21 486 24 693 b 824 774 435 1040 763 994 b 779 219 885 553 903 308 b 528 244 656 131 572 185 b 335 122 522 136 453 58 b 228 497 217 186 189 343 b 344 633 247 574 299 615 b 304 807 393 653 344 829 b 153 576 267 786 181 747 b 228 128 125 406 151 231 b 494 6 304 25 428 6 b 625 44 565 6 592 33 b 676 3 696 72 671 17 b 672 -60 682 -11 742 -26 b 310 -74 603 -93 422 -132 b 65 275 197 -15 110 64 z m 426 722 b 533 642 444 650 508 681 b 538 722 539 665 535 681 b 593 726 540 764 571 725 b 640 696 615 728 640 758 b 758 664 642 588 774 590 l 758 667 b 522 890 722 832 619 892 b 426 722 425 889 390 867 z m 290 432 b 314 240 275 365 281 308 b 453 301 344 169 481 142 b 538 429 438 393 501 388 b 438 586 574 471 508 594 b 324 513 389 581 336 558 b 372 497 318 492 351 458 b 449 521 386 524 425 535 b 475 408 483 500 497 432 b 399 354 454 386 389 406 b 335 328 415 267 353 290 b 326 401 324 351 317 371 b 290 432 342 447 297 461 z m 625 382 b 733 315 551 278 678 240 b 782 469 764 356 779 407 b 653 489 785 585 657 594 b 625 382 651 447 644 408 z "},"&":{"ha":868,"x_min":0,"x_max":0,"o":"m 54 153 b 144 464 15 281 78 400 b 267 560 211 528 236 550 b 272 619 297 569 290 596 b 193 786 254 643 193 697 b 288 974 193 875 236 936 b 547 956 339 1011 475 1022 b 554 685 619 889 604 747 b 464 565 504 622 458 589 b 575 385 469 542 517 439 b 654 390 633 331 640 311 b 676 535 668 469 672 493 b 733 554 683 603 719 558 b 790 532 747 550 790 564 b 725 311 790 500 771 363 b 715 204 679 260 688 244 b 822 56 743 164 804 78 b 782 22 840 33 801 33 b 722 -4 763 11 735 -25 b 651 117 710 17 675 90 b 592 100 628 143 608 136 b 360 -15 575 64 508 -10 b 54 153 211 -21 93 25 z m 285 839 b 375 818 288 769 346 769 b 396 931 404 868 490 911 b 285 839 353 932 282 908 z m 331 656 b 467 697 365 594 426 619 b 508 840 496 758 506 781 b 404 764 508 883 440 807 b 331 656 372 722 303 711 z m 394 468 b 222 432 342 535 271 492 b 156 164 174 371 121 258 b 403 78 190 68 347 53 b 553 194 458 101 533 146 b 499 307 572 244 529 282 b 464 238 467 331 442 294 b 275 194 499 149 333 90 b 282 383 243 250 229 340 b 389 396 319 414 349 413 b 394 468 431 379 431 422 z "},"|":{"ha":290,"x_min":0,"x_max":0,"o":"m 160 990 b 206 1007 163 1039 193 1007 b 249 999 218 1007 251 1025 b 201 719 246 972 214 814 b 200 392 189 625 194 579 b 197 7 206 204 200 81 b 47 -21 194 -67 58 -96 b 122 300 15 197 124 214 b 128 644 121 386 138 582 b 160 990 118 707 163 932 z m 117 131 b 101 25 117 93 101 43 b 135 35 101 7 132 3 b 139 133 138 67 139 106 b 117 131 139 161 117 153 z "},"̈":{"ha":0,"x_min":0,"x_max":0,"o":"m -372 868 b -310 922 -372 892 -340 924 b -251 857 -276 921 -251 881 b -310 807 -251 835 -276 807 b -372 868 -340 807 -372 846 z m -483 906 b -494 821 -468 890 -474 843 b -581 825 -519 799 -565 810 b -578 903 -597 840 -600 879 b -483 906 -554 925 -499 921 z "},"̇":{"ha":0,"x_min":0,"x_max":0,"o":"m -103 974 b -204 878 -167 979 -206 915 b -140 811 -203 840 -171 811 b -31 878 -110 811 -39 839 b -103 974 -21 917 -40 968 z "},"̀":{"ha":0,"x_min":0,"x_max":0,"o":"m 369 954 b 317 951 335 990 335 964 b 290 922 303 942 271 944 b 403 818 304 906 365 842 b 568 764 454 786 526 764 b 565 800 606 764 565 785 b 564 844 565 815 583 849 b 369 954 489 828 411 910 z "},"́":{"ha":0,"x_min":0,"x_max":0,"o":"m -335 954 b -529 844 -376 910 -454 828 b -531 800 -549 849 -531 815 b -533 764 -531 785 -571 764 b -368 818 -492 764 -419 786 b -256 922 -331 842 -269 906 b -282 951 -236 944 -268 942 b -335 954 -300 964 -300 990 z "},"̂":{"ha":0,"x_min":0,"x_max":0,"o":"m -350 993 b -218 811 -331 935 -293 828 b -225 771 -199 807 -218 785 b -247 738 -232 757 -212 721 b -375 854 -285 756 -342 806 b -419 964 -400 890 -414 943 b -487 865 -426 943 -458 899 b -629 765 -528 819 -590 776 b -637 800 -665 756 -633 785 b -649 843 -642 815 -668 843 b -481 1001 -572 843 -507 968 b -407 1031 -435 1060 -421 1032 b -350 993 -393 1029 -372 1056 z "},"̊":{"ha":0,"x_min":0,"x_max":0,"o":"m -318 943 b -460 1026 -331 1017 -418 1040 b -515 933 -501 1013 -525 968 b -403 829 -506 899 -450 828 b -318 943 -356 831 -306 871 z m -382 965 b -362 910 -368 953 -360 929 b -432 901 -365 890 -403 896 b -453 964 -461 907 -468 944 b -382 965 -439 982 -407 988 z "},"̃":{"ha":0,"x_min":0,"x_max":0,"o":"m -611 921 b -556 999 -611 961 -585 993 b -456 950 -517 1006 -479 997 b -431 860 -444 928 -437 893 b -336 897 -417 793 -358 832 b -353 985 -324 933 -351 972 b -312 989 -356 1011 -328 989 b -278 989 -301 989 -292 1013 b -261 901 -262 964 -261 953 b -335 772 -261 853 -301 807 b -474 786 -376 728 -432 744 b -501 888 -497 810 -494 860 b -540 915 -515 940 -539 928 b -603 782 -546 867 -593 799 b -633 790 -615 761 -626 783 b -654 824 -642 799 -686 792 b -611 921 -644 833 -611 875 z "},"̧":{"ha":0,"x_min":0,"x_max":0,"o":"m -219 14 b -274 -90 -243 -26 -260 -61 b -239 -153 -287 -119 -271 -168 b -158 -133 -207 -137 -167 -104 b -210 -194 -150 -162 -181 -179 b -300 -260 -239 -210 -297 -231 b -190 -335 -303 -289 -296 -339 b -28 -172 -83 -331 -25 -214 b -160 -60 -31 -131 -119 -44 b -175 -22 -178 -67 -196 -71 l -158 18 z m -133 -201 b -100 -201 -124 -183 -108 -179 b -126 -250 -92 -224 -111 -236 b -210 -276 -146 -268 -185 -289 b -192 -243 -236 -264 -217 -250 b -133 -201 -169 -237 -150 -225 z "}}}
